<svg id="Aokumo" xmlns="http://www.w3.org/2000/svg" viewBox="0 0 1000 300"><defs><style>.cls-1{fill:#22a3f1;}.cls-2{fill:#294364;}</style></defs><path class="cls-1" d="M281.25,149.54c0-24.85,17-42.53,39.54-42.53,12.72,0,21.35,4.87,26.73,11.62l.43-9.91h21.43v82H348l-.43-9.91c-5.38,6.84-14,11.62-26.73,11.62C298.24,192.42,281.25,174.4,281.25,149.54Zm43.81-23c-13.15,0-22,9.91-22,23s8.89,23.41,22,23.41,22.38-10.25,22.38-23.41S338.13,126.57,325.06,126.57Z"/><path class="cls-1" d="M423.45,107c25.2,0,43.81,18.54,43.81,42.71s-18.61,42.7-43.81,42.7-43.81-18.45-43.81-42.7S398.34,107,423.45,107Zm0,65.6c12.9,0,22-9.74,22-22.89s-9.14-22.81-22-22.81-22,9.74-22,22.81S410.64,172.61,423.45,172.61Z"/><path class="cls-2" d="M619.79,108.72h21.86V157c0,20.75-15.63,35.44-38.77,35.44s-38.35-14.52-38.35-34.93V108.72h22v46c0,10.41,6.75,17.5,16.4,17.5,10.16,0,16.91-7.09,16.91-17.5Z"/><path class="cls-2" d="M725.73,121.53C731.54,112.82,742,107,754.17,107c18.79,0,32.2,12.22,32.2,32.2v51.5h-22V144.85c0-11.36-7-17.51-16.4-17.51s-18,5.89-18,17v46.37h-22V144.85c0-11.36-7.09-17.51-16.31-17.51-9.48,0-17.94,6.15-17.94,17.51v45.86H651.85v-82h20.84l.43,9.48c4.19-5.72,13.07-11.19,25.11-11.19C710.7,107,721,112.22,725.73,121.53Z"/><path class="cls-2" d="M840.22,107c25.19,0,43.81,18.54,43.81,42.71s-18.62,42.7-43.81,42.7S796.4,174,796.4,149.72,815.11,107,840.22,107Zm0,65.6c12.89,0,22-9.74,22-22.89s-9.14-22.81-22-22.81-22,9.74-22,22.81S827.41,172.61,840.22,172.61Z"/><polygon class="cls-2" points="560.63 190.84 534.85 190.84 515.14 162.76 499.28 184.68 499.28 190.64 477.42 190.64 477.42 108.71 499.28 108.71 499.28 151.66 503.35 145.95 515.16 129.42 530.03 108.57 554.37 108.57 527.79 145.28 560.63 190.84"/><path class="cls-1" d="M191.43,171.71A40,40,0,0,1,157.29,193,40,40,0,0,1,191.43,171.71Z"/><path class="cls-2" d="M228,192.77h-.29a24.76,24.76,0,0,1-24.22-19.63A40.21,40.21,0,0,1,228,192.77Z"/><circle class="cls-2" cx="211.84" cy="122.31" r="15.3"/><path class="cls-2" d="M228,192.77h-.29a24.76,24.76,0,0,1-24.22-19.63A40.21,40.21,0,0,1,228,192.77Z"/><path class="cls-2" d="M252.46,168a24.76,24.76,0,0,1-19.64,24.22,56.13,56.13,0,0,0-29.44-28.78A24.75,24.75,0,0,1,252.46,168Z"/><path class="cls-1" d="M191.43,171.71A40,40,0,0,1,157.29,193,40,40,0,0,1,191.43,171.71Z"/><path class="cls-1" d="M196.09,153a40.45,40.45,0,0,1-.77,7.83,56,56,0,0,0-61.59,25.44A40.06,40.06,0,1,1,196.09,153Z"/><path class="cls-1" d="M191.43,171.71A40,40,0,0,1,157.29,193,40,40,0,0,1,191.43,171.71Z"/><path class="cls-2" d="M228,192.77h-.29a24.76,24.76,0,0,1-24.22-19.63A40.21,40.21,0,0,1,228,192.77Z"/></svg>