<svg width="1440" height="34" viewBox="0 0 1440 34" fill="none" xmlns="http://www.w3.org/2000/svg">
<g opacity="0.5">
<circle cx="4.5" cy="4.5" r="4.5" fill="#E1E9F2"/>
<circle cx="38.5" cy="4.5" r="4.5" fill="#E1E9F2"/>
<circle cx="72.5" cy="4.5" r="4.5" fill="#E1E9F2"/>
<circle cx="106.5" cy="4.5" r="4.5" fill="#E1E9F2"/>
<circle cx="140.5" cy="4.5" r="4.5" fill="#E1E9F2"/>
<circle cx="174.5" cy="4.5" r="4.5" fill="#E1E9F2"/>
<circle cx="208.5" cy="4.5" r="4.5" fill="#E1E9F2"/>
<circle cx="242.5" cy="4.5" r="4.5" fill="#E1E9F2"/>
<circle cx="276.5" cy="4.5" r="4.5" fill="#E1E9F2"/>
<circle cx="310.5" cy="4.5" r="4.5" fill="#E1E9F2"/>
<circle cx="344.5" cy="4.5" r="4.5" fill="#E1E9F2"/>
<circle cx="378.5" cy="4.5" r="4.5" fill="#E1E9F2"/>
<circle cx="412.5" cy="4.5" r="4.5" fill="#E1E9F2"/>
<circle cx="446.5" cy="4.5" r="4.5" fill="#E1E9F2"/>
<circle cx="480.5" cy="4.5" r="4.5" fill="#E1E9F2"/>
<circle cx="514.5" cy="4.5" r="4.5" fill="#E1E9F2"/>
<circle cx="548.5" cy="4.5" r="4.5" fill="#E1E9F2"/>
<circle cx="582.5" cy="4.5" r="4.5" fill="#E1E9F2"/>
<circle cx="616.5" cy="4.5" r="4.5" fill="#E1E9F2"/>
<circle cx="650.5" cy="4.5" r="4.5" fill="#E1E9F2"/>
<circle cx="684.5" cy="4.5" r="4.5" fill="#E1E9F2"/>
<circle cx="718.5" cy="4.5" r="4.5" fill="#E1E9F2"/>
<circle cx="752.5" cy="4.5" r="4.5" fill="#E1E9F2"/>
<circle cx="786.5" cy="4.5" r="4.5" fill="#E1E9F2"/>
<circle cx="820.5" cy="4.5" r="4.5" fill="#E1E9F2"/>
<circle cx="854.5" cy="4.5" r="4.5" fill="#E1E9F2"/>
<circle cx="888.5" cy="4.5" r="4.5" fill="#E1E9F2"/>
<circle cx="922.5" cy="4.5" r="4.5" fill="#E1E9F2"/>
<circle cx="956.5" cy="4.5" r="4.5" fill="#E1E9F2"/>
<circle cx="990.5" cy="4.5" r="4.5" fill="#E1E9F2"/>
<circle cx="1024.5" cy="4.5" r="4.5" fill="#E1E9F2"/>
<circle cx="1058.5" cy="4.5" r="4.5" fill="#E1E9F2"/>
<circle cx="1092.5" cy="4.5" r="4.5" fill="#E1E9F2"/>
<circle cx="1126.5" cy="4.5" r="4.5" fill="#E1E9F2"/>
<circle cx="1160.5" cy="4.5" r="4.5" fill="#E1E9F2"/>
<circle cx="1194.5" cy="4.5" r="4.5" fill="#E1E9F2"/>
<circle cx="1228.5" cy="4.5" r="4.5" fill="#E1E9F2"/>
<circle cx="1262.5" cy="4.5" r="4.5" fill="#E1E9F2"/>
<circle cx="1296.5" cy="4.5" r="4.5" fill="#E1E9F2"/>
<circle cx="1330.5" cy="4.5" r="4.5" fill="#E1E9F2"/>
<circle cx="1364.5" cy="4.5" r="4.5" fill="#E1E9F2"/>
<circle cx="1398.5" cy="4.5" r="4.5" fill="#E1E9F2"/>
<circle cx="1432.5" cy="4.5" r="4.5" fill="#E1E9F2"/>
</g>
</svg>
