<svg width="1440" height="3137" viewBox="0 0 1440 3137" fill="none" xmlns="http://www.w3.org/2000/svg">
<g opacity="0.2" clip-path="url(#clip0_89_212)">
<path d="M23.1427 118.91C21.0482 111.887 22.2285 101.796 34.7303 99.6806L48.6757 97.374C56.9527 95.9811 58.1189 94.02 51.6672 89.3715L39.059 80.2253C29.2052 73.1855 30.6807 63.2451 37.8703 57.1574C44.0587 51.9061 54.1565 50.747 62.255 57.7725L70.8124 65.4977C76.0257 69.9778 77.9782 69.3955 79.5989 62.8773L82.5271 51.7269C85.4547 41.4131 94.529 37.8705 102.599 38.9293C110.366 40.0189 118.843 45.3779 114.232 57.8068L108.98 72.2793C106.638 78.4749 107.802 79.4423 115.367 76.7083L128.223 71.7988C140.276 67.1289 147.374 72.8989 149.829 81.1295C152.284 89.3602 149.505 98.0761 136.863 100.771L123.418 103.705C115.575 105.506 115.131 106.953 120.501 110.908L132.822 120.14C143.544 127.996 139.387 137.123 133.429 142.306C127.24 147.557 117.667 149.636 109.626 142.593L101.068 134.868C96.1421 130.302 94.1895 130.884 92.2818 137.488L89.3535 148.639C86.4259 158.952 77.3426 163.513 69.2888 162.509C59.9966 161.337 53.26 153.846 57.6483 142.559L63.1873 128.001C66.039 120.578 64.0055 119.63 56.3012 122.944L43.3703 128.652C31.7359 133.676 25.2209 125.879 23.1427 118.91Z" fill="#7E7E7E"/>
<path d="M36.8389 91.3606L36.8416 91.3601C38.9309 91.0085 40.6347 90.6117 41.9022 90.1226C43.1153 89.6546 44.1888 89.0063 44.6176 87.9787C45.0878 86.852 44.6207 85.7316 43.8748 84.773C43.1165 83.7985 41.8859 82.7377 40.2538 81.5616C40.2531 81.5611 40.2524 81.5606 40.2518 81.5601L27.6462 72.4159L27.6462 72.4158L27.6403 72.4116C22.9257 69.0434 21.0408 65.083 21.0733 61.343C21.1061 57.5702 23.0915 53.8207 26.5165 50.9206L26.5173 50.9199C32.3563 45.9651 41.8958 44.8507 49.5924 51.5215L58.1423 59.2399L58.1514 59.2481L58.1607 59.2561C59.4833 60.3927 60.6562 61.2595 61.7074 61.7882C62.7541 62.3148 63.8175 62.5747 64.8387 62.2701C65.8671 61.9634 66.5985 61.161 67.153 60.1461C67.7067 59.1327 68.1566 57.7774 68.5677 56.1251C68.5683 56.1229 68.5688 56.1208 68.5694 56.1186L71.4918 44.9904C74.2536 35.2783 82.7611 31.9113 90.4646 32.9202C94.2092 33.4463 97.9926 34.9883 100.288 37.7544C102.525 40.4509 103.504 44.5026 101.295 50.459L101.292 50.4657L96.045 64.9257C96.0442 64.9277 96.0435 64.9297 96.0427 64.9318C95.4543 66.4889 95.0491 67.8084 94.9325 68.8592C94.8187 69.8837 94.9488 70.9925 95.8771 71.656C96.706 72.2484 97.858 72.2275 99.019 72.0262C100.245 71.8137 101.804 71.3365 103.707 70.6488L103.715 70.6457L103.723 70.6425L116.58 65.733L116.584 65.7312C122.416 63.4717 126.891 63.7919 130.16 65.5115C133.446 67.2406 135.697 70.4805 136.871 74.4153C138.044 78.3502 137.936 82.2937 136.133 85.5407C134.34 88.7699 130.772 91.4888 124.655 92.7925L124.65 92.7936L111.204 95.7279L111.204 95.7278L111.194 95.7303C109.221 96.1833 107.652 96.6271 106.507 97.1137C105.423 97.5742 104.443 98.1834 104.072 99.1366C103.659 100.2 104.159 101.203 104.815 102.002C105.49 102.824 106.554 103.716 107.904 104.711C107.905 104.712 107.906 104.713 107.907 104.714L120.222 113.94L120.222 113.941L120.231 113.947C125.371 117.713 126.782 121.635 126.387 125.113C125.982 128.682 123.65 132.047 120.777 134.548C114.857 139.568 105.856 141.467 98.2898 134.845C98.288 134.844 98.2862 134.842 98.2844 134.841L89.748 127.135C89.7464 127.133 89.7448 127.132 89.7432 127.13C88.4942 125.973 87.3754 125.085 86.357 124.541C85.3372 123.995 84.2858 123.725 83.2573 124.031C82.2361 124.336 81.4888 125.136 80.9015 126.15C80.3116 127.168 79.8051 128.535 79.321 130.211L79.3177 130.222L79.3146 130.234L76.3888 141.375C73.6034 151.171 65.0127 155.464 57.414 154.517C52.988 153.959 49.2712 151.909 47.1693 148.771C45.0865 145.66 44.4816 141.319 46.5804 135.921L46.583 135.914L52.1208 121.359C52.1209 121.359 52.1211 121.359 52.1212 121.358C52.8424 119.481 53.2923 117.922 53.3944 116.696C53.4948 115.49 53.2743 114.298 52.2612 113.616C51.3412 112.997 50.0898 113.044 48.8207 113.314C47.4934 113.596 45.8497 114.189 43.9061 115.025L43.8974 115.029L30.974 120.734C30.9727 120.735 30.9715 120.735 30.9703 120.736C25.4237 123.13 21.2479 122.427 18.2214 120.442C15.1347 118.418 13.096 114.961 12.101 111.625C11.0974 108.259 10.9066 104.237 12.3797 100.854C13.8238 97.5378 16.9346 94.6758 22.8951 93.6669C22.8957 93.6668 22.8964 93.6667 22.8971 93.6666L36.8389 91.3606Z" stroke="#484848" stroke-width="2"/>
<path d="M23.1427 2933.91C21.0482 2926.89 22.2285 2916.8 34.7303 2914.68L48.6757 2912.37C56.9527 2910.98 58.1189 2909.02 51.6672 2904.37L39.059 2895.23C29.2052 2888.19 30.6807 2878.25 37.8703 2872.16C44.0587 2866.91 54.1565 2865.75 62.255 2872.77L70.8124 2880.5C76.0257 2884.98 77.9782 2884.4 79.5989 2877.88L82.5271 2866.73C85.4547 2856.41 94.529 2852.87 102.599 2853.93C110.366 2855.02 118.843 2860.38 114.232 2872.81L108.98 2887.28C106.638 2893.47 107.802 2894.44 115.367 2891.71L128.223 2886.8C140.276 2882.13 147.374 2887.9 149.829 2896.13C152.284 2904.36 149.505 2913.08 136.863 2915.77L123.418 2918.7C115.575 2920.51 115.131 2921.95 120.501 2925.91L132.822 2935.14C143.544 2943 139.387 2952.12 133.429 2957.31C127.24 2962.56 117.667 2964.64 109.626 2957.59L101.068 2949.87C96.1421 2945.3 94.1895 2945.88 92.2818 2952.49L89.3535 2963.64C86.4259 2973.95 77.3426 2978.51 69.2888 2977.51C59.9966 2976.34 53.26 2968.85 57.6483 2957.56L63.1873 2943C66.039 2935.58 64.0055 2934.63 56.3012 2937.94L43.3703 2943.65C31.7359 2948.68 25.2209 2940.88 23.1427 2933.91Z" fill="#7E7E7E"/>
<path d="M36.8389 2906.36L36.8416 2906.36C38.9309 2906.01 40.6347 2905.61 41.9022 2905.12C43.1153 2904.65 44.1888 2904.01 44.6176 2902.98C45.0878 2901.85 44.6207 2900.73 43.8748 2899.77C43.1165 2898.8 41.8859 2897.74 40.2538 2896.56C40.2531 2896.56 40.2524 2896.56 40.2518 2896.56L27.6462 2887.42L27.6462 2887.42L27.6403 2887.41C22.9257 2884.04 21.0408 2880.08 21.0733 2876.34C21.1061 2872.57 23.0915 2868.82 26.5165 2865.92L26.5173 2865.92C32.3563 2860.97 41.8958 2859.85 49.5924 2866.52L58.1423 2874.24L58.1514 2874.25L58.1607 2874.26C59.4833 2875.39 60.6562 2876.26 61.7074 2876.79C62.7541 2877.31 63.8175 2877.57 64.8387 2877.27C65.8671 2876.96 66.5985 2876.16 67.153 2875.15C67.7067 2874.13 68.1566 2872.78 68.5677 2871.13C68.5683 2871.12 68.5688 2871.12 68.5694 2871.12L71.4918 2859.99C74.2536 2850.28 82.7611 2846.91 90.4646 2847.92C94.2092 2848.45 97.9926 2849.99 100.288 2852.75C102.525 2855.45 103.504 2859.5 101.295 2865.46L101.292 2865.47L96.045 2879.93C96.0442 2879.93 96.0435 2879.93 96.0427 2879.93C95.4543 2881.49 95.0491 2882.81 94.9325 2883.86C94.8187 2884.88 94.9488 2885.99 95.8771 2886.66C96.706 2887.25 97.858 2887.23 99.019 2887.03C100.245 2886.81 101.804 2886.34 103.707 2885.65L103.715 2885.65L103.723 2885.64L116.58 2880.73L116.584 2880.73C122.416 2878.47 126.891 2878.79 130.16 2880.51C133.446 2882.24 135.697 2885.48 136.871 2889.42C138.044 2893.35 137.936 2897.29 136.133 2900.54C134.34 2903.77 130.772 2906.49 124.655 2907.79L124.65 2907.79L111.204 2910.73L111.204 2910.73L111.194 2910.73C109.221 2911.18 107.652 2911.63 106.507 2912.11C105.423 2912.57 104.443 2913.18 104.072 2914.14C103.659 2915.2 104.159 2916.2 104.815 2917C105.49 2917.82 106.554 2918.72 107.904 2919.71C107.905 2919.71 107.906 2919.71 107.907 2919.71L120.222 2928.94L120.222 2928.94L120.231 2928.95C125.371 2932.71 126.782 2936.63 126.387 2940.11C125.982 2943.68 123.65 2947.05 120.777 2949.55C114.857 2954.57 105.856 2956.47 98.2898 2949.85C98.288 2949.84 98.2862 2949.84 98.2844 2949.84L89.748 2942.13C89.7464 2942.13 89.7448 2942.13 89.7432 2942.13C88.4942 2940.97 87.3754 2940.09 86.357 2939.54C85.3372 2939 84.2858 2938.72 83.2573 2939.03C82.2361 2939.34 81.4888 2940.14 80.9015 2941.15C80.3116 2942.17 79.8051 2943.54 79.321 2945.21L79.3177 2945.22L79.3146 2945.23L76.3888 2956.37C73.6034 2966.17 65.0127 2970.46 57.414 2969.52C52.988 2968.96 49.2712 2966.91 47.1693 2963.77C45.0865 2960.66 44.4816 2956.32 46.5804 2950.92L46.583 2950.91L52.1208 2936.36C52.1209 2936.36 52.1211 2936.36 52.1212 2936.36C52.8424 2934.48 53.2923 2932.92 53.3944 2931.7C53.4948 2930.49 53.2743 2929.3 52.2612 2928.62C51.3412 2928 50.0898 2928.04 48.8207 2928.31C47.4934 2928.6 45.8497 2929.19 43.9061 2930.03L43.8974 2930.03L30.974 2935.73C30.9727 2935.73 30.9715 2935.74 30.9703 2935.74C25.4237 2938.13 21.2479 2937.43 18.2214 2935.44C15.1347 2933.42 13.096 2929.96 12.101 2926.62C11.0974 2923.26 10.9066 2919.24 12.3797 2915.85C13.8238 2912.54 16.9346 2909.68 22.8951 2908.67C22.8957 2908.67 22.8964 2908.67 22.8971 2908.67L36.8389 2906.36Z" stroke="#484848" stroke-width="2"/>
<path d="M23.1427 1541.91C21.0482 1534.89 22.2285 1524.8 34.7303 1522.68L48.6757 1520.37C56.9527 1518.98 58.1189 1517.02 51.6672 1512.37L39.059 1503.23C29.2052 1496.19 30.6807 1486.25 37.8703 1480.16C44.0587 1474.91 54.1565 1473.75 62.255 1480.77L70.8124 1488.5C76.0257 1492.98 77.9782 1492.4 79.5989 1485.88L82.5271 1474.73C85.4547 1464.41 94.529 1460.87 102.599 1461.93C110.366 1463.02 118.843 1468.38 114.232 1480.81L108.98 1495.28C106.638 1501.47 107.802 1502.44 115.367 1499.71L128.223 1494.8C140.276 1490.13 147.374 1495.9 149.829 1504.13C152.284 1512.36 149.505 1521.08 136.863 1523.77L123.418 1526.7C115.575 1528.51 115.131 1529.95 120.501 1533.91L132.822 1543.14C143.544 1551 139.387 1560.12 133.429 1565.31C127.24 1570.56 117.667 1572.64 109.626 1565.59L101.068 1557.87C96.1421 1553.3 94.1895 1553.88 92.2818 1560.49L89.3535 1571.64C86.4259 1581.95 77.3426 1586.51 69.2888 1585.51C59.9966 1584.34 53.26 1576.85 57.6483 1565.56L63.1873 1551C66.039 1543.58 64.0055 1542.63 56.3012 1545.94L43.3703 1551.65C31.7359 1556.68 25.2209 1548.88 23.1427 1541.91Z" fill="#7E7E7E"/>
<path d="M36.8389 1514.36L36.8416 1514.36C38.9309 1514.01 40.6347 1513.61 41.9022 1513.12C43.1153 1512.65 44.1888 1512.01 44.6176 1510.98C45.0878 1509.85 44.6207 1508.73 43.8748 1507.77C43.1165 1506.8 41.8859 1505.74 40.2538 1504.56C40.2531 1504.56 40.2524 1504.56 40.2518 1504.56L27.6462 1495.42L27.6462 1495.42L27.6403 1495.41C22.9257 1492.04 21.0408 1488.08 21.0733 1484.34C21.1061 1480.57 23.0915 1476.82 26.5165 1473.92L26.5173 1473.92C32.3563 1468.97 41.8958 1467.85 49.5924 1474.52L58.1423 1482.24L58.1514 1482.25L58.1607 1482.26C59.4833 1483.39 60.6562 1484.26 61.7074 1484.79C62.7541 1485.31 63.8175 1485.57 64.8387 1485.27C65.8671 1484.96 66.5985 1484.16 67.153 1483.15C67.7067 1482.13 68.1566 1480.78 68.5677 1479.13C68.5683 1479.12 68.5688 1479.12 68.5694 1479.12L71.4918 1467.99C74.2536 1458.28 82.7611 1454.91 90.4646 1455.92C94.2092 1456.45 97.9926 1457.99 100.288 1460.75C102.525 1463.45 103.504 1467.5 101.295 1473.46L101.292 1473.47L96.045 1487.93C96.0442 1487.93 96.0435 1487.93 96.0427 1487.93C95.4543 1489.49 95.0491 1490.81 94.9325 1491.86C94.8187 1492.88 94.9488 1493.99 95.8771 1494.66C96.706 1495.25 97.858 1495.23 99.019 1495.03C100.245 1494.81 101.804 1494.34 103.707 1493.65L103.715 1493.65L103.723 1493.64L116.58 1488.73L116.584 1488.73C122.416 1486.47 126.891 1486.79 130.16 1488.51C133.446 1490.24 135.697 1493.48 136.871 1497.42C138.044 1501.35 137.936 1505.29 136.133 1508.54C134.34 1511.77 130.772 1514.49 124.655 1515.79L124.65 1515.79L111.204 1518.73L111.204 1518.73L111.194 1518.73C109.221 1519.18 107.652 1519.63 106.507 1520.11C105.423 1520.57 104.443 1521.18 104.072 1522.14C103.659 1523.2 104.159 1524.2 104.815 1525C105.49 1525.82 106.554 1526.72 107.904 1527.71C107.905 1527.71 107.906 1527.71 107.907 1527.71L120.222 1536.94L120.222 1536.94L120.231 1536.95C125.371 1540.71 126.782 1544.63 126.387 1548.11C125.982 1551.68 123.65 1555.05 120.777 1557.55C114.857 1562.57 105.856 1564.47 98.2898 1557.85C98.288 1557.84 98.2862 1557.84 98.2844 1557.84L89.748 1550.13C89.7464 1550.13 89.7448 1550.13 89.7432 1550.13C88.4942 1548.97 87.3754 1548.09 86.357 1547.54C85.3372 1547 84.2858 1546.72 83.2573 1547.03C82.2361 1547.34 81.4888 1548.14 80.9015 1549.15C80.3116 1550.17 79.8051 1551.54 79.321 1553.21L79.3177 1553.22L79.3146 1553.23L76.3888 1564.37C73.6034 1574.17 65.0127 1578.46 57.414 1577.52C52.988 1576.96 49.2712 1574.91 47.1693 1571.77C45.0865 1568.66 44.4816 1564.32 46.5804 1558.92L46.583 1558.91L52.1208 1544.36C52.1209 1544.36 52.1211 1544.36 52.1212 1544.36C52.8424 1542.48 53.2923 1540.92 53.3944 1539.7C53.4948 1538.49 53.2743 1537.3 52.2612 1536.62C51.3412 1536 50.0898 1536.04 48.8207 1536.31C47.4934 1536.6 45.8497 1537.19 43.9061 1538.03L43.8974 1538.03L30.974 1543.73C30.9727 1543.73 30.9715 1543.74 30.9703 1543.74C25.4237 1546.13 21.2479 1545.43 18.2214 1543.44C15.1347 1541.42 13.096 1537.96 12.101 1534.62C11.0974 1531.26 10.9066 1527.24 12.3797 1523.85C13.8238 1520.54 16.9346 1517.68 22.8951 1516.67C22.8957 1516.67 22.8964 1516.67 22.8971 1516.67L36.8389 1514.36Z" stroke="#484848" stroke-width="2"/>
<path d="M1401.18 857.91C1403.27 850.887 1402.09 840.796 1389.59 838.681L1375.64 836.374C1367.37 834.981 1366.2 833.02 1372.65 828.371L1385.26 819.225C1395.11 812.186 1393.64 802.245 1386.45 796.157C1380.26 790.906 1370.16 789.747 1362.06 796.772L1353.51 804.498C1348.29 808.978 1346.34 808.395 1344.72 801.877L1341.79 790.727C1338.86 780.413 1329.79 776.87 1321.72 777.929C1313.95 779.019 1305.48 784.378 1310.09 796.807L1315.34 811.279C1317.68 817.475 1316.52 818.442 1308.95 815.708L1296.1 810.799C1284.04 806.129 1276.94 811.899 1274.49 820.13C1272.03 828.36 1274.81 837.076 1287.46 839.771L1300.9 842.705C1308.74 844.506 1309.19 845.953 1303.82 849.908L1291.5 859.14C1280.77 866.996 1284.93 876.123 1290.89 881.306C1297.08 886.557 1306.65 888.636 1314.69 881.593L1323.25 873.868C1328.18 869.302 1330.13 869.884 1332.04 876.488L1334.96 887.639C1337.89 897.952 1346.98 902.513 1355.03 901.509C1364.32 900.337 1371.06 892.846 1366.67 881.559L1361.13 867.001C1358.28 859.578 1360.31 858.63 1368.02 861.944L1380.95 867.652C1392.58 872.676 1399.1 864.879 1401.18 857.91Z" fill="#7E7E7E"/>
<path d="M1387.48 830.361L1387.48 830.36C1385.39 830.009 1383.68 829.612 1382.42 829.123C1381.2 828.655 1380.13 828.006 1379.7 826.979C1379.23 825.852 1379.7 824.732 1380.44 823.773C1381.2 822.798 1382.43 821.738 1384.06 820.562C1384.07 820.561 1384.07 820.561 1384.07 820.56L1396.67 811.416L1396.67 811.416L1396.68 811.412C1401.39 808.043 1403.28 804.083 1403.25 800.343C1403.21 796.57 1401.23 792.821 1397.8 789.921L1397.8 789.92C1391.96 784.965 1382.42 783.851 1374.73 790.521L1366.18 798.24L1366.17 798.248L1366.16 798.256C1364.84 799.393 1363.66 800.259 1362.61 800.788C1361.56 801.315 1360.5 801.575 1359.48 801.27C1358.45 800.963 1357.72 800.161 1357.17 799.146C1356.61 798.133 1356.16 796.777 1355.75 795.125C1355.75 795.123 1355.75 795.121 1355.75 795.119L1352.83 783.99C1350.06 774.278 1341.56 770.911 1333.85 771.92C1330.11 772.446 1326.33 773.988 1324.03 776.754C1321.79 779.451 1320.81 783.503 1323.02 789.459L1323.03 789.466L1328.27 803.926C1328.27 803.928 1328.27 803.93 1328.28 803.932C1328.86 805.489 1329.27 806.808 1329.39 807.859C1329.5 808.884 1329.37 809.992 1328.44 810.656C1327.61 811.248 1326.46 811.227 1325.3 811.026C1324.07 810.814 1322.51 810.336 1320.61 809.649L1320.6 809.646L1320.59 809.643L1307.74 804.733L1307.73 804.731C1301.9 802.472 1297.43 802.792 1294.16 804.511C1290.87 806.241 1288.62 809.48 1287.45 813.415C1286.27 817.35 1286.38 821.294 1288.19 824.541C1289.98 827.77 1293.55 830.489 1299.66 831.793L1299.67 831.794L1313.11 834.728L1313.11 834.728L1313.12 834.73C1315.1 835.183 1316.67 835.627 1317.81 836.114C1318.89 836.574 1319.88 837.183 1320.25 838.137C1320.66 839.2 1320.16 840.203 1319.5 841.002C1318.83 841.824 1317.76 842.716 1316.41 843.711C1316.41 843.712 1316.41 843.713 1316.41 843.714L1304.1 852.94L1304.1 852.941L1304.09 852.947C1298.95 856.713 1297.54 860.635 1297.93 864.113C1298.34 867.682 1300.67 871.047 1303.54 873.548C1309.46 878.568 1318.46 880.467 1326.03 873.845C1326.03 873.844 1326.03 873.842 1326.03 873.841L1334.57 866.135C1334.57 866.133 1334.57 866.132 1334.58 866.13C1335.82 864.973 1336.94 864.085 1337.96 863.541C1338.98 862.995 1340.03 862.725 1341.06 863.031C1342.08 863.336 1342.83 864.136 1343.42 865.15C1344.01 866.168 1344.51 867.535 1345 869.211L1345 869.222L1345 869.234L1347.93 880.375C1350.71 890.171 1359.31 894.464 1366.9 893.517C1371.33 892.959 1375.05 890.909 1377.15 887.771C1379.23 884.66 1379.84 880.319 1377.74 874.921L1377.74 874.914L1372.2 860.359C1372.2 860.359 1372.2 860.359 1372.2 860.358C1371.48 858.481 1371.03 856.922 1370.92 855.696C1370.82 854.49 1371.04 853.298 1372.06 852.616C1372.98 851.997 1374.23 852.044 1375.5 852.314C1376.82 852.596 1378.47 853.189 1380.41 854.025L1380.42 854.029L1393.34 859.734C1393.35 859.735 1393.35 859.735 1393.35 859.736C1398.89 862.13 1403.07 861.427 1406.1 859.442C1409.18 857.418 1411.22 853.961 1412.22 850.625C1413.22 847.259 1413.41 843.237 1411.94 839.854C1410.49 836.538 1407.38 833.676 1401.42 832.667C1401.42 832.667 1401.42 832.667 1401.42 832.667L1387.48 830.361Z" stroke="#484848" stroke-width="2"/>
<path d="M1401.18 2280.91C1403.27 2273.89 1402.09 2263.8 1389.59 2261.68L1375.64 2259.37C1367.37 2257.98 1366.2 2256.02 1372.65 2251.37L1385.26 2242.23C1395.11 2235.19 1393.64 2225.25 1386.45 2219.16C1380.26 2213.91 1370.16 2212.75 1362.06 2219.77L1353.51 2227.5C1348.29 2231.98 1346.34 2231.4 1344.72 2224.88L1341.79 2213.73C1338.86 2203.41 1329.79 2199.87 1321.72 2200.93C1313.95 2202.02 1305.48 2207.38 1310.09 2219.81L1315.34 2234.28C1317.68 2240.47 1316.52 2241.44 1308.95 2238.71L1296.1 2233.8C1284.04 2229.13 1276.94 2234.9 1274.49 2243.13C1272.03 2251.36 1274.81 2260.08 1287.46 2262.77L1300.9 2265.7C1308.74 2267.51 1309.19 2268.95 1303.82 2272.91L1291.5 2282.14C1280.77 2290 1284.93 2299.12 1290.89 2304.31C1297.08 2309.56 1306.65 2311.64 1314.69 2304.59L1323.25 2296.87C1328.18 2292.3 1330.13 2292.88 1332.04 2299.49L1334.96 2310.64C1337.89 2320.95 1346.98 2325.51 1355.03 2324.51C1364.32 2323.34 1371.06 2315.85 1366.67 2304.56L1361.13 2290C1358.28 2282.58 1360.31 2281.63 1368.02 2284.94L1380.95 2290.65C1392.58 2295.68 1399.1 2287.88 1401.18 2280.91Z" fill="#7E7E7E"/>
<path d="M1387.48 2253.36L1387.48 2253.36C1385.39 2253.01 1383.68 2252.61 1382.42 2252.12C1381.2 2251.65 1380.13 2251.01 1379.7 2249.98C1379.23 2248.85 1379.7 2247.73 1380.44 2246.77C1381.2 2245.8 1382.43 2244.74 1384.06 2243.56C1384.07 2243.56 1384.07 2243.56 1384.07 2243.56L1396.67 2234.42L1396.67 2234.42L1396.68 2234.41C1401.39 2231.04 1403.28 2227.08 1403.25 2223.34C1403.21 2219.57 1401.23 2215.82 1397.8 2212.92L1397.8 2212.92C1391.96 2207.97 1382.42 2206.85 1374.73 2213.52L1366.18 2221.24L1366.17 2221.25L1366.16 2221.26C1364.84 2222.39 1363.66 2223.26 1362.61 2223.79C1361.56 2224.31 1360.5 2224.57 1359.48 2224.27C1358.45 2223.96 1357.72 2223.16 1357.17 2222.15C1356.61 2221.13 1356.16 2219.78 1355.75 2218.13C1355.75 2218.12 1355.75 2218.12 1355.75 2218.12L1352.83 2206.99C1350.06 2197.28 1341.56 2193.91 1333.85 2194.92C1330.11 2195.45 1326.33 2196.99 1324.03 2199.75C1321.79 2202.45 1320.81 2206.5 1323.02 2212.46L1323.03 2212.47L1328.27 2226.93C1328.27 2226.93 1328.27 2226.93 1328.28 2226.93C1328.86 2228.49 1329.27 2229.81 1329.39 2230.86C1329.5 2231.88 1329.37 2232.99 1328.44 2233.66C1327.61 2234.25 1326.46 2234.23 1325.3 2234.03C1324.07 2233.81 1322.51 2233.34 1320.61 2232.65L1320.6 2232.65L1320.59 2232.64L1307.74 2227.73L1307.73 2227.73C1301.9 2225.47 1297.43 2225.79 1294.16 2227.51C1290.87 2229.24 1288.62 2232.48 1287.45 2236.42C1286.27 2240.35 1286.38 2244.29 1288.19 2247.54C1289.98 2250.77 1293.55 2253.49 1299.66 2254.79L1299.67 2254.79L1313.11 2257.73L1313.11 2257.73L1313.12 2257.73C1315.1 2258.18 1316.67 2258.63 1317.81 2259.11C1318.89 2259.57 1319.88 2260.18 1320.25 2261.14C1320.66 2262.2 1320.16 2263.2 1319.5 2264C1318.83 2264.82 1317.76 2265.72 1316.41 2266.71C1316.41 2266.71 1316.41 2266.71 1316.41 2266.71L1304.1 2275.94L1304.1 2275.94L1304.09 2275.95C1298.95 2279.71 1297.54 2283.63 1297.93 2287.11C1298.34 2290.68 1300.67 2294.05 1303.54 2296.55C1309.46 2301.57 1318.46 2303.47 1326.03 2296.85C1326.03 2296.84 1326.03 2296.84 1326.03 2296.84L1334.57 2289.13C1334.57 2289.13 1334.57 2289.13 1334.58 2289.13C1335.82 2287.97 1336.94 2287.09 1337.96 2286.54C1338.98 2286 1340.03 2285.72 1341.06 2286.03C1342.08 2286.34 1342.83 2287.14 1343.42 2288.15C1344.01 2289.17 1344.51 2290.54 1345 2292.21L1345 2292.22L1345 2292.23L1347.93 2303.37C1350.71 2313.17 1359.31 2317.46 1366.9 2316.52C1371.33 2315.96 1375.05 2313.91 1377.15 2310.77C1379.23 2307.66 1379.84 2303.32 1377.74 2297.92L1377.74 2297.91L1372.2 2283.36C1372.2 2283.36 1372.2 2283.36 1372.2 2283.36C1371.48 2281.48 1371.03 2279.92 1370.92 2278.7C1370.82 2277.49 1371.04 2276.3 1372.06 2275.62C1372.98 2275 1374.23 2275.04 1375.5 2275.31C1376.82 2275.6 1378.47 2276.19 1380.41 2277.03L1380.42 2277.03L1393.34 2282.73C1393.35 2282.73 1393.35 2282.74 1393.35 2282.74C1398.89 2285.13 1403.07 2284.43 1406.1 2282.44C1409.18 2280.42 1411.22 2276.96 1412.22 2273.62C1413.22 2270.26 1413.41 2266.24 1411.94 2262.85C1410.49 2259.54 1407.38 2256.68 1401.42 2255.67C1401.42 2255.67 1401.42 2255.67 1401.42 2255.67L1387.48 2253.36Z" stroke="#484848" stroke-width="2"/>
<path d="M622.354 2481.92C620.616 2487.75 621.596 2496.12 631.97 2497.88L643.543 2499.79C650.411 2500.95 651.379 2502.57 646.025 2506.43L635.562 2514.02C627.385 2519.86 628.61 2528.11 634.576 2533.16C639.711 2537.52 648.091 2538.48 654.811 2532.65L661.913 2526.24C666.239 2522.53 667.859 2523.01 669.204 2528.42L671.634 2537.67C674.064 2546.23 681.594 2549.17 688.291 2548.29C694.736 2547.39 701.771 2542.94 697.945 2532.63L693.586 2520.62C691.643 2515.47 692.609 2514.67 698.886 2516.94L709.555 2521.01C719.557 2524.89 725.448 2520.1 727.484 2513.27C729.521 2506.44 727.215 2499.21 716.725 2496.97L705.567 2494.54C699.059 2493.04 698.69 2491.84 703.146 2488.56L713.371 2480.9C722.269 2474.38 718.819 2466.81 713.875 2462.5C708.739 2458.15 700.795 2456.42 694.122 2462.27L687.02 2468.68C682.933 2472.47 681.312 2471.98 679.729 2466.5L677.299 2457.25C674.87 2448.69 667.332 2444.91 660.648 2445.74C652.937 2446.71 647.347 2452.93 650.989 2462.29L655.585 2474.38C657.952 2480.54 656.264 2481.32 649.871 2478.57L639.14 2473.83C629.485 2469.67 624.079 2476.14 622.354 2481.92Z" fill="#7E7E7E"/>
<path d="M633.75 2504.61L633.748 2504.61L622.179 2502.7C622.178 2502.7 622.177 2502.7 622.177 2502.7C617.28 2501.87 614.751 2499.53 613.579 2496.84C612.377 2494.08 612.529 2490.78 613.354 2488.01C614.172 2485.27 615.846 2482.44 618.364 2480.79C620.821 2479.18 624.225 2478.59 628.782 2480.56C628.783 2480.56 628.784 2480.56 628.785 2480.56L639.509 2485.3L639.517 2485.3L639.517 2485.3C641.133 2485.99 642.51 2486.49 643.628 2486.73C644.688 2486.96 645.788 2487.01 646.613 2486.45C647.531 2485.84 647.713 2484.77 647.628 2483.74C647.541 2482.7 647.161 2481.39 646.561 2479.83C646.561 2479.83 646.561 2479.83 646.56 2479.83L641.965 2467.75L641.962 2467.74C640.237 2463.3 640.742 2459.76 642.434 2457.23C644.145 2454.68 647.179 2453 650.814 2452.54L633.75 2504.61ZM633.75 2504.61C635.488 2504.91 636.915 2505.24 637.983 2505.65C638.997 2506.04 639.947 2506.6 640.332 2507.52C640.758 2508.54 640.325 2509.54 639.693 2510.35C639.048 2511.18 638.011 2512.07 636.653 2513.05C636.652 2513.05 636.652 2513.05 636.652 2513.05L626.191 2520.64L626.191 2520.64M633.75 2504.61L626.191 2520.64M626.191 2520.64L626.185 2520.64M626.191 2520.64L626.185 2520.64M626.185 2520.64C622.309 2523.41 620.781 2526.65 620.807 2529.69C620.834 2532.76 622.451 2535.83 625.264 2538.21L625.265 2538.21M626.185 2520.64L625.265 2538.21M625.265 2538.21C630.051 2542.27 637.872 2543.19 644.191 2537.71L651.285 2531.31L651.294 2531.3M625.265 2538.21L651.294 2531.3M651.294 2531.3L651.303 2531.29M651.294 2531.3L651.303 2531.29M651.303 2531.29C652.404 2530.35 653.389 2529.62 654.281 2529.17C655.167 2528.72 656.097 2528.49 657.004 2528.76C657.918 2529.03 658.555 2529.74 659.025 2530.6C659.495 2531.46 659.873 2532.6 660.215 2533.98C660.215 2533.98 660.216 2533.98 660.217 2533.99L662.641 2543.22C664.904 2551.17 671.868 2553.94 678.199 2553.11C681.282 2552.68 684.374 2551.41 686.242 2549.16C688.052 2546.98 688.866 2543.68 687.049 2538.78L687.047 2538.78M651.303 2531.29L687.047 2538.78M687.047 2538.78L682.693 2526.78C682.692 2526.78 682.691 2526.77 682.69 2526.77C682.202 2525.48 681.859 2524.37 681.76 2523.47C681.663 2522.61 681.766 2521.6 682.614 2520.99C683.362 2520.46 684.381 2520.49 685.349 2520.66C686.382 2520.84 687.687 2521.24 689.268 2521.81L689.276 2521.81M687.047 2538.78L689.276 2521.81M689.276 2521.81L689.285 2521.82M689.276 2521.81L689.285 2521.82M689.285 2521.82L699.954 2525.89L699.958 2525.89M689.285 2521.82L699.958 2525.89M699.958 2525.89C704.764 2527.75 708.425 2527.48 711.083 2526.08C713.759 2524.67 715.603 2522.03 716.568 2518.79C717.533 2515.56 717.438 2512.34 715.97 2509.69C714.512 2507.07 711.6 2504.83 706.558 2503.76L706.554 2503.76M699.958 2525.89L706.554 2503.76M706.554 2503.76L695.396 2501.32L695.385 2501.32M706.554 2503.76L695.385 2501.32M695.385 2501.32C693.746 2500.94 692.432 2500.57 691.467 2500.16C690.564 2499.78 689.69 2499.25 689.355 2498.39C688.977 2497.42 689.443 2496.52 689.998 2495.84C690.572 2495.14 691.47 2494.39 692.592 2493.57C692.593 2493.57 692.594 2493.56 692.595 2493.56L702.813 2485.91L702.822 2485.9M695.385 2501.32L702.822 2485.9M702.822 2485.9C707.05 2482.8 708.181 2479.6 707.862 2476.79C707.533 2473.89 705.631 2471.13 703.265 2469.07C698.398 2464.95 691.026 2463.4 684.828 2468.82C684.826 2468.82 684.824 2468.83 684.822 2468.83L677.742 2475.22C677.74 2475.22 677.739 2475.22 677.737 2475.22C676.698 2476.19 675.757 2476.93 674.893 2477.4C674.027 2477.86 673.106 2478.11 672.192 2477.83C671.285 2477.56 670.635 2476.86 670.138 2476C669.638 2475.13 669.213 2473.98 668.81 2472.59L668.807 2472.58M702.822 2485.9L668.807 2472.58M668.807 2472.58L668.804 2472.57M668.807 2472.58L668.804 2472.57M668.804 2472.57L666.376 2463.32M668.804 2472.57L666.376 2463.32M666.376 2463.32C664.089 2455.28 657.044 2451.76 650.815 2452.54L666.376 2463.32Z" stroke="#484848" stroke-width="2"/>
<path d="M1208.83 1385.91C1210.92 1378.89 1209.74 1368.8 1197.24 1366.68L1183.3 1364.37C1175.02 1362.98 1173.85 1361.02 1180.3 1356.37L1192.91 1347.23C1202.77 1340.19 1201.29 1330.25 1194.1 1324.16C1187.91 1318.91 1177.82 1317.75 1169.72 1324.77L1161.16 1332.5C1155.95 1336.98 1153.99 1336.4 1152.37 1329.88L1149.44 1318.73C1146.52 1308.41 1137.44 1304.87 1129.37 1305.93C1121.61 1307.02 1113.13 1312.38 1117.74 1324.81L1122.99 1339.28C1125.33 1345.47 1124.17 1346.44 1116.61 1343.71L1103.75 1338.8C1091.7 1334.13 1084.6 1339.9 1082.14 1348.13C1079.69 1356.36 1082.47 1365.08 1095.11 1367.77L1108.55 1370.7C1116.4 1372.51 1116.84 1373.95 1111.47 1377.91L1099.15 1387.14C1088.43 1395 1092.58 1404.12 1098.54 1409.31C1104.73 1414.56 1114.3 1416.64 1122.35 1409.59L1130.9 1401.87C1135.83 1397.3 1137.78 1397.88 1139.69 1404.49L1142.62 1415.64C1145.55 1425.95 1154.63 1430.51 1162.68 1429.51C1171.98 1428.34 1178.71 1420.85 1174.32 1409.56L1168.78 1395C1165.93 1387.58 1167.97 1386.63 1175.67 1389.94L1188.6 1395.65C1200.24 1400.68 1206.75 1392.88 1208.83 1385.91Z" fill="#7E7E7E"/>
<path d="M1195.13 1358.36L1195.13 1358.36C1193.04 1358.01 1191.34 1357.61 1190.07 1357.12C1188.86 1356.65 1187.78 1356.01 1187.35 1354.98C1186.88 1353.85 1187.35 1352.73 1188.1 1351.77C1188.86 1350.8 1190.09 1349.74 1191.72 1348.56C1191.72 1348.56 1191.72 1348.56 1191.72 1348.56L1204.33 1339.42L1204.33 1339.42L1204.33 1339.41C1209.05 1336.04 1210.93 1332.08 1210.9 1328.34C1210.87 1324.57 1208.88 1320.82 1205.46 1317.92L1205.45 1317.92C1199.62 1312.97 1190.08 1311.85 1182.38 1318.52L1173.83 1326.24L1173.82 1326.25L1173.81 1326.26C1172.49 1327.39 1171.32 1328.26 1170.26 1328.79C1169.22 1329.31 1168.15 1329.57 1167.13 1329.27C1166.1 1328.96 1165.37 1328.16 1164.82 1327.15C1164.26 1326.13 1163.82 1324.78 1163.4 1323.13C1163.4 1323.12 1163.4 1323.12 1163.4 1323.12L1160.48 1311.99C1157.72 1302.28 1149.21 1298.91 1141.51 1299.92C1137.76 1300.45 1133.98 1301.99 1131.68 1304.75C1129.45 1307.45 1128.47 1311.5 1130.68 1317.46L1130.68 1317.47L1135.93 1331.93C1135.93 1331.93 1135.93 1331.93 1135.93 1331.93C1136.52 1333.49 1136.92 1334.81 1137.04 1335.86C1137.15 1336.88 1137.02 1337.99 1136.09 1338.66C1135.27 1339.25 1134.11 1339.23 1132.95 1339.03C1131.73 1338.81 1130.17 1338.34 1128.27 1337.65L1128.26 1337.65L1128.25 1337.64L1115.39 1332.73L1115.39 1332.73C1109.56 1330.47 1105.08 1330.79 1101.81 1332.51C1098.53 1334.24 1096.27 1337.48 1095.1 1341.42C1093.93 1345.35 1094.04 1349.29 1095.84 1352.54C1097.63 1355.77 1101.2 1358.49 1107.32 1359.79L1107.32 1359.79L1120.77 1362.73L1120.77 1362.73L1120.78 1362.73C1122.75 1363.18 1124.32 1363.63 1125.46 1364.11C1126.55 1364.57 1127.53 1365.18 1127.9 1366.14C1128.31 1367.2 1127.81 1368.2 1127.16 1369C1126.48 1369.82 1125.42 1370.72 1124.07 1371.71C1124.07 1371.71 1124.07 1371.71 1124.06 1371.71L1111.75 1380.94L1111.75 1380.94L1111.74 1380.95C1106.6 1384.71 1105.19 1388.63 1105.58 1392.11C1105.99 1395.68 1108.32 1399.05 1111.19 1401.55C1117.11 1406.57 1126.12 1408.47 1133.68 1401.85C1133.68 1401.84 1133.69 1401.84 1133.69 1401.84L1142.22 1394.13C1142.23 1394.13 1142.23 1394.13 1142.23 1394.13C1143.48 1392.97 1144.6 1392.09 1145.61 1391.54C1146.63 1391 1147.69 1390.72 1148.71 1391.03C1149.74 1391.34 1150.48 1392.14 1151.07 1393.15C1151.66 1394.17 1152.17 1395.54 1152.65 1397.21L1152.65 1397.22L1152.66 1397.23L1155.58 1408.37C1158.37 1418.17 1166.96 1422.46 1174.56 1421.52C1178.98 1420.96 1182.7 1418.91 1184.8 1415.77C1186.89 1412.66 1187.49 1408.32 1185.39 1402.92L1185.39 1402.91L1179.85 1388.36C1179.85 1388.36 1179.85 1388.36 1179.85 1388.36C1179.13 1386.48 1178.68 1384.92 1178.58 1383.7C1178.48 1382.49 1178.7 1381.3 1179.71 1380.62C1180.63 1380 1181.88 1380.04 1183.15 1380.31C1184.48 1380.6 1186.12 1381.19 1188.07 1382.03L1188.07 1382.03L1201 1387.73C1201 1387.73 1201 1387.74 1201 1387.74C1206.55 1390.13 1210.72 1389.43 1213.75 1387.44C1216.84 1385.42 1218.88 1381.96 1219.87 1378.62C1220.87 1375.26 1221.07 1371.24 1219.59 1367.85C1218.15 1364.54 1215.04 1361.68 1209.08 1360.67C1209.08 1360.67 1209.08 1360.67 1209.07 1360.67L1195.13 1358.36Z" stroke="#484848" stroke-width="2"/>
<path d="M1399.61 99.709C1405.17 112.871 1400.37 123.287 1385.84 129.424L1325.5 154.917C1310.97 161.054 1300.18 157.291 1294.59 144.073L1293.57 141.644C1288.01 128.481 1292.81 118.065 1307.33 111.928L1367.68 86.4355C1382.2 80.2988 1393 84.0612 1398.58 97.2798L1399.61 99.709ZM1420.75 149.759C1426.31 162.921 1421.51 173.337 1406.98 179.474L1346.64 204.967C1332.11 211.103 1321.32 207.341 1315.74 194.122L1314.71 191.693C1309.15 178.531 1313.95 168.115 1328.48 161.978L1388.82 136.485C1403.35 130.349 1414.14 134.111 1419.72 147.33L1420.75 149.759Z" fill="#7E7E7E"/>
<path d="M1385.69 89.0981C1388.39 95.4945 1388.52 101.086 1386.35 105.781C1384.17 110.496 1379.58 114.493 1372.45 117.503L1312.11 142.996C1304.98 146.007 1298.92 146.525 1294.02 144.809C1289.15 143.101 1285.23 139.109 1282.51 132.684L1281.49 130.254C1278.79 123.858 1278.65 118.267 1280.83 113.571C1283.01 108.857 1287.6 104.86 1294.72 101.85L1355.07 76.3567C1362.19 73.3458 1368.26 72.8276 1373.15 74.5432C1378.03 76.2515 1381.95 80.2433 1384.66 86.6689L1385.69 89.0981ZM1406.83 139.148C1409.53 145.544 1409.66 151.136 1407.49 155.831C1405.31 160.545 1400.72 164.543 1393.59 167.553L1333.25 193.046C1326.12 196.056 1320.06 196.575 1315.17 194.859C1310.29 193.151 1306.37 189.159 1303.66 182.733L1302.63 180.304C1299.93 173.908 1299.8 168.316 1301.97 163.621C1304.15 158.907 1308.74 154.909 1315.87 151.899L1376.21 126.407C1383.34 123.396 1389.4 122.877 1394.3 124.593C1399.17 126.301 1403.09 130.293 1405.8 136.719L1406.83 139.148Z" stroke="#484848" stroke-width="2"/>
<path d="M1399.61 2914.71C1405.17 2927.87 1400.37 2938.29 1385.84 2944.42L1325.5 2969.92C1310.97 2976.05 1300.18 2972.29 1294.59 2959.07L1293.57 2956.64C1288.01 2943.48 1292.81 2933.06 1307.33 2926.93L1367.68 2901.44C1382.2 2895.3 1393 2899.06 1398.58 2912.28L1399.61 2914.71ZM1420.75 2964.76C1426.31 2977.92 1421.51 2988.34 1406.98 2994.47L1346.64 3019.97C1332.11 3026.1 1321.32 3022.34 1315.74 3009.12L1314.71 3006.69C1309.15 2993.53 1313.95 2983.11 1328.48 2976.98L1388.82 2951.49C1403.35 2945.35 1414.14 2949.11 1419.72 2962.33L1420.75 2964.76Z" fill="#7E7E7E"/>
<path d="M1385.69 2904.1C1388.39 2910.49 1388.52 2916.09 1386.35 2920.78C1384.17 2925.5 1379.58 2929.49 1372.45 2932.5L1312.11 2958C1304.98 2961.01 1298.92 2961.52 1294.02 2959.81C1289.15 2958.1 1285.23 2954.11 1282.51 2947.68L1281.49 2945.25C1278.79 2938.86 1278.65 2933.27 1280.83 2928.57C1283.01 2923.86 1287.6 2919.86 1294.72 2916.85L1355.07 2891.36C1362.19 2888.35 1368.26 2887.83 1373.15 2889.54C1378.03 2891.25 1381.95 2895.24 1384.66 2901.67L1385.69 2904.1ZM1406.83 2954.15C1409.53 2960.54 1409.66 2966.14 1407.49 2970.83C1405.31 2975.55 1400.72 2979.54 1393.59 2982.55L1333.25 3008.05C1326.12 3011.06 1320.06 3011.57 1315.17 3009.86C1310.29 3008.15 1306.37 3004.16 1303.66 2997.73L1302.63 2995.3C1299.93 2988.91 1299.8 2983.32 1301.97 2978.62C1304.15 2973.91 1308.74 2969.91 1315.87 2966.9L1376.21 2941.41C1383.34 2938.4 1389.4 2937.88 1394.3 2939.59C1399.17 2941.3 1403.09 2945.29 1405.8 2951.72L1406.83 2954.15Z" stroke="#484848" stroke-width="2"/>
<path d="M1460.61 1489.71C1466.17 1502.87 1461.37 1513.29 1446.84 1519.42L1386.5 1544.92C1371.97 1551.05 1361.18 1547.29 1355.59 1534.07L1354.57 1531.64C1349.01 1518.48 1353.81 1508.07 1368.33 1501.93L1428.68 1476.44C1443.2 1470.3 1454 1474.06 1459.58 1487.28L1460.61 1489.71ZM1481.75 1539.76C1487.31 1552.92 1482.51 1563.34 1467.98 1569.47L1407.64 1594.97C1393.11 1601.1 1382.32 1597.34 1376.74 1584.12L1375.71 1581.69C1370.15 1568.53 1374.95 1558.11 1389.48 1551.98L1449.82 1526.49C1464.35 1520.35 1475.14 1524.11 1480.72 1537.33L1481.75 1539.76Z" fill="#7E7E7E"/>
<path d="M1446.69 1479.1C1449.39 1485.49 1449.52 1491.09 1447.35 1495.78C1445.17 1500.5 1440.58 1504.49 1433.45 1507.5L1373.11 1533C1365.98 1536.01 1359.92 1536.52 1355.02 1534.81C1350.15 1533.1 1346.23 1529.11 1343.51 1522.68L1342.49 1520.25C1339.79 1513.86 1339.65 1508.27 1341.83 1503.57C1344.01 1498.86 1348.6 1494.86 1355.72 1491.85L1416.07 1466.36C1423.19 1463.35 1429.26 1462.83 1434.15 1464.54C1439.03 1466.25 1442.95 1470.24 1445.66 1476.67L1446.69 1479.1ZM1467.83 1529.15C1470.53 1535.54 1470.66 1541.14 1468.49 1545.83C1466.31 1550.55 1461.72 1554.54 1454.59 1557.55L1394.25 1583.05C1387.12 1586.06 1381.06 1586.57 1376.17 1584.86C1371.29 1583.15 1367.37 1579.16 1364.66 1572.73L1363.63 1570.3C1360.93 1563.91 1360.8 1558.32 1362.97 1553.62C1365.15 1548.91 1369.74 1544.91 1376.87 1541.9L1437.21 1516.41C1444.34 1513.4 1450.4 1512.88 1455.3 1514.59C1460.17 1516.3 1464.09 1520.29 1466.8 1526.72L1467.83 1529.15Z" stroke="#484848" stroke-width="2"/>
<path d="M24.7112 796.709C19.1508 809.871 23.9525 820.287 38.4787 826.424L98.8227 851.917C113.349 858.054 124.141 854.291 129.725 841.073L130.751 838.644C136.311 825.481 131.51 815.065 116.984 808.928L56.6396 783.436C42.1134 777.299 31.3217 781.061 25.7374 794.28L24.7112 796.709ZM3.56734 846.759C-1.99308 859.921 2.8086 870.337 17.3348 876.474L77.6788 901.967C92.205 908.103 102.997 904.341 108.581 891.122L109.607 888.693C115.167 875.531 110.366 865.115 95.8396 858.978L35.4956 833.485C20.9694 827.349 10.1778 831.111 4.59349 844.33L3.56734 846.759Z" fill="#7E7E7E"/>
<path d="M38.6324 786.098C35.9302 792.494 35.7975 798.086 37.97 802.781C40.1515 807.496 44.7426 811.493 51.8678 814.503L112.212 839.996C119.339 843.007 125.399 843.525 130.296 841.809C135.173 840.101 139.089 836.109 141.804 829.684L142.83 827.254C145.532 820.858 145.665 815.267 143.492 810.571C141.311 805.857 136.72 801.86 129.594 798.849L69.2504 773.357C62.1234 770.346 56.063 769.828 51.1659 771.543C46.2896 773.251 42.3732 777.243 39.6586 783.669L38.6324 786.098ZM17.4885 836.148C14.7863 842.544 14.6536 848.136 16.8261 852.831C19.0076 857.545 23.5987 861.543 30.724 864.553L91.068 890.045C98.195 893.056 104.255 893.575 109.152 891.859C114.029 890.151 117.945 886.159 120.66 879.733L121.686 877.304C124.388 870.908 124.521 865.316 122.348 860.621C120.167 855.907 115.576 851.909 108.45 848.899L48.1065 823.407C40.9794 820.396 34.919 819.877 30.022 821.593C25.1457 823.301 21.2292 827.293 18.5147 833.719L17.4885 836.148Z" stroke="#484848" stroke-width="2"/>
<path d="M24.7112 2219.71C19.1508 2232.87 23.9525 2243.29 38.4787 2249.42L98.8227 2274.92C113.349 2281.05 124.141 2277.29 129.725 2264.07L130.751 2261.64C136.311 2248.48 131.51 2238.06 116.984 2231.93L56.6396 2206.44C42.1134 2200.3 31.3217 2204.06 25.7374 2217.28L24.7112 2219.71ZM3.56734 2269.76C-1.99308 2282.92 2.8086 2293.34 17.3348 2299.47L77.6788 2324.97C92.205 2331.1 102.997 2327.34 108.581 2314.12L109.607 2311.69C115.167 2298.53 110.366 2288.11 95.8396 2281.98L35.4956 2256.49C20.9694 2250.35 10.1778 2254.11 4.59349 2267.33L3.56734 2269.76Z" fill="#7E7E7E"/>
<path d="M38.6324 2209.1C35.9302 2215.49 35.7975 2221.09 37.97 2225.78C40.1515 2230.5 44.7426 2234.49 51.8678 2237.5L112.212 2263C119.339 2266.01 125.399 2266.52 130.296 2264.81C135.173 2263.1 139.089 2259.11 141.804 2252.68L142.83 2250.25C145.532 2243.86 145.665 2238.27 143.492 2233.57C141.311 2228.86 136.72 2224.86 129.594 2221.85L69.2504 2196.36C62.1234 2193.35 56.063 2192.83 51.1659 2194.54C46.2896 2196.25 42.3732 2200.24 39.6586 2206.67L38.6324 2209.1ZM17.4885 2259.15C14.7863 2265.54 14.6536 2271.14 16.8261 2275.83C19.0076 2280.55 23.5987 2284.54 30.724 2287.55L91.068 2313.05C98.195 2316.06 104.255 2316.57 109.152 2314.86C114.029 2313.15 117.945 2309.16 120.66 2302.73L121.686 2300.3C124.388 2293.91 124.521 2288.32 122.348 2283.62C120.167 2278.91 115.576 2274.91 108.45 2271.9L48.1065 2246.41C40.9794 2243.4 34.919 2242.88 30.022 2244.59C25.1457 2246.3 21.2292 2250.29 18.5147 2256.72L17.4885 2259.15Z" stroke="#484848" stroke-width="2"/>
<path d="M1408.28 535.58C1411.38 550.11 1404.51 559.724 1388.69 563.096L1386.74 563.512C1384.07 564.08 1382.68 565.982 1383.21 568.463L1384.12 572.716C1387.22 587.246 1380.36 596.919 1364.55 600.291L1359.93 601.275C1344.12 604.647 1333.91 598.61 1330.81 584.08L1329.91 579.827C1329.38 577.346 1327.33 576.177 1324.67 576.745L1322.95 577.111C1307.14 580.483 1296.93 574.445 1293.85 559.974L1293.28 557.316C1290.18 542.787 1297.05 533.172 1312.87 529.801L1313.58 529.649C1316.24 529.081 1317.62 527.12 1317.1 524.698L1316.2 520.446C1313.1 505.916 1319.97 496.301 1335.78 492.93L1341.11 491.793C1356.92 488.422 1367.11 494.4 1370.21 508.93L1371.12 513.183C1371.65 515.663 1373.69 516.833 1376.36 516.265L1378.55 515.798C1394.36 512.426 1404.55 518.404 1407.65 532.934L1408.22 535.592L1408.28 535.58Z" fill="#5DB6E7"/>
<path d="M1394.24 522.801L1394.45 523.779L1394.49 523.769C1395.71 530.392 1394.72 535.792 1391.76 539.942C1388.65 544.311 1383.25 547.463 1375.49 549.118L1373.53 549.534C1372.01 549.858 1370.76 550.584 1369.97 551.687C1369.17 552.803 1368.92 554.194 1369.24 555.672L1370.14 559.924C1371.65 566.996 1370.71 572.741 1367.61 577.109C1364.5 581.493 1359.1 584.659 1351.34 586.313L1346.72 587.297C1338.96 588.951 1332.74 588.264 1328.11 585.53C1323.5 582.805 1320.3 577.943 1318.79 570.871L1317.89 566.619C1317.57 565.141 1316.78 563.971 1315.59 563.279C1314.42 562.594 1312.98 562.444 1311.46 562.767L1309.74 563.133C1301.99 564.787 1295.76 564.1 1291.13 561.372C1286.52 558.654 1283.33 553.807 1281.83 546.766L1281.26 544.108C1279.75 537.036 1280.7 531.307 1283.8 526.954C1286.91 522.585 1292.31 519.433 1300.07 517.779L1300.78 517.627C1302.31 517.302 1303.56 516.555 1304.35 515.447C1305.14 514.33 1305.39 512.943 1305.08 511.49L1304.17 507.237C1302.67 500.165 1303.61 494.437 1306.71 490.083C1309.82 485.714 1315.23 482.562 1322.99 480.908L1328.32 479.771C1336.08 478.117 1342.3 478.791 1346.92 481.511C1351.53 484.221 1354.73 489.067 1356.23 496.139L1357.14 500.391C1357.46 501.869 1358.25 503.039 1359.43 503.731C1360.61 504.415 1362.05 504.566 1363.57 504.243L1365.76 503.776C1373.52 502.121 1379.74 502.795 1384.36 505.515C1388.97 508.225 1392.17 513.071 1393.67 520.143L1394.24 522.801Z" stroke="#055D8D" stroke-width="2"/>
<path d="M725.366 491.984C718.763 502.773 708.887 504.687 697.145 497.5L695.693 496.612C693.714 495.401 691.741 495.761 690.614 497.603L688.681 500.76C682.078 511.549 672.176 513.507 660.433 506.32L657.003 504.221C645.26 497.035 642.497 487.326 649.1 476.537L651.033 473.379C652.16 471.537 651.582 469.616 649.603 468.405L648.328 467.624C636.585 460.438 633.822 450.729 640.398 439.984L641.606 438.01C648.209 427.221 658.085 425.308 669.827 432.494L670.355 432.817C672.334 434.029 674.334 433.625 675.435 431.827L677.367 428.669C683.97 417.88 693.846 415.967 705.589 423.153L709.547 425.575C721.289 432.762 724.079 442.427 717.476 453.216L715.544 456.373C714.416 458.215 714.994 460.136 716.973 461.347L718.6 462.343C730.343 469.53 733.133 479.195 726.53 489.984L725.322 491.957L725.366 491.984Z" fill="#5DB6E7"/>
<path d="M724.06 475.787L723.538 476.64L723.568 476.659C720.472 481.36 716.753 484.04 712.582 484.854C708.148 485.718 703 484.514 697.257 480.999L695.806 480.111C694.656 479.408 693.417 479.106 692.237 479.332C691.042 479.561 690.042 480.305 689.351 481.433L687.419 484.591C684.22 489.817 680.305 492.781 675.882 493.652C671.441 494.527 666.286 493.333 660.546 489.819L657.115 487.72C651.374 484.207 647.966 480.16 646.724 475.808C645.487 471.473 646.345 466.637 649.543 461.411L651.476 458.253C652.166 457.125 652.373 455.896 652.033 454.728C651.698 453.574 650.866 452.608 649.716 451.904L648.44 451.124C642.699 447.61 639.29 443.564 638.045 439.216C636.806 434.886 637.657 430.062 640.842 424.858L642.05 422.885C645.248 417.658 649.156 414.706 653.571 413.845C658.005 412.981 663.153 414.185 668.896 417.699L669.424 418.022C670.582 418.731 671.83 419.016 673.008 418.784C674.197 418.55 675.199 417.811 675.878 416.701L677.811 413.543C681.009 408.317 684.918 405.365 689.332 404.504C693.767 403.639 698.915 404.844 704.657 408.358L708.615 410.78C714.358 414.295 717.773 418.331 719.02 422.673C720.263 426.996 719.412 431.82 716.214 437.046L714.281 440.204C713.591 441.331 713.384 442.561 713.724 443.729C714.06 444.882 714.892 445.849 716.042 446.552L717.669 447.548C723.411 451.063 726.826 455.099 728.074 459.441C729.316 463.764 728.466 468.588 725.267 473.814L724.06 475.787Z" stroke="#055D8D" stroke-width="2"/>
<path d="M1408.28 1958.58C1411.38 1973.11 1404.51 1982.72 1388.69 1986.1L1386.74 1986.51C1384.07 1987.08 1382.68 1988.98 1383.21 1991.46L1384.12 1995.72C1387.22 2010.25 1380.36 2019.92 1364.55 2023.29L1359.93 2024.28C1344.12 2027.65 1333.91 2021.61 1330.81 2007.08L1329.91 2002.83C1329.38 2000.35 1327.33 1999.18 1324.67 1999.75L1322.95 2000.11C1307.14 2003.48 1296.93 1997.45 1293.85 1982.97L1293.28 1980.32C1290.18 1965.79 1297.05 1956.17 1312.87 1952.8L1313.58 1952.65C1316.24 1952.08 1317.62 1950.12 1317.1 1947.7L1316.2 1943.45C1313.1 1928.92 1319.97 1919.3 1335.78 1915.93L1341.11 1914.79C1356.92 1911.42 1367.11 1917.4 1370.21 1931.93L1371.12 1936.18C1371.65 1938.66 1373.69 1939.83 1376.36 1939.26L1378.55 1938.8C1394.36 1935.43 1404.55 1941.4 1407.65 1955.93L1408.22 1958.59L1408.28 1958.58Z" fill="#5DB6E7"/>
<path d="M1394.24 1945.8L1394.45 1946.78L1394.49 1946.77C1395.71 1953.39 1394.72 1958.79 1391.76 1962.94C1388.65 1967.31 1383.25 1970.46 1375.49 1972.12L1373.53 1972.53C1372.01 1972.86 1370.76 1973.58 1369.97 1974.69C1369.17 1975.8 1368.92 1977.19 1369.24 1978.67L1370.14 1982.92C1371.65 1990 1370.71 1995.74 1367.61 2000.11C1364.5 2004.49 1359.1 2007.66 1351.34 2009.31L1346.72 2010.3C1338.96 2011.95 1332.74 2011.26 1328.11 2008.53C1323.5 2005.8 1320.3 2000.94 1318.79 1993.87L1317.89 1989.62C1317.57 1988.14 1316.78 1986.97 1315.59 1986.28C1314.42 1985.59 1312.98 1985.44 1311.46 1985.77L1309.74 1986.13C1301.99 1987.79 1295.76 1987.1 1291.13 1984.37C1286.52 1981.65 1283.33 1976.81 1281.83 1969.77L1281.26 1967.11C1279.75 1960.04 1280.7 1954.31 1283.8 1949.95C1286.91 1945.59 1292.31 1942.43 1300.07 1940.78L1300.78 1940.63C1302.31 1940.3 1303.56 1939.56 1304.35 1938.45C1305.14 1937.33 1305.39 1935.94 1305.08 1934.49L1304.17 1930.24C1302.67 1923.17 1303.61 1917.44 1306.71 1913.08C1309.82 1908.71 1315.23 1905.56 1322.99 1903.91L1328.32 1902.77C1336.08 1901.12 1342.3 1901.79 1346.92 1904.51C1351.53 1907.22 1354.73 1912.07 1356.23 1919.14L1357.14 1923.39C1357.46 1924.87 1358.25 1926.04 1359.43 1926.73C1360.61 1927.42 1362.05 1927.57 1363.57 1927.24L1365.76 1926.78C1373.52 1925.12 1379.74 1925.8 1384.36 1928.51C1388.97 1931.22 1392.17 1936.07 1393.67 1943.14L1394.24 1945.8Z" stroke="#055D8D" stroke-width="2"/>
<path d="M-20.7051 1252.58C-23.8027 1267.11 -16.936 1276.72 -1.12212 1280.1L0.832405 1280.51C3.49767 1281.08 4.8879 1282.98 4.35904 1285.46L3.45243 1289.72C0.354843 1304.25 7.20898 1313.92 23.0229 1317.29L27.6427 1318.28C43.4565 1321.65 53.6601 1315.61 56.7577 1301.08L57.6643 1296.83C58.1931 1294.35 60.2381 1293.18 62.9034 1293.75L64.621 1294.11C80.4349 1297.48 90.6384 1291.45 93.7234 1276.97L94.2901 1274.32C97.3877 1259.79 90.5209 1250.17 74.7071 1246.8L73.9963 1246.65C71.3311 1246.08 69.9534 1244.12 70.4697 1241.7L71.3763 1237.45C74.4739 1222.92 67.6072 1213.3 51.7933 1209.93L46.4627 1208.79C30.6489 1205.42 20.4579 1211.4 17.3603 1225.93L16.4537 1230.18C15.9249 1232.66 13.8799 1233.83 11.2146 1233.26L9.02316 1232.8C-6.79073 1229.43 -16.9817 1235.4 -20.0793 1249.93L-20.6459 1252.59L-20.7051 1252.58Z" fill="#5DB6E7"/>
<path d="M-6.66789 1239.8L-6.8764 1240.78L-6.92214 1240.77C-8.1421 1247.39 -7.14723 1252.79 -4.19095 1256.94C-1.07862 1261.31 4.32713 1264.46 12.0864 1266.12L14.0409 1266.53C15.5574 1266.86 16.8143 1267.58 17.606 1268.69C18.4062 1269.8 18.652 1271.19 18.3371 1272.67L17.4305 1276.92C15.9228 1284 16.8624 1289.74 19.9615 1294.11C23.0712 1298.49 28.4739 1301.66 36.2314 1303.31L40.8512 1304.3C48.6086 1305.95 54.8328 1305.26 59.4601 1302.53C64.0712 1299.8 67.272 1294.94 68.7796 1287.87L69.6863 1283.62C70.0012 1282.14 70.7931 1280.97 71.9786 1280.28C73.1515 1279.59 74.5954 1279.44 76.1119 1279.77L77.8295 1280.13C85.587 1281.79 91.8117 1281.1 96.4377 1278.37C101.047 1275.65 104.244 1270.81 105.745 1263.77L106.312 1261.11C107.82 1254.04 106.877 1248.31 103.776 1243.95C100.664 1239.59 95.2578 1236.43 87.4986 1234.78L86.7878 1234.63C85.2618 1234.3 84.0106 1233.56 83.2244 1232.45C82.4319 1231.33 82.1819 1229.94 82.4917 1228.49L83.3983 1224.24C84.9059 1217.17 83.963 1211.44 80.8621 1207.08C77.7498 1202.71 72.344 1199.56 64.5848 1197.91L59.2542 1196.77C51.495 1195.12 45.2736 1195.79 40.65 1198.51C36.0432 1201.22 32.846 1206.07 31.3383 1213.14L30.4317 1217.39C30.1168 1218.87 29.3249 1220.04 28.1394 1220.73C26.9665 1221.42 25.5226 1221.57 24.0061 1221.24L21.8147 1220.78C14.0554 1219.12 7.83402 1219.79 3.21037 1222.51C-1.39634 1225.22 -4.5936 1230.07 -6.10125 1237.14L-6.66789 1239.8Z" stroke="#055D8D" stroke-width="2"/>
<path d="M-20.7051 2675.58C-23.8027 2690.11 -16.936 2699.72 -1.12212 2703.1L0.832405 2703.51C3.49767 2704.08 4.8879 2705.98 4.35904 2708.46L3.45243 2712.72C0.354843 2727.25 7.20898 2736.92 23.0229 2740.29L27.6427 2741.28C43.4565 2744.65 53.6601 2738.61 56.7577 2724.08L57.6643 2719.83C58.1931 2717.35 60.2381 2716.18 62.9034 2716.75L64.621 2717.11C80.4349 2720.48 90.6384 2714.45 93.7234 2699.97L94.2901 2697.32C97.3877 2682.79 90.5209 2673.17 74.7071 2669.8L73.9963 2669.65C71.3311 2669.08 69.9534 2667.12 70.4697 2664.7L71.3763 2660.45C74.4739 2645.92 67.6072 2636.3 51.7933 2632.93L46.4627 2631.79C30.6489 2628.42 20.4579 2634.4 17.3603 2648.93L16.4537 2653.18C15.9249 2655.66 13.8799 2656.83 11.2146 2656.26L9.02316 2655.8C-6.79073 2652.43 -16.9817 2658.4 -20.0793 2672.93L-20.6459 2675.59L-20.7051 2675.58Z" fill="#5DB6E7"/>
<path d="M-6.66789 2662.8L-6.8764 2663.78L-6.92214 2663.77C-8.1421 2670.39 -7.14723 2675.79 -4.19095 2679.94C-1.07862 2684.31 4.32713 2687.46 12.0864 2689.12L14.0409 2689.53C15.5574 2689.86 16.8143 2690.58 17.606 2691.69C18.4062 2692.8 18.652 2694.19 18.3371 2695.67L17.4305 2699.92C15.9228 2707 16.8624 2712.74 19.9615 2717.11C23.0712 2721.49 28.4739 2724.66 36.2314 2726.31L40.8512 2727.3C48.6086 2728.95 54.8328 2728.26 59.4601 2725.53C64.0712 2722.8 67.272 2717.94 68.7796 2710.87L69.6863 2706.62C70.0012 2705.14 70.7931 2703.97 71.9786 2703.28C73.1515 2702.59 74.5954 2702.44 76.1119 2702.77L77.8295 2703.13C85.587 2704.79 91.8117 2704.1 96.4377 2701.37C101.047 2698.65 104.244 2693.81 105.745 2686.77L106.312 2684.11C107.82 2677.04 106.877 2671.31 103.776 2666.95C100.664 2662.59 95.2578 2659.43 87.4986 2657.78L86.7878 2657.63C85.2618 2657.3 84.0106 2656.56 83.2244 2655.45C82.4319 2654.33 82.1819 2652.94 82.4917 2651.49L83.3983 2647.24C84.9059 2640.17 83.963 2634.44 80.8621 2630.08C77.7498 2625.71 72.344 2622.56 64.5848 2620.91L59.2542 2619.77C51.495 2618.12 45.2736 2618.79 40.65 2621.51C36.0432 2624.22 32.846 2629.07 31.3383 2636.14L30.4317 2640.39C30.1168 2641.87 29.3249 2643.04 28.1394 2643.73C26.9665 2644.42 25.5226 2644.57 24.0061 2644.24L21.8147 2643.78C14.0554 2642.12 7.83402 2642.8 3.21037 2645.51C-1.39634 2648.22 -4.5936 2653.07 -6.10125 2660.14L-6.66789 2662.8Z" stroke="#055D8D" stroke-width="2"/>
<path d="M168.511 260.629C184.126 256.445 198.415 270.734 194.231 286.349L177.42 349.087C173.236 364.702 153.717 369.932 142.286 358.501L96.3585 312.574C84.9276 301.143 90.1576 281.624 105.773 277.44L168.511 260.629Z" fill="#D95D5D"/>
<path d="M153.77 258.595C168.642 254.61 182.25 268.218 178.265 283.09L161.454 345.829C157.469 360.7 138.88 365.681 127.994 354.794L82.0656 308.866C71.179 297.98 76.16 279.391 91.0314 275.406L153.77 258.595Z" stroke="#D34422" stroke-width="2"/>
<path d="M168.511 3075.63C184.126 3071.45 198.415 3085.73 194.231 3101.35L177.42 3164.09C173.236 3179.7 153.717 3184.93 142.286 3173.5L96.3585 3127.57C84.9276 3116.14 90.1576 3096.62 105.773 3092.44L168.511 3075.63Z" fill="#D95D5D"/>
<path d="M153.77 3073.59C168.642 3069.61 182.25 3083.22 178.265 3098.09L161.454 3160.83C157.469 3175.7 138.88 3180.68 127.994 3169.79L82.0656 3123.87C71.179 3112.98 76.16 3094.39 91.0314 3090.41L153.77 3073.59Z" stroke="#D34422" stroke-width="2"/>
<path d="M168.511 1683.63C184.126 1679.45 198.415 1693.73 194.231 1709.35L177.42 1772.09C173.236 1787.7 153.717 1792.93 142.286 1781.5L96.3585 1735.57C84.9276 1724.14 90.1576 1704.62 105.773 1700.44L168.511 1683.63Z" fill="#D95D5D"/>
<path d="M153.77 1681.59C168.642 1677.61 182.25 1691.22 178.265 1706.09L161.454 1768.83C157.469 1783.7 138.88 1788.68 127.994 1777.79L82.0656 1731.87C71.179 1720.98 76.16 1702.39 91.0314 1698.41L153.77 1681.59Z" stroke="#D34422" stroke-width="2"/>
<path d="M1179.35 1009.63C1163.73 1005.45 1149.45 1019.73 1153.63 1035.35L1170.44 1098.09C1174.62 1113.7 1194.14 1118.93 1205.57 1107.5L1251.5 1061.57C1262.93 1050.14 1257.7 1030.62 1242.09 1026.44L1179.35 1009.63Z" fill="#D95D5D"/>
<path d="M1194.09 1007.59C1179.22 1003.61 1165.61 1017.22 1169.6 1032.09L1186.41 1094.83C1190.39 1109.7 1208.98 1114.68 1219.87 1103.79L1265.79 1057.87C1276.68 1046.98 1271.7 1028.39 1256.83 1024.41L1194.09 1007.59Z" stroke="#D34422" stroke-width="2"/>
<path d="M1271.35 2407.63C1255.73 2403.45 1241.45 2417.73 1245.63 2433.35L1262.44 2496.09C1266.62 2511.7 1286.14 2516.93 1297.57 2505.5L1343.5 2459.57C1354.93 2448.14 1349.7 2428.62 1334.09 2424.44L1271.35 2407.63Z" fill="#D95D5D"/>
<path d="M1286.09 2405.59C1271.22 2401.61 1257.61 2415.22 1261.6 2430.09L1278.41 2492.83C1282.39 2507.7 1300.98 2512.68 1311.87 2501.79L1357.79 2455.87C1368.68 2444.98 1363.7 2426.39 1348.83 2422.41L1286.09 2405.59Z" stroke="#D34422" stroke-width="2"/>
<path d="M1264.63 331.349C1260.45 315.734 1274.73 301.445 1290.35 305.629L1353.09 322.44C1368.7 326.624 1373.93 346.143 1362.5 357.573L1316.57 403.501C1305.14 414.932 1285.62 409.702 1281.44 394.087L1264.63 331.349Z" fill="#D95D5D"/>
<path d="M1259.59 317.09C1255.61 302.218 1269.22 288.61 1284.09 292.595L1346.83 309.406C1361.7 313.39 1366.68 331.98 1355.79 342.866L1309.87 388.794C1298.98 399.681 1280.39 394.7 1276.41 379.829L1259.59 317.09Z" stroke="#D34422" stroke-width="2"/>
<path d="M1264.63 3146.35C1260.45 3130.73 1274.73 3116.44 1290.35 3120.63L1353.09 3137.44C1368.7 3141.62 1373.93 3161.14 1362.5 3172.57L1316.57 3218.5C1305.14 3229.93 1285.62 3224.7 1281.44 3209.09L1264.63 3146.35Z" fill="#D95D5D"/>
<path d="M1259.59 3132.09C1255.61 3117.22 1269.22 3103.61 1284.09 3107.59L1346.83 3124.41C1361.7 3128.39 1366.68 3146.98 1355.79 3157.87L1309.87 3203.79C1298.98 3214.68 1280.39 3209.7 1276.41 3194.83L1259.59 3132.09Z" stroke="#D34422" stroke-width="2"/>
<path d="M1264.63 1754.35C1260.45 1738.73 1274.73 1724.45 1290.35 1728.63L1353.09 1745.44C1368.7 1749.62 1373.93 1769.14 1362.5 1780.57L1316.57 1826.5C1305.14 1837.93 1285.62 1832.7 1281.44 1817.09L1264.63 1754.35Z" fill="#D95D5D"/>
<path d="M1259.59 1740.09C1255.61 1725.22 1269.22 1711.61 1284.09 1715.59L1346.83 1732.41C1361.7 1736.39 1366.68 1754.98 1355.79 1765.87L1309.87 1811.79C1298.98 1822.68 1280.39 1817.7 1276.41 1802.83L1259.59 1740.09Z" stroke="#D34422" stroke-width="2"/>
<path d="M183.231 1039.35C187.415 1023.73 173.126 1009.45 157.511 1013.63L94.7726 1030.44C79.1576 1034.62 73.9276 1054.14 85.3585 1065.57L131.286 1111.5C142.717 1122.93 162.236 1117.7 166.42 1102.09L183.231 1039.35Z" fill="#D95D5D"/>
<path d="M188.265 1025.09C192.25 1010.22 178.642 996.61 163.77 1000.59L101.031 1017.41C86.16 1021.39 81.179 1039.98 92.0657 1050.87L137.994 1096.79C148.88 1107.68 167.469 1102.7 171.454 1087.83L188.265 1025.09Z" stroke="#D34422" stroke-width="2"/>
<path d="M183.231 2462.35C187.415 2446.73 173.126 2432.44 157.511 2436.63L94.7726 2453.44C79.1576 2457.62 73.9276 2477.14 85.3585 2488.57L131.286 2534.5C142.717 2545.93 162.236 2540.7 166.42 2525.09L183.231 2462.35Z" fill="#D95D5D"/>
<path d="M188.265 2448.09C192.25 2433.22 178.642 2419.61 163.77 2423.59L101.031 2440.41C86.16 2444.39 81.179 2462.98 92.0657 2473.87L137.994 2519.79C148.88 2530.68 167.469 2525.7 171.454 2510.83L188.265 2448.09Z" stroke="#D34422" stroke-width="2"/>
<circle cx="902.5" cy="66.5" r="46.5" fill="#D95D5D"/>
<circle cx="895.5" cy="55.5" r="45.5" stroke="#D34422" stroke-width="2"/>
<circle cx="902.5" cy="2881.5" r="46.5" fill="#D95D5D"/>
<circle cx="895.5" cy="2870.5" r="45.5" stroke="#D34422" stroke-width="2"/>
<circle cx="847.5" cy="1568.5" r="46.5" fill="#D95D5D"/>
<circle cx="840.5" cy="1557.5" r="45.5" stroke="#D34422" stroke-width="2"/>
<circle cx="43.71" cy="43.71" r="43.71" transform="matrix(-1 0 0 1 655.42 800.34)" fill="#D95D5D"/>
<circle cx="43.71" cy="43.71" r="42.71" transform="matrix(-1 0 0 1 662 790)" stroke="#D34422" stroke-width="2"/>
<circle cx="43.71" cy="43.71" r="43.71" transform="matrix(-1 0 0 1 686.42 2158.34)" fill="#D95D5D"/>
<circle cx="43.71" cy="43.71" r="42.71" transform="matrix(-1 0 0 1 693 2148)" stroke="#D34422" stroke-width="2"/>
<circle cx="1089.5" cy="485.5" r="28.5" fill="#7E7E7E"/>
<circle cx="1080.5" cy="474.5" r="27.5" stroke="#484848" stroke-width="2"/>
<circle cx="382.819" cy="390.104" r="28.5" transform="rotate(40.7517 382.819 390.104)" fill="#7E7E7E"/>
<circle cx="383.181" cy="375.896" r="27.5" transform="rotate(40.7517 383.181 375.896)" stroke="#484848" stroke-width="2"/>
<circle cx="1131.5" cy="1951.5" r="28.5" fill="#7E7E7E"/>
<circle cx="1122.5" cy="1940.5" r="27.5" stroke="#484848" stroke-width="2"/>
<circle cx="424.5" cy="958.5" r="28.5" fill="#7E7E7E"/>
<circle cx="415.5" cy="947.5" r="27.5" stroke="#484848" stroke-width="2"/>
<circle cx="428.5" cy="2319.5" r="28.5" fill="#7E7E7E"/>
<circle cx="419.5" cy="2308.5" r="27.5" stroke="#484848" stroke-width="2"/>
<circle cx="28.5" cy="28.5" r="28.5" transform="matrix(-1 0 0 1 321.318 1200)" fill="#7E7E7E"/>
<circle cx="28.5" cy="28.5" r="27.5" transform="matrix(-1 0 0 1 330.318 1189)" stroke="#484848" stroke-width="2"/>
<circle cx="28.5" cy="28.5" r="28.5" transform="matrix(-1 0 0 1 321.318 2623)" fill="#7E7E7E"/>
<circle cx="28.5" cy="28.5" r="27.5" transform="matrix(-1 0 0 1 330.318 2612)" stroke="#484848" stroke-width="2"/>
<rect x="570.647" y="105.611" width="103.181" height="103.181" rx="21" transform="rotate(22.0695 570.647 105.611)" fill="#7E7E7E"/>
<rect x="564.319" y="94.3025" width="101.181" height="101.181" rx="20" transform="rotate(22.0695 564.319 94.3025)" stroke="#484848" stroke-width="2"/>
<rect x="559.816" y="2928" width="90" height="90" rx="21" transform="rotate(22.0695 559.816 2928)" fill="#7E7E7E"/>
<rect x="554.367" y="2918.3" width="88" height="88" rx="20" transform="rotate(22.0695 554.367 2918.3)" stroke="#484848" stroke-width="2"/>
<rect x="499.047" y="1646.21" width="108.094" height="108.094" rx="21" transform="rotate(22.0695 499.047 1646.21)" fill="#7E7E7E"/>
<rect x="492.392" y="1634.3" width="106.094" height="106.094" rx="20" transform="rotate(22.0695 492.392 1634.3)" stroke="#484848" stroke-width="2"/>
<rect width="111.604" height="111.604" rx="21" transform="matrix(-0.926729 0.375731 0.375731 0.926729 961.427 798.64)" fill="#7E7E7E"/>
<rect x="-0.550998" y="1.30246" width="109.604" height="109.604" rx="20" transform="matrix(-0.926729 0.375731 0.375731 0.926729 967.316 785.302)" stroke="#484848" stroke-width="2"/>
<rect width="73.856" height="73.856" rx="21" transform="matrix(-0.926729 0.375731 0.375731 0.926729 943.444 2184.03)" fill="#7E7E7E"/>
<rect x="-0.550998" y="1.30246" width="71.856" height="71.856" rx="20" transform="matrix(-0.926729 0.375731 0.375731 0.926729 946.817 2175.3)" stroke="#484848" stroke-width="2"/>
<rect x="393.138" y="587.954" width="84.0304" height="84.0304" rx="21" transform="rotate(-33.5318 393.138 587.954)" fill="#D95D5D"/>
<rect x="382.386" y="581.7" width="82.0304" height="82.0304" rx="20" transform="rotate(-33.5318 382.386 581.7)" stroke="#D34422" stroke-width="2"/>
<rect x="399.138" y="1992.95" width="84.0304" height="84.0304" rx="21" transform="rotate(-33.5318 399.138 1992.95)" fill="#D95D5D"/>
<rect x="388.386" y="1986.7" width="82.0304" height="82.0304" rx="20" transform="rotate(-33.5318 388.386 1986.7)" stroke="#D34422" stroke-width="2"/>
<rect width="90" height="90" rx="21" transform="matrix(-0.833579 -0.5524 -0.5524 0.833579 1011.32 1218.72)" fill="#D95D5D"/>
<rect x="-1.38598" y="0.28118" width="88" height="88" rx="20" transform="matrix(-0.833579 -0.5524 -0.5524 0.833579 1021.93 1211)" stroke="#D34422" stroke-width="2"/>
<rect width="90" height="90" rx="21" transform="matrix(-0.833579 -0.5524 -0.5524 0.833579 1080.74 2638.72)" fill="#D95D5D"/>
<rect x="-1.38598" y="0.28118" width="88" height="88" rx="20" transform="matrix(-0.833579 -0.5524 -0.5524 0.833579 1091.35 2631)" stroke="#D34422" stroke-width="2"/>
<path d="M114.578 504.806C110.28 509.242 105.679 514.377 95.9008 518.591L94.2788 519.29C80.7464 525.122 76.1713 523.942 73.2037 517.055C69.4286 508.295 71.8087 504.892 85.019 489.898L89.4809 484.822C90.8939 483.128 91.3074 482.175 90.8378 481.086C90.1617 479.517 88.5184 479.656 87.0818 480.275L66.3197 489.223C54.5947 494.276 45.9442 491.544 41.6995 481.694C37.4548 471.844 41.4098 463.68 53.1348 458.627L75.1481 449.141C92.4807 441.671 117.502 437.762 127.606 461.209C135.626 479.819 130.235 488.602 114.532 504.826L114.578 504.806ZM110.483 555.871C98.7577 560.924 90.032 558.018 85.6559 547.863C81.2797 537.708 85.1596 529.37 96.8846 524.317L98.5066 523.618C110.232 518.565 118.882 521.297 123.333 531.626C127.785 541.955 123.83 550.119 112.105 555.172L110.483 555.871Z" fill="#5DB6E7"/>
<path d="M101.706 502.166L101.717 502.182C101.483 502.425 101.247 502.669 101.01 502.914C96.9267 507.15 92.4268 511.817 83.398 515.708L81.776 516.407C75.0076 519.324 70.7104 520.373 67.8044 519.986C66.3986 519.798 65.3205 519.274 64.4212 518.434C63.5031 517.576 62.7281 516.349 62.015 514.694C61.092 512.553 60.5827 510.821 60.4909 509.203C60.4002 507.606 60.7129 506.055 61.5417 504.271C63.2408 500.613 67.0169 496.137 73.6623 488.594L73.663 488.593L78.1249 483.518L78.1335 483.508L78.1418 483.498C78.8579 482.639 79.4094 481.869 79.6938 481.115C80.0048 480.291 79.9885 479.512 79.6491 478.725C79.1622 477.595 78.2665 477.027 77.2612 476.902C76.3347 476.787 75.3734 477.049 74.5789 477.392L53.8169 486.339C48.0813 488.811 43.2438 489.314 39.3921 488.126C35.5728 486.948 32.5445 484.052 30.5108 479.333C28.4771 474.614 28.4517 470.424 30.2185 466.839C32.0002 463.223 35.6879 460.052 41.4235 457.581L63.4368 448.094C72.0279 444.392 82.4329 441.616 91.876 442.611C101.242 443.597 109.687 448.284 114.581 459.64C118.533 468.811 119.11 475.386 116.915 481.615C114.689 487.932 109.57 494.041 101.706 502.166ZM97.9798 552.987C92.2504 555.456 87.3998 555.917 83.5157 554.654C79.6579 553.399 76.5706 550.383 74.4672 545.502C72.3638 540.621 72.2917 536.306 74.0289 532.64C75.7779 528.949 79.4439 525.739 85.1733 523.27L86.7953 522.571C92.5314 520.099 97.3634 519.599 101.235 520.841C105.077 522.073 108.165 525.085 110.308 530.057C112.451 535.028 112.519 539.341 110.776 542.98C109.02 546.648 105.338 549.816 99.6019 552.288L97.9798 552.987Z" stroke="#055D8D" stroke-width="2"/>
<path d="M114.578 1927.81C110.28 1932.24 105.679 1937.38 95.9008 1941.59L94.2788 1942.29C80.7464 1948.12 76.1713 1946.94 73.2037 1940.06C69.4286 1931.3 71.8087 1927.89 85.019 1912.9L89.4809 1907.82C90.8939 1906.13 91.3074 1905.18 90.8378 1904.09C90.1617 1902.52 88.5184 1902.66 87.0818 1903.28L66.3197 1912.22C54.5947 1917.28 45.9442 1914.54 41.6995 1904.69C37.4548 1894.84 41.4098 1886.68 53.1348 1881.63L75.1481 1872.14C92.4807 1864.67 117.502 1860.76 127.606 1884.21C135.626 1902.82 130.235 1911.6 114.532 1927.83L114.578 1927.81ZM110.483 1978.87C98.7577 1983.92 90.032 1981.02 85.6559 1970.86C81.2797 1960.71 85.1596 1952.37 96.8846 1947.32L98.5066 1946.62C110.232 1941.57 118.882 1944.3 123.333 1954.63C127.785 1964.96 123.83 1973.12 112.105 1978.17L110.483 1978.87Z" fill="#5DB6E7"/>
<path d="M101.706 1925.17L101.717 1925.18C101.483 1925.42 101.247 1925.67 101.01 1925.91C96.9267 1930.15 92.4268 1934.82 83.398 1938.71L81.776 1939.41C75.0076 1942.32 70.7104 1943.37 67.8044 1942.99C66.3986 1942.8 65.3205 1942.27 64.4212 1941.43C63.5031 1940.58 62.7281 1939.35 62.015 1937.69C61.092 1935.55 60.5827 1933.82 60.4909 1932.2C60.4002 1930.61 60.7129 1929.05 61.5417 1927.27C63.2408 1923.61 67.0169 1919.14 73.6623 1911.59L73.663 1911.59L78.1249 1906.52L78.1335 1906.51L78.1418 1906.5C78.8579 1905.64 79.4094 1904.87 79.6938 1904.12C80.0048 1903.29 79.9885 1902.51 79.6491 1901.72C79.1622 1900.59 78.2665 1900.03 77.2612 1899.9C76.3347 1899.79 75.3734 1900.05 74.5789 1900.39L53.8169 1909.34C48.0813 1911.81 43.2438 1912.31 39.3921 1911.13C35.5728 1909.95 32.5445 1907.05 30.5108 1902.33C28.4771 1897.61 28.4517 1893.42 30.2185 1889.84C32.0002 1886.22 35.6879 1883.05 41.4235 1880.58L63.4368 1871.09C72.0279 1867.39 82.4329 1864.62 91.876 1865.61C101.242 1866.6 109.687 1871.28 114.581 1882.64C118.533 1891.81 119.11 1898.39 116.915 1904.62C114.689 1910.93 109.57 1917.04 101.706 1925.17ZM97.9798 1975.99C92.2504 1978.46 87.3998 1978.92 83.5157 1977.65C79.6579 1976.4 76.5706 1973.38 74.4672 1968.5C72.3638 1963.62 72.2917 1959.31 74.0289 1955.64C75.7779 1951.95 79.4439 1948.74 85.1733 1946.27L86.7953 1945.57C92.5314 1943.1 97.3634 1942.6 101.235 1943.84C105.077 1945.07 108.165 1948.08 110.308 1953.06C112.451 1958.03 112.519 1962.34 110.776 1965.98C109.02 1969.65 105.338 1972.82 99.6019 1975.29L97.9798 1975.99Z" stroke="#055D8D" stroke-width="2"/>
<path d="M1412.58 1243.81C1408.28 1248.24 1403.68 1253.38 1393.9 1257.59L1392.28 1258.29C1378.75 1264.12 1374.17 1262.94 1371.2 1256.06C1367.43 1247.3 1369.81 1243.89 1383.02 1228.9L1387.48 1223.82C1388.89 1222.13 1389.31 1221.18 1388.84 1220.09C1388.16 1218.52 1386.52 1218.66 1385.08 1219.28L1364.32 1228.22C1352.59 1233.28 1343.94 1230.54 1339.7 1220.69C1335.45 1210.84 1339.41 1202.68 1351.13 1197.63L1373.15 1188.14C1390.48 1180.67 1415.5 1176.76 1425.61 1200.21C1433.63 1218.82 1428.23 1227.6 1412.53 1243.83L1412.58 1243.81ZM1408.48 1294.87C1396.76 1299.92 1388.03 1297.02 1383.66 1286.86C1379.28 1276.71 1383.16 1268.37 1394.88 1263.32L1396.51 1262.62C1408.23 1257.57 1416.88 1260.3 1421.33 1270.63C1425.78 1280.96 1421.83 1289.12 1410.1 1294.17L1408.48 1294.87Z" fill="#5DB6E7"/>
<path d="M1399.71 1241.17L1399.72 1241.18C1399.48 1241.42 1399.25 1241.67 1399.01 1241.91C1394.93 1246.15 1390.43 1250.82 1381.4 1254.71L1379.78 1255.41C1373.01 1258.32 1368.71 1259.37 1365.8 1258.99C1364.4 1258.8 1363.32 1258.27 1362.42 1257.43C1361.5 1256.58 1360.73 1255.35 1360.02 1253.69C1359.09 1251.55 1358.58 1249.82 1358.49 1248.2C1358.4 1246.61 1358.71 1245.05 1359.54 1243.27C1361.24 1239.61 1365.02 1235.14 1371.66 1227.59L1371.66 1227.59L1376.12 1222.52L1376.13 1222.51L1376.14 1222.5C1376.86 1221.64 1377.41 1220.87 1377.69 1220.12C1378 1219.29 1377.99 1218.51 1377.65 1217.72C1377.16 1216.59 1376.27 1216.03 1375.26 1215.9C1374.33 1215.79 1373.37 1216.05 1372.58 1216.39L1351.82 1225.34C1346.08 1227.81 1341.24 1228.31 1337.39 1227.13C1333.57 1225.95 1330.54 1223.05 1328.51 1218.33C1326.48 1213.61 1326.45 1209.42 1328.22 1205.84C1330 1202.22 1333.69 1199.05 1339.42 1196.58L1361.44 1187.09C1370.03 1183.39 1380.43 1180.62 1389.88 1181.61C1399.24 1182.6 1407.69 1187.28 1412.58 1198.64C1416.53 1207.81 1417.11 1214.39 1414.91 1220.62C1412.69 1226.93 1407.57 1233.04 1399.71 1241.17ZM1395.98 1291.99C1390.25 1294.46 1385.4 1294.92 1381.52 1293.65C1377.66 1292.4 1374.57 1289.38 1372.47 1284.5C1370.36 1279.62 1370.29 1275.31 1372.03 1271.64C1373.78 1267.95 1377.44 1264.74 1383.17 1262.27L1384.8 1261.57C1390.53 1259.1 1395.36 1258.6 1399.24 1259.84C1403.08 1261.07 1406.17 1264.08 1408.31 1269.06C1410.45 1274.03 1410.52 1278.34 1408.78 1281.98C1407.02 1285.65 1403.34 1288.82 1397.6 1291.29L1395.98 1291.99Z" stroke="#055D8D" stroke-width="2"/>
<path d="M1412.58 2666.81C1408.28 2671.24 1403.68 2676.38 1393.9 2680.59L1392.28 2681.29C1378.75 2687.12 1374.17 2685.94 1371.2 2679.06C1367.43 2670.3 1369.81 2666.89 1383.02 2651.9L1387.48 2646.82C1388.89 2645.13 1389.31 2644.18 1388.84 2643.09C1388.16 2641.52 1386.52 2641.66 1385.08 2642.28L1364.32 2651.22C1352.59 2656.28 1343.94 2653.54 1339.7 2643.69C1335.45 2633.84 1339.41 2625.68 1351.13 2620.63L1373.15 2611.14C1390.48 2603.67 1415.5 2599.76 1425.61 2623.21C1433.63 2641.82 1428.23 2650.6 1412.53 2666.83L1412.58 2666.81ZM1408.48 2717.87C1396.76 2722.92 1388.03 2720.02 1383.66 2709.86C1379.28 2699.71 1383.16 2691.37 1394.88 2686.32L1396.51 2685.62C1408.23 2680.57 1416.88 2683.3 1421.33 2693.63C1425.78 2703.96 1421.83 2712.12 1410.1 2717.17L1408.48 2717.87Z" fill="#5DB6E7"/>
<path d="M1399.71 2664.17L1399.72 2664.18C1399.48 2664.42 1399.25 2664.67 1399.01 2664.91C1394.93 2669.15 1390.43 2673.82 1381.4 2677.71L1379.78 2678.41C1373.01 2681.32 1368.71 2682.37 1365.8 2681.99C1364.4 2681.8 1363.32 2681.27 1362.42 2680.43C1361.5 2679.58 1360.73 2678.35 1360.02 2676.69C1359.09 2674.55 1358.58 2672.82 1358.49 2671.2C1358.4 2669.61 1358.71 2668.05 1359.54 2666.27C1361.24 2662.61 1365.02 2658.14 1371.66 2650.59L1371.66 2650.59L1376.12 2645.52L1376.13 2645.51L1376.14 2645.5C1376.86 2644.64 1377.41 2643.87 1377.69 2643.12C1378 2642.29 1377.99 2641.51 1377.65 2640.72C1377.16 2639.59 1376.27 2639.03 1375.26 2638.9C1374.33 2638.79 1373.37 2639.05 1372.58 2639.39L1351.82 2648.34C1346.08 2650.81 1341.24 2651.31 1337.39 2650.13C1333.57 2648.95 1330.54 2646.05 1328.51 2641.33C1326.48 2636.61 1326.45 2632.42 1328.22 2628.84C1330 2625.22 1333.69 2622.05 1339.42 2619.58L1361.44 2610.09C1370.03 2606.39 1380.43 2603.62 1389.88 2604.61C1399.24 2605.6 1407.69 2610.28 1412.58 2621.64C1416.53 2630.81 1417.11 2637.39 1414.91 2643.62C1412.69 2649.93 1407.57 2656.04 1399.71 2664.17ZM1395.98 2714.99C1390.25 2717.46 1385.4 2717.92 1381.52 2716.65C1377.66 2715.4 1374.57 2712.38 1372.47 2707.5C1370.36 2702.62 1370.29 2698.31 1372.03 2694.64C1373.78 2690.95 1377.44 2687.74 1383.17 2685.27L1384.8 2684.57C1390.53 2682.1 1395.36 2681.6 1399.24 2682.84C1403.08 2684.07 1406.17 2687.08 1408.31 2692.06C1410.45 2697.03 1410.52 2701.34 1408.78 2704.98C1407.02 2708.65 1403.34 2711.82 1397.6 2714.29L1395.98 2714.99Z" stroke="#055D8D" stroke-width="2"/>
<path d="M1131.57 112.236C1116.57 104.937 1117.92 96.876 1122.96 83.0687L1140.07 36.1409C1145.66 20.5822 1158.87 18.0075 1173.87 25.3062L1175.94 26.3159C1190.94 33.6147 1197.12 45.6229 1188.27 59.5949L1161.91 102.022C1154.15 114.503 1148.64 120.544 1133.64 113.246L1131.57 112.236ZM1108.24 160.185C1093.24 152.887 1088.71 141.686 1095.11 128.542C1101.51 115.399 1113.22 111.819 1128.22 119.118L1130.29 120.128C1145.29 127.427 1149.81 138.627 1143.31 151.996C1136.8 165.366 1125.31 168.494 1110.31 161.195L1108.24 160.185Z" fill="#5DACD9"/>
<path d="M1132.01 23.4835L1132.01 23.4791C1134.72 15.9351 1139.21 11.6835 1144.72 10.1137C1150.27 8.52965 1157.06 9.61688 1164.43 13.2054L1166.5 14.2151C1173.88 17.8038 1178.94 22.481 1181.13 27.8313C1183.29 33.1324 1182.72 39.2873 1178.43 46.0597L1178.43 46.0597L1178.42 46.0671L1152.06 88.4943C1148.16 94.7713 1144.97 99.1484 1141.03 101.161C1137.22 103.112 1132.45 102.935 1125.08 99.3464L1123 98.3367C1115.63 94.7485 1112.55 91.1087 1111.73 86.9017C1110.89 82.5628 1112.36 77.3557 1114.9 70.4113C1114.9 70.4112 1114.9 70.4112 1114.9 70.4111L1132.01 23.4835ZM1099.67 146.286C1092.31 142.701 1087.65 138.227 1085.57 133.175C1083.5 128.146 1083.9 122.363 1087.01 115.98C1090.12 109.597 1094.45 105.653 1099.72 104.125C1105 102.591 1111.42 103.436 1118.78 107.017L1120.86 108.027C1128.22 111.612 1132.87 116.085 1134.94 121.163C1137 126.218 1136.57 132.059 1133.41 138.559C1130.25 145.058 1125.94 148.938 1120.73 150.383C1115.48 151.835 1109.12 150.884 1101.75 147.296L1099.67 146.286Z" stroke="#055D8D" stroke-width="2"/>
<path d="M1131.57 2927.24C1116.57 2919.94 1117.92 2911.88 1122.96 2898.07L1140.07 2851.14C1145.66 2835.58 1158.87 2833.01 1173.87 2840.31L1175.94 2841.32C1190.94 2848.61 1197.12 2860.62 1188.27 2874.59L1161.91 2917.02C1154.15 2929.5 1148.64 2935.54 1133.64 2928.25L1131.57 2927.24ZM1108.24 2975.19C1093.24 2967.89 1088.71 2956.69 1095.11 2943.54C1101.51 2930.4 1113.22 2926.82 1128.22 2934.12L1130.29 2935.13C1145.29 2942.43 1149.81 2953.63 1143.31 2967C1136.8 2980.37 1125.31 2983.49 1110.31 2976.2L1108.24 2975.19Z" fill="#5DACD9"/>
<path d="M1132.01 2838.48L1132.01 2838.48C1134.72 2830.94 1139.21 2826.68 1144.72 2825.11C1150.27 2823.53 1157.06 2824.62 1164.43 2828.21L1166.5 2829.22C1173.88 2832.8 1178.94 2837.48 1181.13 2842.83C1183.29 2848.13 1182.72 2854.29 1178.43 2861.06L1178.43 2861.06L1178.42 2861.07L1152.06 2903.49C1148.16 2909.77 1144.97 2914.15 1141.03 2916.16C1137.22 2918.11 1132.45 2917.93 1125.08 2914.35L1123 2913.34C1115.63 2909.75 1112.55 2906.11 1111.73 2901.9C1110.89 2897.56 1112.36 2892.36 1114.9 2885.41C1114.9 2885.41 1114.9 2885.41 1114.9 2885.41L1132.01 2838.48ZM1099.67 2961.29C1092.31 2957.7 1087.65 2953.23 1085.57 2948.17C1083.5 2943.15 1083.9 2937.36 1087.01 2930.98C1090.12 2924.6 1094.45 2920.65 1099.72 2919.12C1105 2917.59 1111.42 2918.44 1118.78 2922.02L1120.86 2923.03C1128.22 2926.61 1132.87 2931.08 1134.94 2936.16C1137 2941.22 1136.57 2947.06 1133.41 2953.56C1130.25 2960.06 1125.94 2963.94 1120.73 2965.38C1115.48 2966.84 1109.12 2965.88 1101.75 2962.3L1099.67 2961.29Z" stroke="#055D8D" stroke-width="2"/>
<path d="M1149.57 1634.24C1134.57 1626.94 1135.92 1618.88 1140.96 1605.07L1158.07 1558.14C1163.66 1542.58 1176.87 1540.01 1191.87 1547.31L1193.94 1548.32C1208.94 1555.61 1215.12 1567.62 1206.27 1581.59L1179.91 1624.02C1172.15 1636.5 1166.64 1642.54 1151.64 1635.25L1149.57 1634.24ZM1126.24 1682.19C1111.24 1674.89 1106.71 1663.69 1113.11 1650.54C1119.51 1637.4 1131.22 1633.82 1146.22 1641.12L1148.29 1642.13C1163.29 1649.43 1167.81 1660.63 1161.31 1674C1154.8 1687.37 1143.31 1690.49 1128.31 1683.2L1126.24 1682.19Z" fill="#5DACD9"/>
<path d="M1150.01 1545.48L1150.01 1545.48C1152.72 1537.94 1157.21 1533.68 1162.72 1532.11C1168.27 1530.53 1175.06 1531.62 1182.43 1535.21L1184.5 1536.22C1191.88 1539.8 1196.94 1544.48 1199.13 1549.83C1201.29 1555.13 1200.72 1561.29 1196.43 1568.06L1196.43 1568.06L1196.42 1568.07L1170.06 1610.49C1166.16 1616.77 1162.97 1621.15 1159.03 1623.16C1155.22 1625.11 1150.45 1624.93 1143.08 1621.35L1141 1620.34C1133.63 1616.75 1130.55 1613.11 1129.73 1608.9C1128.89 1604.56 1130.36 1599.36 1132.9 1592.41C1132.9 1592.41 1132.9 1592.41 1132.9 1592.41L1150.01 1545.48ZM1117.67 1668.29C1110.31 1664.7 1105.65 1660.23 1103.57 1655.17C1101.5 1650.15 1101.9 1644.36 1105.01 1637.98C1108.12 1631.6 1112.45 1627.65 1117.72 1626.12C1123 1624.59 1129.42 1625.44 1136.78 1629.02L1138.86 1630.03C1146.22 1633.61 1150.87 1638.08 1152.94 1643.16C1155 1648.22 1154.57 1654.06 1151.41 1660.56C1148.25 1667.06 1143.94 1670.94 1138.73 1672.38C1133.48 1673.84 1127.12 1672.88 1119.75 1669.3L1117.67 1668.29Z" stroke="#055D8D" stroke-width="2"/>
<path d="M247.892 723.297C260.068 717.372 258.967 710.829 254.883 699.62L240.989 661.526C236.45 648.896 225.731 646.806 213.555 652.731L211.87 653.551C199.695 659.475 194.676 669.223 201.862 680.565L223.264 715.006C229.562 725.137 234.032 730.042 246.208 724.117L247.892 723.297ZM266.833 762.221C279.009 756.296 282.679 747.204 277.488 736.534C272.296 725.865 262.787 722.959 250.611 728.884L248.927 729.703C236.751 735.628 233.08 744.72 238.361 755.573C243.642 766.426 252.972 768.965 265.148 763.04L266.833 762.221Z" fill="#5DACD9"/>
<path d="M247.355 651.316L247.353 651.311C245.169 645.232 241.563 641.833 237.167 640.579C232.721 639.311 227.261 640.176 221.298 643.077L219.614 643.897C213.651 646.799 209.588 650.567 207.837 654.852C206.106 659.087 206.555 664.02 210.012 669.477L210.012 669.477L210.017 669.484L231.419 703.925C234.591 709.028 237.151 712.533 240.293 714.139C243.315 715.684 247.114 715.566 253.076 712.665L254.761 711.845C260.723 708.944 263.161 706.027 263.81 702.696C264.484 699.233 263.306 695.055 261.249 689.41C261.249 689.41 261.249 689.41 261.249 689.41L247.355 651.316ZM273.701 750.769C279.656 747.871 283.388 744.267 285.054 740.223C286.711 736.202 286.398 731.565 283.894 726.419C281.39 721.272 277.909 718.116 273.696 716.894C269.462 715.665 264.303 716.335 258.354 719.23L256.67 720.05C250.714 722.948 246.984 726.55 245.329 730.615C243.683 734.657 244.015 739.341 246.566 744.583C249.116 749.824 252.573 752.927 256.742 754.082C260.938 755.244 266.055 754.489 272.017 751.588L273.701 750.769Z" stroke="#055D8D" stroke-width="2"/>
<path d="M247.892 2146.3C260.068 2140.37 258.967 2133.83 254.883 2122.62L240.989 2084.53C236.45 2071.9 225.731 2069.81 213.555 2075.73L211.87 2076.55C199.695 2082.48 194.676 2092.22 201.862 2103.57L223.264 2138.01C229.562 2148.14 234.032 2153.04 246.208 2147.12L247.892 2146.3ZM266.833 2185.22C279.009 2179.3 282.679 2170.2 277.488 2159.53C272.296 2148.86 262.787 2145.96 250.611 2151.88L248.927 2152.7C236.751 2158.63 233.08 2167.72 238.361 2178.57C243.642 2189.43 252.972 2191.97 265.148 2186.04L266.833 2185.22Z" fill="#5DACD9"/>
<path d="M247.355 2074.32L247.353 2074.31C245.169 2068.23 241.563 2064.83 237.167 2063.58C232.721 2062.31 227.261 2063.18 221.298 2066.08L219.614 2066.9C213.651 2069.8 209.588 2073.57 207.837 2077.85C206.106 2082.09 206.555 2087.02 210.012 2092.48L210.012 2092.48L210.017 2092.48L231.419 2126.93C234.591 2132.03 237.151 2135.53 240.293 2137.14C243.315 2138.68 247.114 2138.57 253.076 2135.66L254.761 2134.85C260.723 2131.94 263.161 2129.03 263.81 2125.7C264.484 2122.23 263.306 2118.05 261.249 2112.41C261.249 2112.41 261.249 2112.41 261.249 2112.41L247.355 2074.32ZM273.701 2173.77C279.656 2170.87 283.388 2167.27 285.054 2163.22C286.711 2159.2 286.398 2154.56 283.894 2149.42C281.39 2144.27 277.909 2141.12 273.696 2139.89C269.462 2138.67 264.303 2139.34 258.354 2142.23L256.67 2143.05C250.714 2145.95 246.984 2149.55 245.329 2153.61C243.683 2157.66 244.015 2162.34 246.566 2167.58C249.116 2172.82 252.573 2175.93 256.742 2177.08C260.938 2178.24 266.055 2177.49 272.017 2174.59L273.701 2173.77Z" stroke="#055D8D" stroke-width="2"/>
<path d="M848.075 625.137C835.669 617.882 832.936 607.251 840.158 594.903C847.38 582.555 857.882 579.9 870.288 587.156L919.323 615.833C931.729 623.088 934.598 633.485 927.342 645.892C920.086 658.298 909.516 661.07 897.11 653.814L848.075 625.137Z" fill="#5DACD9"/>
<path d="M842.58 610.274C836.528 606.734 832.968 602.452 831.724 597.678C830.479 592.902 831.498 587.432 835.021 581.408C838.544 575.384 842.785 571.861 847.527 570.647C852.271 569.432 857.725 570.476 863.783 574.019L912.818 602.696C918.878 606.24 922.469 610.468 923.74 615.19C925.011 619.91 924.02 625.332 920.479 631.387C916.938 637.441 912.67 641.01 907.904 642.259C903.138 643.508 897.669 642.492 891.615 638.951L842.58 610.274Z" stroke="#055D8D" stroke-width="2"/>
<path d="M810.075 2055.14C797.669 2047.88 794.936 2037.25 802.158 2024.9C809.38 2012.55 819.882 2009.9 832.288 2017.16L881.323 2045.83C893.729 2053.09 896.598 2063.48 889.342 2075.89C882.086 2088.3 871.516 2091.07 859.11 2083.81L810.075 2055.14Z" fill="#5DACD9"/>
<path d="M804.58 2040.27C798.528 2036.73 794.968 2032.45 793.724 2027.68C792.479 2022.9 793.498 2017.43 797.021 2011.41C800.544 2005.38 804.785 2001.86 809.527 2000.65C814.271 1999.43 819.725 2000.48 825.783 2004.02L874.818 2032.7C880.878 2036.24 884.469 2040.47 885.74 2045.19C887.011 2049.91 886.02 2055.33 882.479 2061.39C878.938 2067.44 874.67 2071.01 869.904 2072.26C865.138 2073.51 859.669 2072.49 853.615 2068.95L804.58 2040.27Z" stroke="#055D8D" stroke-width="2"/>
<path d="M677.323 1342.14C689.729 1334.88 692.461 1324.25 685.24 1311.9C678.018 1299.55 667.516 1296.9 655.11 1304.16L606.075 1332.83C593.669 1340.09 590.799 1350.48 598.055 1362.89C605.311 1375.3 615.882 1378.07 628.287 1370.81L677.323 1342.14Z" fill="#5DACD9"/>
<path d="M682.818 1327.27C688.87 1323.73 692.43 1319.45 693.674 1314.68C694.918 1309.9 693.9 1304.43 690.376 1298.41C686.853 1292.38 682.613 1288.86 677.871 1287.65C673.126 1286.43 667.673 1287.48 661.615 1291.02L612.579 1319.7C606.52 1323.24 602.928 1327.47 601.657 1332.19C600.387 1336.91 601.377 1342.33 604.918 1348.39C608.459 1354.44 612.727 1358.01 617.494 1359.26C622.26 1360.51 627.729 1359.49 633.783 1355.95L682.818 1327.27Z" stroke="#055D8D" stroke-width="2"/>
<path d="M616.323 2726.14C628.729 2718.88 631.461 2708.25 624.24 2695.9C617.018 2683.55 606.516 2680.9 594.11 2688.16L545.075 2716.83C532.669 2724.09 529.799 2734.48 537.055 2746.89C544.311 2759.3 554.882 2762.07 567.287 2754.81L616.323 2726.14Z" fill="#5DACD9"/>
<path d="M621.818 2711.27C627.87 2707.73 631.43 2703.45 632.674 2698.68C633.918 2693.9 632.9 2688.43 629.376 2682.41C625.853 2676.38 621.613 2672.86 616.871 2671.65C612.126 2670.43 606.673 2671.48 600.615 2675.02L551.579 2703.7C545.52 2707.24 541.928 2711.47 540.657 2716.19C539.387 2720.91 540.377 2726.33 543.918 2732.39C547.459 2738.44 551.727 2742.01 556.494 2743.26C561.26 2744.51 566.729 2743.49 572.783 2739.95L621.818 2711.27Z" stroke="#055D8D" stroke-width="2"/>
<path d="M346.633 -11.1402C342.317 -22.5849 346.633 -31.4166 358.657 -32.7231C371.041 -34.0295 378.903 -30.894 383.271 -19.4494L415.335 66.1503C419.446 77.3859 416.106 86.4267 403.516 87.7331C391.698 89.0396 382.86 85.6951 378.698 74.4594L346.633 -11.1402Z" fill="#5DACD9"/>
<path d="M333.57 -11.491L333.569 -11.4931C331.473 -17.0516 331.539 -21.7985 333.399 -25.2602C335.243 -28.6937 338.982 -31.1001 344.764 -31.7287C350.869 -32.3727 355.707 -31.9018 359.519 -29.9753C363.3 -28.0651 366.215 -24.65 368.335 -19.0961C368.336 -19.095 368.336 -19.0939 368.337 -19.0928L400.396 66.4939C400.396 66.495 400.397 66.4961 400.397 66.4973C402.402 71.9792 402.517 76.7364 400.792 80.2215C399.093 83.6542 395.477 86.1092 389.413 86.7385L389.407 86.7392C383.603 87.3807 378.652 86.8649 374.679 84.9029C370.734 82.9553 367.641 79.5278 365.635 74.1121L365.634 74.1087L333.57 -11.491Z" stroke="#055D8D" stroke-width="2"/>
<path d="M346.633 2803.86C342.317 2792.42 346.633 2783.58 358.657 2782.28C371.041 2780.97 378.903 2784.11 383.271 2795.55L415.335 2881.15C419.446 2892.39 416.106 2901.43 403.516 2902.73C391.698 2904.04 382.86 2900.7 378.698 2889.46L346.633 2803.86Z" fill="#5DACD9"/>
<path d="M333.57 2803.51L333.569 2803.51C331.473 2797.95 331.539 2793.2 333.399 2789.74C335.243 2786.31 338.982 2783.9 344.764 2783.27C350.869 2782.63 355.707 2783.1 359.519 2785.02C363.3 2786.93 366.215 2790.35 368.335 2795.9C368.336 2795.91 368.336 2795.91 368.337 2795.91L400.396 2881.49C400.396 2881.5 400.397 2881.5 400.397 2881.5C402.402 2886.98 402.517 2891.74 400.792 2895.22C399.093 2898.65 395.477 2901.11 389.413 2901.74L389.407 2901.74C383.603 2902.38 378.652 2901.86 374.679 2899.9C370.734 2897.96 367.641 2894.53 365.635 2889.11L365.634 2889.11L333.57 2803.51Z" stroke="#055D8D" stroke-width="2"/>
<path d="M329.633 1423.86C325.317 1412.42 329.633 1403.58 341.657 1402.28C354.041 1400.97 361.903 1404.11 366.271 1415.55L398.335 1501.15C402.446 1512.39 399.106 1521.43 386.516 1522.73C374.698 1524.04 365.86 1520.7 361.698 1509.46L329.633 1423.86Z" fill="#5DACD9"/>
<path d="M316.57 1423.51L316.569 1423.51C314.473 1417.95 314.539 1413.2 316.399 1409.74C318.243 1406.31 321.982 1403.9 327.764 1403.27C333.869 1402.63 338.707 1403.1 342.519 1405.02C346.3 1406.93 349.215 1410.35 351.335 1415.9C351.336 1415.91 351.336 1415.91 351.337 1415.91L383.396 1501.49C383.396 1501.5 383.397 1501.5 383.397 1501.5C385.402 1506.98 385.517 1511.74 383.792 1515.22C382.093 1518.65 378.477 1521.11 372.413 1521.74L372.407 1521.74C366.603 1522.38 361.652 1521.86 357.679 1519.9C353.734 1517.96 350.641 1514.53 348.635 1509.11L348.634 1509.11L316.57 1423.51Z" stroke="#055D8D" stroke-width="2"/>
<path d="M1178.37 679.86C1182.68 668.415 1178.37 659.583 1166.34 658.277C1153.96 656.97 1146.1 660.106 1141.73 671.551L1109.67 757.15C1105.55 768.386 1108.89 777.427 1121.48 778.733C1133.3 780.04 1142.14 776.695 1146.3 765.459L1178.37 679.86Z" fill="#5DACD9"/>
<path d="M1191.43 679.509L1191.43 679.507C1193.53 673.948 1193.46 669.202 1191.6 665.74C1189.76 662.306 1186.02 659.9 1180.24 659.271C1174.13 658.627 1169.29 659.098 1165.48 661.025C1161.7 662.935 1158.78 666.35 1156.66 671.904C1156.66 671.905 1156.66 671.906 1156.66 671.907L1124.6 757.494C1124.6 757.495 1124.6 757.496 1124.6 757.497C1122.6 762.979 1122.48 767.736 1124.21 771.222C1125.91 774.654 1129.52 777.109 1135.59 777.738L1135.59 777.739C1141.4 778.381 1146.35 777.865 1150.32 775.903C1154.27 773.955 1157.36 770.528 1159.36 765.112L1159.37 765.109L1191.43 679.509Z" stroke="#055D8D" stroke-width="2"/>
<path d="M1178.37 2102.86C1182.68 2091.42 1178.37 2082.58 1166.34 2081.28C1153.96 2079.97 1146.1 2083.11 1141.73 2094.55L1109.67 2180.15C1105.55 2191.39 1108.89 2200.43 1121.48 2201.73C1133.3 2203.04 1142.14 2199.7 1146.3 2188.46L1178.37 2102.86Z" fill="#5DACD9"/>
<path d="M1191.43 2102.51L1191.43 2102.51C1193.53 2096.95 1193.46 2092.2 1191.6 2088.74C1189.76 2085.31 1186.02 2082.9 1180.24 2082.27C1174.13 2081.63 1169.29 2082.1 1165.48 2084.02C1161.7 2085.93 1158.78 2089.35 1156.66 2094.9C1156.66 2094.91 1156.66 2094.91 1156.66 2094.91L1124.6 2180.49C1124.6 2180.5 1124.6 2180.5 1124.6 2180.5C1122.6 2185.98 1122.48 2190.74 1124.21 2194.22C1125.91 2197.65 1129.52 2200.11 1135.59 2200.74L1135.59 2200.74C1141.4 2201.38 1146.35 2200.86 1150.32 2198.9C1154.27 2196.96 1157.36 2193.53 1159.36 2188.11L1159.37 2188.11L1191.43 2102.51Z" stroke="#055D8D" stroke-width="2"/>
<path d="M968.466 297.691C978.96 289.866 980.165 279.414 970.081 271.298C959.672 262.975 950.776 261.265 940.235 269.061L861.939 327.72C851.75 335.476 849.544 345.552 860.139 353.994C870.038 361.991 879.935 364.076 890.17 356.35L968.466 297.691Z" fill="#5DACD9"/>
<path d="M961.036 285.507L961.037 285.506C966.144 281.698 968.84 277.364 969.163 273.143C969.484 268.955 967.487 264.608 962.625 260.694C957.488 256.587 952.843 254.211 948.275 253.746C943.743 253.284 939.128 254.689 934.001 258.479C934.001 258.48 934 258.481 933.999 258.481L855.714 317.132C855.713 317.132 855.713 317.133 855.712 317.134C850.733 320.924 847.868 325.162 847.409 329.325C846.956 333.431 848.816 337.752 853.931 341.828L853.937 341.833C858.803 345.764 863.576 348.164 868.309 348.691C873.008 349.214 877.791 347.902 882.737 344.168L882.74 344.166L961.036 285.507Z" stroke="#055D8D" stroke-width="2"/>
<path d="M874.97 3027.98C884.189 3021.1 885.248 3011.92 876.389 3004.79C867.245 2997.48 859.431 2995.98 850.171 3002.83L781.393 3054.35C772.443 3061.17 770.506 3070.02 779.812 3077.43C788.508 3084.46 797.202 3086.29 806.192 3079.5L874.97 3027.98Z" fill="#5DACD9"/>
<path d="M868.371 3017.18L868.373 3017.17C872.842 3013.84 875.182 3010.06 875.462 3006.4C875.74 3002.77 874.012 2998.99 869.763 2995.57C865.259 2991.97 861.201 2989.9 857.222 2989.49C853.279 2989.09 849.254 2990.31 844.769 2993.63C844.768 2993.63 844.767 2993.63 844.766 2993.63L775.999 3045.15C775.998 3045.15 775.997 3045.15 775.996 3045.15C771.637 3048.47 769.148 3052.17 768.75 3055.78C768.359 3059.33 769.964 3063.09 774.435 3066.65L774.44 3066.66C778.705 3070.1 782.877 3072.2 787.002 3072.66C791.095 3073.11 795.267 3071.97 799.59 3068.71L799.593 3068.7L868.371 3017.18Z" stroke="#055D8D" stroke-width="2"/>
<path d="M893.97 1773.98C903.189 1767.1 904.248 1757.92 895.389 1750.79C886.245 1743.48 878.431 1741.98 869.171 1748.83L800.393 1800.35C791.443 1807.17 789.506 1816.02 798.812 1823.43C807.508 1830.46 816.202 1832.29 825.192 1825.5L893.97 1773.98Z" fill="#5DACD9"/>
<path d="M887.371 1763.18L887.373 1763.17C891.842 1759.84 894.182 1756.06 894.462 1752.4C894.74 1748.77 893.012 1744.99 888.763 1741.57C884.259 1737.97 880.201 1735.9 876.222 1735.49C872.279 1735.09 868.254 1736.31 863.769 1739.63C863.768 1739.63 863.767 1739.63 863.766 1739.63L794.999 1791.15C794.998 1791.15 794.997 1791.15 794.996 1791.15C790.637 1794.47 788.148 1798.17 787.75 1801.78C787.359 1805.33 788.964 1809.09 793.435 1812.65L793.44 1812.66C797.705 1816.1 801.877 1818.2 806.002 1818.66C810.095 1819.11 814.267 1817.97 818.59 1814.71L818.593 1814.7L887.371 1763.18Z" stroke="#055D8D" stroke-width="2"/>
<path d="M625.568 1086.05C615.459 1078.52 614.298 1068.45 624.012 1060.63C634.038 1052.61 642.607 1050.97 652.76 1058.48L728.175 1114.98C737.989 1122.45 740.114 1132.15 729.91 1140.29C720.374 1147.99 710.842 1150 700.983 1142.55L625.568 1086.05Z" fill="#5DACD9"/>
<path d="M632.746 1074.29L632.745 1074.29C627.831 1070.62 625.243 1066.46 624.933 1062.41C624.625 1058.39 626.54 1054.21 631.217 1050.45C636.162 1046.49 640.629 1044.21 645.019 1043.76C649.373 1043.32 653.81 1044.67 658.742 1048.31C658.743 1048.31 658.744 1048.32 658.744 1048.32L734.149 1104.81C734.15 1104.81 734.151 1104.81 734.151 1104.81C738.943 1108.46 741.694 1112.53 742.134 1116.53C742.569 1120.47 740.786 1124.62 735.865 1128.54L735.86 1128.54C731.176 1132.33 726.585 1134.63 722.036 1135.14C717.52 1135.64 712.922 1134.38 708.165 1130.79L708.162 1130.79L632.746 1074.29Z" stroke="#055D8D" stroke-width="2"/>
<path d="M926.374 2434.98C917.155 2428.1 916.096 2418.92 924.955 2411.79C934.098 2404.48 941.913 2402.98 951.173 2409.83L1019.95 2461.35C1028.9 2468.17 1030.84 2477.02 1021.53 2484.43C1012.84 2491.46 1004.14 2493.29 995.151 2486.5L926.374 2434.98Z" fill="#5DACD9"/>
<path d="M932.973 2424.18L932.971 2424.17C928.502 2420.84 926.162 2417.06 925.882 2413.4C925.604 2409.77 927.332 2405.99 931.581 2402.57C936.084 2398.97 940.143 2396.9 944.122 2396.49C948.065 2396.09 952.09 2397.31 956.575 2400.63C956.576 2400.63 956.577 2400.63 956.578 2400.63L1025.34 2452.15C1025.35 2452.15 1025.35 2452.15 1025.35 2452.15C1029.71 2455.47 1032.2 2459.17 1032.59 2462.78C1032.98 2466.33 1031.38 2470.09 1026.91 2473.65L1026.9 2473.66C1022.64 2477.1 1018.47 2479.2 1014.34 2479.66C1010.25 2480.11 1006.08 2478.97 1001.75 2475.71L1001.75 2475.7L932.973 2424.18Z" stroke="#055D8D" stroke-width="2"/>
</g>
<defs>
<clipPath id="clip0_89_212">
<rect width="1440" height="3315" fill="white"/>
</clipPath>
</defs>
</svg>
