<svg width="393" height="905" viewBox="0 0 393 905" fill="none" xmlns="http://www.w3.org/2000/svg">
<g opacity="0.2" clip-path="url(#clip0_283_27499)">
<path d="M6.31602 32.4627C5.74438 30.5453 6.06652 27.7903 9.47845 27.2129L13.2844 26.5832C15.5433 26.2029 15.8616 25.6676 14.1008 24.3985L10.6598 21.9016C7.97056 19.9797 8.37326 17.266 10.3354 15.604C12.0243 14.1704 14.7802 13.854 16.9904 15.7719L19.3259 17.8809C20.7487 19.104 21.2815 18.945 21.7239 17.1656L22.523 14.1215C23.322 11.3058 25.7985 10.3387 28.001 10.6277C30.1207 10.9252 32.4342 12.3882 31.1759 15.7813L29.7425 19.7323C29.1033 21.4237 29.421 21.6878 31.4855 20.9415L34.9942 19.6011C38.2835 18.3263 40.2209 19.9015 40.8908 22.1485C41.5607 24.3954 40.8023 26.7749 37.3522 27.5105L33.6827 28.3116C31.5423 28.8033 31.4212 29.1983 32.8866 30.2781L36.2492 32.7984C39.1756 34.9432 38.0411 37.4348 36.4149 38.8497C34.726 40.2833 32.1132 40.8507 29.9186 38.9281L27.5832 36.8191C26.2388 35.5727 25.7059 35.7316 25.1852 37.5345L24.386 40.5785C23.587 43.3942 21.1081 44.6394 18.9101 44.3653C16.3741 44.0452 14.5355 42.0001 15.7332 38.9187L17.2449 34.9443C18.0231 32.9178 17.4682 32.6593 15.3655 33.5638L11.8365 35.1223C8.66124 36.4936 6.8832 34.3651 6.31602 32.4627Z" fill="#7E7E7E"/>
<path d="M10.091 25.1655L10.0924 25.1653C10.6671 25.0685 11.1501 24.9572 11.5176 24.8154C11.8579 24.684 12.2311 24.4781 12.3865 24.1056C12.5626 23.6836 12.3746 23.288 12.1535 23.0037C11.9262 22.7115 11.5689 22.4067 11.119 22.0823C11.1188 22.0822 11.1185 22.082 11.1183 22.0818L7.6786 19.5859L7.6786 19.5858L7.67566 19.5837C6.43712 18.6986 5.97029 17.682 5.9784 16.7486C5.98665 15.7987 6.48744 14.8336 7.38362 14.0746L7.38403 14.0742C8.89817 12.789 11.3749 12.4948 13.3842 14.2355L15.7159 16.3411L15.7158 16.3412L15.725 16.3491C16.0904 16.6632 16.4271 16.9141 16.7389 17.071C17.0485 17.2268 17.4023 17.3242 17.7605 17.2173C18.1223 17.1094 18.3611 16.8316 18.5265 16.5287C18.6915 16.2266 18.8198 15.8346 18.9334 15.3783L19.7304 12.3423C20.4465 9.82729 22.6397 8.94804 24.6588 9.2122C25.6492 9.35159 26.6187 9.7566 27.1955 10.4519C27.7434 11.1125 28.0135 12.129 27.4322 13.6965L27.431 13.6998L25.9988 17.6477C25.8375 18.0748 25.7182 18.457 25.6831 18.7737C25.6494 19.0772 25.6775 19.4917 26.0344 19.7468C26.3417 19.9665 26.7403 19.9428 27.0627 19.8869C27.4178 19.8253 27.8585 19.6894 28.3805 19.5007L28.3805 19.5008L28.3889 19.4976L31.8977 18.1572L31.8999 18.1564C33.4473 17.5566 34.5974 17.6543 35.417 18.0856C36.2457 18.5217 36.8287 19.3471 37.1368 20.3804C37.4448 21.4137 37.409 22.4237 36.9545 23.2426C36.5049 24.0525 35.5961 24.7644 33.9732 25.1104L33.9708 25.111L30.3013 25.912L30.3013 25.912L30.296 25.9132C29.7548 26.0375 29.3105 26.1622 28.9788 26.3032C28.6778 26.4312 28.329 26.6284 28.1915 26.9823C28.0326 27.3914 28.2366 27.7546 28.4303 27.9906C28.6333 28.2381 28.9431 28.4955 29.3134 28.7684C29.3139 28.7689 29.3145 28.7693 29.3151 28.7697L32.6745 31.2876L32.6744 31.2876L32.6788 31.2907C34.0314 32.2821 34.3641 33.2792 34.2676 34.1305C34.1659 35.0269 33.574 35.8976 32.8141 36.5595C31.2598 37.8774 28.9331 38.3556 26.976 36.6433L24.6458 34.5392C24.3009 34.2196 23.979 33.9619 23.6755 33.7996C23.3713 33.6368 23.0194 33.5352 22.6575 33.6431C22.2993 33.75 22.0567 34.0254 21.883 34.3253C21.708 34.6274 21.5637 35.0218 21.43 35.4848L21.4298 35.4847L21.4267 35.4965L20.6288 38.5357C19.9009 41.0926 17.6682 42.2036 15.6978 41.9582C14.5399 41.8121 13.5914 41.279 13.0621 40.4883C12.5422 39.7118 12.3731 38.6068 12.9243 37.1888L12.9256 37.1854L14.4367 33.2125C14.4368 33.2123 14.4369 33.2121 14.4369 33.2119C14.6356 32.6944 14.768 32.2446 14.7986 31.8769C14.8284 31.5191 14.7698 31.0849 14.3899 30.8291C14.0565 30.6047 13.6323 30.6373 13.2769 30.7128C12.8925 30.7945 12.4275 30.9636 11.8931 31.1935L11.8931 31.1935L11.8887 31.1954L8.36341 32.7522C8.36286 32.7524 8.36231 32.7527 8.36176 32.7529C6.90942 33.3797 5.85183 33.1858 5.0976 32.691C4.31332 32.1765 3.78179 31.286 3.52025 30.4087C3.25623 29.5232 3.21272 28.4834 3.58691 27.6238C3.94653 26.7977 4.72517 26.0595 6.28585 25.7951C6.2862 25.795 6.28655 25.795 6.2869 25.7949L10.091 25.1655Z" stroke="#484848"/>
<path d="M6.31602 800.962C5.74438 799.045 6.06652 796.29 9.47845 795.712L13.2844 795.082C15.5433 794.702 15.8616 794.167 14.1008 792.898L10.6598 790.401C7.97056 788.479 8.37326 785.765 10.3354 784.103C12.0243 782.67 14.7802 782.353 16.9904 784.271L19.3259 786.38C20.7487 787.603 21.2815 787.444 21.7239 785.665L22.523 782.621C23.322 779.805 25.7985 778.838 28.001 779.127C30.1207 779.424 32.4342 780.887 31.1759 784.281L29.7425 788.232C29.1033 789.923 29.421 790.187 31.4855 789.441L34.9942 788.1C38.2835 786.825 40.2209 788.401 40.8908 790.648C41.5607 792.895 40.8023 795.274 37.3522 796.01L33.6827 796.811C31.5423 797.302 31.4212 797.698 32.8866 798.777L36.2492 801.298C39.1756 803.442 38.0411 805.934 36.4149 807.349C34.726 808.783 32.1132 809.35 29.9186 807.427L27.5832 805.318C26.2388 804.072 25.7059 804.231 25.1852 806.034L24.386 809.078C23.587 811.893 21.1081 813.139 18.9101 812.865C16.3741 812.544 14.5355 810.499 15.7332 807.418L17.2449 803.444C18.0231 801.417 17.4682 801.158 15.3655 802.063L11.8365 803.621C8.66124 804.993 6.8832 802.864 6.31602 800.962Z" fill="#7E7E7E"/>
<path d="M10.091 793.665L10.0924 793.665C10.6671 793.568 11.1501 793.457 11.5176 793.315C11.8579 793.183 12.2311 792.977 12.3865 792.605C12.5626 792.183 12.3746 791.787 12.1535 791.503C11.9262 791.211 11.5689 790.906 11.119 790.582C11.1188 790.581 11.1185 790.581 11.1183 790.581L7.6786 788.085L7.6786 788.085L7.67566 788.083C6.43712 787.198 5.97029 786.181 5.9784 785.248C5.98665 784.298 6.48744 783.333 7.38362 782.574L7.38403 782.574C8.89817 781.288 11.3749 780.994 13.3842 782.735L15.7159 784.84L15.7158 784.84L15.725 784.848C16.0904 785.163 16.4271 785.413 16.7389 785.57C17.0485 785.726 17.4023 785.824 17.7605 785.717C18.1223 785.609 18.3611 785.331 18.5265 785.028C18.6915 784.726 18.8198 784.334 18.9334 783.878L19.7304 780.842C20.4465 778.327 22.6397 777.447 24.6588 777.711C25.6492 777.851 26.6187 778.256 27.1955 778.951C27.7434 779.612 28.0135 780.628 27.4322 782.196L27.431 782.199L25.9988 786.147C25.8375 786.574 25.7182 786.956 25.6831 787.273C25.6494 787.577 25.6775 787.991 26.0344 788.246C26.3417 788.466 26.7403 788.442 27.0627 788.386C27.4178 788.325 27.8585 788.189 28.3805 788L28.3805 788L28.3889 787.997L31.8977 786.657L31.8999 786.656C33.4473 786.056 34.5974 786.154 35.417 786.585C36.2457 787.021 36.8287 787.846 37.1368 788.88C37.4448 789.913 37.409 790.923 36.9545 791.742C36.5049 792.552 35.5961 793.264 33.9732 793.61L33.9708 793.61L30.3013 794.411L30.3013 794.411L30.296 794.413C29.7548 794.537 29.3105 794.662 28.9788 794.803C28.6778 794.93 28.329 795.128 28.1915 795.482C28.0326 795.891 28.2366 796.254 28.4303 796.49C28.6333 796.737 28.9431 796.995 29.3134 797.268C29.3139 797.268 29.3145 797.269 29.3151 797.269L32.6745 799.787L32.6744 799.787L32.6788 799.79C34.0314 800.781 34.3641 801.779 34.2676 802.63C34.1659 803.526 33.574 804.397 32.8141 805.059C31.2598 806.377 28.9331 806.855 26.976 805.143L24.6458 803.038C24.3009 802.719 23.979 802.461 23.6755 802.299C23.3713 802.136 23.0194 802.034 22.6575 802.142C22.2993 802.249 22.0567 802.525 21.883 802.825C21.708 803.127 21.5637 803.521 21.43 803.984L21.4298 803.984L21.4267 803.996L20.6288 807.035C19.9009 809.592 17.6682 810.703 15.6978 810.457C14.5399 810.311 13.5914 809.778 13.0621 808.988C12.5422 808.211 12.3731 807.106 12.9243 805.688L12.9256 805.685L14.4367 801.712C14.4368 801.712 14.4369 801.711 14.4369 801.711C14.6356 801.194 14.768 800.744 14.7986 800.376C14.8284 800.018 14.7698 799.584 14.3899 799.328C14.0565 799.104 13.6323 799.137 13.2769 799.212C12.8925 799.294 12.4275 799.463 11.8931 799.693L11.8931 799.693L11.8887 799.695L8.36341 801.252C8.36286 801.252 8.36231 801.252 8.36176 801.252C6.90942 801.879 5.85183 801.685 5.0976 801.19C4.31332 800.676 3.78179 799.785 3.52025 798.908C3.25623 798.022 3.21272 796.983 3.58691 796.123C3.94653 795.297 4.72517 794.559 6.28585 794.294C6.2862 794.294 6.28655 794.294 6.2869 794.294L10.091 793.665Z" stroke="#484848"/>
<path d="M6.31602 420.944C5.74438 419.026 6.06652 416.271 9.47845 415.694L13.2844 415.064C15.5433 414.684 15.8616 414.149 14.1008 412.88L10.6598 410.383C7.97056 408.461 8.37326 405.747 10.3354 404.085C12.0243 402.652 14.7802 402.335 16.9904 404.253L19.3259 406.362C20.7487 407.585 21.2815 407.426 21.7239 405.647L22.523 402.603C23.322 399.787 25.7985 398.82 28.001 399.109C30.1207 399.406 32.4342 400.869 31.1759 404.262L29.7425 408.213C29.1033 409.905 29.421 410.169 31.4855 409.423L34.9942 408.082C38.2835 406.807 40.2209 408.383 40.8908 410.63C41.5607 412.877 40.8023 415.256 37.3522 415.992L33.6827 416.793C31.5423 417.284 31.4212 417.679 32.8866 418.759L36.2492 421.28C39.1756 423.424 38.0411 425.916 36.4149 427.331C34.726 428.764 32.1132 429.332 29.9186 427.409L27.5832 425.3C26.2388 424.054 25.7059 424.213 25.1852 426.016L24.386 429.06C23.587 431.875 21.1081 433.121 18.9101 432.846C16.3741 432.526 14.5355 430.481 15.7332 427.4L17.2449 423.425C18.0231 421.399 17.4682 421.14 15.3655 422.045L11.8365 423.603C8.66124 424.975 6.8832 422.846 6.31602 420.944Z" fill="#7E7E7E"/>
<path d="M10.091 413.647L10.0924 413.646C10.6671 413.55 11.1501 413.438 11.5176 413.297C11.8579 413.165 12.2311 412.959 12.3865 412.587C12.5626 412.165 12.3746 411.769 12.1535 411.485C11.9262 411.193 11.5689 410.888 11.119 410.563C11.1188 410.563 11.1185 410.563 11.1183 410.563L7.6786 408.067L7.6786 408.067L7.67566 408.065C6.43712 407.18 5.97029 406.163 5.9784 405.23C5.98665 404.28 6.48744 403.315 7.38362 402.556L7.38403 402.555C8.89817 401.27 11.3749 400.976 13.3842 402.717L15.7159 404.822L15.7158 404.822L15.725 404.83C16.0904 405.144 16.4271 405.395 16.7389 405.552C17.0485 405.708 17.4023 405.805 17.7605 405.698C18.1223 405.591 18.3611 405.313 18.5265 405.01C18.6915 404.708 18.8198 404.316 18.9334 403.859L19.7304 400.823C20.4465 398.308 22.6397 397.429 24.6588 397.693C25.6492 397.833 26.6187 398.238 27.1955 398.933C27.7434 399.594 28.0135 400.61 27.4322 402.178L27.431 402.181L25.9988 406.129C25.8375 406.556 25.7182 406.938 25.6831 407.255C25.6494 407.558 25.6775 407.973 26.0344 408.228C26.3417 408.448 26.7403 408.424 27.0627 408.368C27.4178 408.306 27.8585 408.171 28.3805 407.982L28.3805 407.982L28.3889 407.979L31.8977 406.638L31.8999 406.637C33.4473 406.038 34.5974 406.135 35.417 406.567C36.2457 407.003 36.8287 407.828 37.1368 408.862C37.4448 409.895 37.409 410.905 36.9545 411.724C36.5049 412.534 35.5961 413.246 33.9732 413.592L33.9708 413.592L30.3013 414.393L30.3013 414.393L30.296 414.394C29.7548 414.519 29.3105 414.643 28.9788 414.784C28.6778 414.912 28.329 415.109 28.1915 415.463C28.0326 415.873 28.2366 416.236 28.4303 416.472C28.6333 416.719 28.9431 416.977 29.3134 417.25C29.3139 417.25 29.3145 417.25 29.3151 417.251L32.6745 419.769L32.6744 419.769L32.6788 419.772C34.0314 420.763 34.3641 421.76 34.2676 422.612C34.1659 423.508 33.574 424.379 32.8141 425.041C31.2598 426.359 28.9331 426.837 26.976 425.124L24.6458 423.02C24.3009 422.701 23.979 422.443 23.6755 422.281C23.3713 422.118 23.0194 422.016 22.6575 422.124C22.2993 422.231 22.0567 422.506 21.883 422.806C21.708 423.109 21.5637 423.503 21.43 423.966L21.4298 423.966L21.4267 423.978L20.6288 427.017C19.9009 429.574 17.6682 430.685 15.6978 430.439C14.5399 430.293 13.5914 429.76 13.0621 428.969C12.5422 428.193 12.3731 427.088 12.9243 425.67L12.9256 425.667L14.4367 421.694C14.4368 421.693 14.4369 421.693 14.4369 421.693C14.6356 421.176 14.768 420.726 14.7986 420.358C14.8284 420 14.7698 419.566 14.3899 419.31C14.0565 419.086 13.6323 419.118 13.2769 419.194C12.8925 419.276 12.4275 419.445 11.8931 419.675L11.8931 419.675L11.8887 419.677L8.36341 421.233C8.36286 421.234 8.36231 421.234 8.36176 421.234C6.90942 421.861 5.85183 421.667 5.0976 421.172C4.31332 420.658 3.78179 419.767 3.52025 418.89C3.25623 418.004 3.21272 416.965 3.58691 416.105C3.94653 415.279 4.72517 414.541 6.28585 414.276C6.2862 414.276 6.28655 414.276 6.2869 414.276L10.091 413.647Z" stroke="#484848"/>
<path d="M382.404 234.211C382.976 232.293 382.654 229.538 379.242 228.961L375.436 228.331C373.177 227.951 372.859 227.416 374.619 226.147L378.06 223.65C380.75 221.728 380.347 219.014 378.385 217.352C376.696 215.919 373.94 215.602 371.73 217.52L369.394 219.629C367.972 220.852 367.439 220.693 366.996 218.914L366.197 215.87C365.398 213.054 362.922 212.087 360.719 212.376C358.6 212.673 356.286 214.136 357.544 217.529L358.978 221.48C359.617 223.172 359.299 223.436 357.235 222.69L353.726 221.349C350.437 220.074 348.499 221.65 347.829 223.897C347.16 226.144 347.918 228.523 351.368 229.259L355.037 230.06C357.178 230.551 357.299 230.946 355.834 232.026L352.471 234.547C349.545 236.691 350.679 239.183 352.305 240.598C353.994 242.031 356.607 242.599 358.802 240.676L361.137 238.567C362.481 237.321 363.014 237.48 363.535 239.283L364.334 242.327C365.133 245.142 367.612 246.387 369.81 246.113C372.346 245.793 374.185 243.748 372.987 240.667L371.475 236.692C370.697 234.666 371.252 234.407 373.355 235.312L376.884 236.87C380.059 238.242 381.837 236.113 382.404 234.211Z" fill="#7E7E7E"/>
<path d="M378.629 226.914L378.628 226.913C378.053 226.817 377.57 226.705 377.203 226.563C376.862 226.432 376.489 226.226 376.334 225.854C376.158 225.432 376.346 225.036 376.567 224.752C376.794 224.46 377.151 224.155 377.601 223.83C377.601 223.83 377.602 223.83 377.602 223.83L381.042 221.334L381.042 221.334L381.045 221.332C382.283 220.447 382.75 219.43 382.742 218.497C382.734 217.547 382.233 216.582 381.337 215.823L381.336 215.822C379.822 214.537 377.345 214.243 375.336 215.984L373.004 218.089L373.004 218.089L372.995 218.097C372.63 218.411 372.293 218.662 371.981 218.819C371.672 218.975 371.318 219.072 370.96 218.965C370.598 218.858 370.359 218.58 370.194 218.277C370.029 217.975 369.9 217.583 369.787 217.126L368.99 214.09C368.274 211.575 366.08 210.696 364.061 210.96C363.071 211.1 362.102 211.505 361.525 212.2C360.977 212.861 360.707 213.877 361.288 215.445L361.289 215.448L362.721 219.396C362.883 219.823 363.002 220.205 363.037 220.522C363.071 220.825 363.043 221.24 362.686 221.495C362.379 221.715 361.98 221.691 361.657 221.635C361.302 221.573 360.862 221.437 360.34 221.249L360.34 221.249L360.331 221.246L356.823 219.905L356.82 219.904C355.273 219.305 354.123 219.402 353.303 219.834C352.475 220.27 351.892 221.095 351.583 222.128C351.275 223.162 351.311 224.172 351.766 224.991C352.215 225.801 353.124 226.513 354.747 226.859L354.749 226.859L358.419 227.66L358.419 227.66L358.424 227.661C358.965 227.786 359.41 227.91 359.741 228.051C360.042 228.179 360.391 228.376 360.529 228.73C360.688 229.14 360.484 229.503 360.29 229.739C360.087 229.986 359.777 230.244 359.407 230.517C359.406 230.517 359.406 230.517 359.405 230.518L356.046 233.036L356.046 233.036L356.041 233.039C354.689 234.03 354.356 235.027 354.453 235.879C354.554 236.775 355.146 237.646 355.906 238.308C357.46 239.625 359.787 240.104 361.744 238.391L364.074 236.287C364.419 235.968 364.741 235.71 365.045 235.548C365.349 235.385 365.701 235.283 366.063 235.391C366.421 235.498 366.664 235.773 366.837 236.073C367.012 236.375 367.157 236.77 367.29 237.233L367.29 237.233L367.293 237.245L368.091 240.284C368.819 242.841 371.052 243.952 373.022 243.706C374.18 243.56 375.129 243.027 375.658 242.236C376.178 241.46 376.347 240.355 375.796 238.937L375.795 238.934L374.284 234.961C374.283 234.96 374.283 234.96 374.283 234.96C374.085 234.443 373.952 233.993 373.922 233.625C373.892 233.267 373.95 232.833 374.33 232.577C374.664 232.353 375.088 232.385 375.443 232.461C375.828 232.543 376.293 232.712 376.827 232.942L376.827 232.942L376.831 232.944L380.357 234.5C380.357 234.501 380.358 234.501 380.358 234.501C381.811 235.128 382.868 234.934 383.623 234.439C384.407 233.925 384.938 233.034 385.2 232.157C385.464 231.271 385.507 230.232 385.133 229.372C384.774 228.546 383.995 227.808 382.434 227.543C382.434 227.543 382.434 227.543 382.433 227.543L378.629 226.914Z" stroke="#484848"/>
<path d="M394.981 623.003C395.552 621.085 395.23 618.33 391.818 617.753L388.012 617.123C385.753 616.743 385.435 616.208 387.196 614.939L390.637 612.442C393.326 610.52 392.923 607.806 390.961 606.144C389.272 604.71 386.516 604.394 384.306 606.312L381.971 608.421C380.548 609.644 380.015 609.485 379.573 607.706L378.774 604.661C377.975 601.846 375.498 600.879 373.296 601.168C371.176 601.465 368.862 602.928 370.121 606.321L371.554 610.272C372.193 611.964 371.876 612.228 369.811 611.481L366.302 610.141C363.013 608.866 361.076 610.441 360.406 612.688C359.736 614.935 360.494 617.315 363.944 618.05L367.614 618.852C369.754 619.343 369.875 619.738 368.41 620.818L365.047 623.338C362.121 625.483 363.256 627.975 364.882 629.39C366.571 630.823 369.183 631.391 371.378 629.468L373.713 627.359C375.058 626.113 375.591 626.272 376.111 628.074L376.911 631.119C377.71 633.934 380.189 635.179 382.387 634.905C384.923 634.585 386.761 632.54 385.563 629.459L384.052 625.484C383.274 623.458 383.828 623.199 385.931 624.104L389.46 625.662C392.635 627.034 394.413 624.905 394.981 623.003Z" fill="#7E7E7E"/>
<path d="M391.206 615.706L391.204 615.705C390.629 615.609 390.147 615.497 389.779 615.355C389.439 615.224 389.065 615.018 388.91 614.646C388.734 614.224 388.922 613.828 389.143 613.544C389.37 613.251 389.728 612.947 390.178 612.622C390.178 612.622 390.178 612.622 390.178 612.622L393.618 610.126L393.618 610.126L393.621 610.124C394.86 609.239 395.326 608.222 395.318 607.289C395.31 606.339 394.809 605.374 393.913 604.615L393.913 604.614C392.398 603.329 389.922 603.035 387.912 604.775L385.581 606.881L385.581 606.881L385.572 606.889C385.206 607.203 384.87 607.454 384.558 607.611C384.248 607.767 383.894 607.864 383.536 607.757C383.174 607.649 382.936 607.372 382.77 607.069C382.605 606.767 382.477 606.375 382.363 605.918L381.566 602.882C380.85 600.367 378.657 599.488 376.638 599.752C375.647 599.892 374.678 600.297 374.101 600.992C373.553 601.653 373.283 602.669 373.864 604.236L373.866 604.24L375.298 608.188C375.459 608.615 375.578 608.997 375.614 609.314C375.647 609.617 375.619 610.032 375.262 610.287C374.955 610.507 374.556 610.483 374.234 610.427C373.879 610.365 373.438 610.229 372.916 610.041L372.916 610.041L372.908 610.038L369.399 608.697L369.397 608.696C367.849 608.097 366.699 608.194 365.88 608.626C365.051 609.062 364.468 609.887 364.16 610.92C363.852 611.954 363.888 612.964 364.342 613.783C364.792 614.593 365.7 615.304 367.323 615.65L367.326 615.651L370.995 616.452L370.995 616.452L371.001 616.453C371.542 616.578 371.986 616.702 372.318 616.843C372.619 616.971 372.968 617.168 373.105 617.522C373.264 617.931 373.06 618.295 372.866 618.531C372.663 618.778 372.354 619.036 371.983 619.308C371.983 619.309 371.982 619.309 371.982 619.31L368.622 621.828L368.622 621.828L368.618 621.831C367.265 622.822 366.933 623.819 367.029 624.67C367.131 625.567 367.723 626.438 368.482 627.099C370.037 628.417 372.364 628.896 374.321 627.183L376.651 625.079C376.996 624.76 377.318 624.502 377.621 624.34C377.925 624.177 378.277 624.075 378.639 624.183C378.997 624.29 379.24 624.565 379.414 624.865C379.589 625.167 379.733 625.562 379.867 626.025L379.867 626.025L379.87 626.037L380.668 629.076C381.396 631.633 383.628 632.744 385.599 632.498C386.757 632.352 387.705 631.819 388.235 631.028C388.754 630.252 388.923 629.147 388.372 627.729L388.371 627.725L386.86 623.753C386.86 623.752 386.86 623.752 386.86 623.752C386.661 623.234 386.529 622.785 386.498 622.417C386.468 622.059 386.527 621.625 386.907 621.369C387.24 621.145 387.664 621.177 388.02 621.253C388.404 621.335 388.869 621.504 389.404 621.733L389.404 621.733L389.408 621.735L392.933 623.292C392.934 623.292 392.934 623.293 392.935 623.293C394.387 623.92 395.445 623.726 396.199 623.231C396.983 622.717 397.515 621.826 397.776 620.949C398.04 620.063 398.084 619.023 397.71 618.164C397.35 617.338 396.571 616.599 395.011 616.335C395.01 616.335 395.01 616.335 395.01 616.335L391.206 615.706Z" stroke="#484848"/>
<path d="M316.981 359.003C317.552 357.085 317.23 354.33 313.818 353.753L310.012 353.123C307.753 352.743 307.435 352.208 309.196 350.939L312.637 348.442C315.326 346.52 314.923 343.806 312.961 342.144C311.272 340.71 308.516 340.394 306.306 342.312L303.971 344.421C302.548 345.644 302.015 345.485 301.573 343.706L300.774 340.662C299.975 337.846 297.498 336.879 295.296 337.168C293.176 337.465 290.862 338.928 292.121 342.321L293.554 346.272C294.193 347.964 293.876 348.228 291.811 347.481L288.302 346.141C285.013 344.866 283.076 346.442 282.406 348.688C281.736 350.935 282.494 353.315 285.944 354.051L289.614 354.852C291.754 355.343 291.875 355.738 290.41 356.818L287.047 359.338C284.121 361.483 285.256 363.975 286.882 365.39C288.571 366.823 291.183 367.391 293.378 365.468L295.713 363.359C297.058 362.113 297.591 362.272 298.111 364.075L298.911 367.119C299.71 369.934 302.189 371.179 304.387 370.905C306.923 370.585 308.761 368.54 307.563 365.459L306.052 361.484C305.274 359.458 305.828 359.199 307.931 360.104L311.46 361.662C314.635 363.034 316.413 360.905 316.981 359.003Z" fill="#7E7E7E"/>
<path d="M313.206 351.705L313.204 351.705C312.629 351.609 312.147 351.497 311.779 351.355C311.439 351.224 311.065 351.018 310.91 350.646C310.734 350.224 310.922 349.828 311.143 349.544C311.37 349.251 311.728 348.947 312.178 348.622C312.178 348.622 312.178 348.622 312.178 348.622L315.618 346.126L315.618 346.126L315.621 346.124C316.86 345.239 317.326 344.222 317.318 343.289C317.31 342.339 316.809 341.374 315.913 340.615L315.913 340.614C314.398 339.329 311.922 339.035 309.912 340.775L307.581 342.881L307.581 342.881L307.572 342.889C307.206 343.203 306.87 343.454 306.558 343.611C306.248 343.767 305.894 343.864 305.536 343.757C305.174 343.649 304.936 343.372 304.77 343.069C304.605 342.767 304.477 342.375 304.363 341.918L303.566 338.882C302.85 336.367 300.657 335.488 298.638 335.752C297.647 335.892 296.678 336.297 296.101 336.992C295.553 337.652 295.283 338.669 295.864 340.236L295.866 340.24L297.298 344.188C297.459 344.615 297.578 344.997 297.614 345.314C297.647 345.617 297.619 346.032 297.262 346.287C296.955 346.507 296.556 346.483 296.234 346.427C295.879 346.365 295.438 346.229 294.916 346.041L294.916 346.041L294.908 346.038L291.399 344.697L291.397 344.696C289.849 344.097 288.699 344.194 287.88 344.626C287.051 345.062 286.468 345.887 286.16 346.92C285.852 347.954 285.888 348.964 286.342 349.783C286.792 350.592 287.7 351.304 289.323 351.65L289.326 351.651L292.995 352.452L292.995 352.452L293.001 352.453C293.542 352.577 293.986 352.702 294.318 352.843C294.619 352.971 294.968 353.168 295.105 353.522C295.264 353.931 295.06 354.295 294.866 354.531C294.663 354.778 294.354 355.035 293.983 355.308C293.983 355.309 293.982 355.309 293.982 355.31L290.622 357.828L290.622 357.828L290.618 357.831C289.265 358.822 288.933 359.819 289.029 360.67C289.131 361.567 289.723 362.438 290.482 363.099C292.037 364.417 294.364 364.896 296.321 363.183L298.651 361.079C298.996 360.76 299.318 360.502 299.621 360.34C299.925 360.177 300.277 360.075 300.639 360.183C300.997 360.29 301.24 360.565 301.414 360.865C301.589 361.167 301.733 361.562 301.867 362.025L301.867 362.025L301.87 362.037L302.668 365.076C303.396 367.633 305.628 368.744 307.599 368.498C308.757 368.352 309.705 367.819 310.235 367.028C310.754 366.252 310.923 365.147 310.372 363.729L310.371 363.725L308.86 359.753C308.86 359.752 308.86 359.752 308.86 359.752C308.661 359.234 308.529 358.785 308.498 358.417C308.468 358.059 308.527 357.625 308.907 357.369C309.24 357.145 309.664 357.177 310.02 357.253C310.404 357.334 310.869 357.504 311.404 357.733L311.404 357.733L311.408 357.735L314.933 359.292C314.934 359.292 314.934 359.293 314.935 359.293C316.387 359.92 317.445 359.726 318.199 359.231C318.983 358.716 319.515 357.826 319.776 356.949C320.04 356.063 320.084 355.023 319.71 354.164C319.35 353.338 318.571 352.599 317.011 352.335C317.01 352.335 317.01 352.335 317.01 352.335L313.206 351.705Z" stroke="#484848"/>
<path d="M391.826 51.2026C393.344 54.7958 392.033 57.6395 388.069 59.3149L371.6 66.2744C367.635 67.9498 364.69 66.9226 363.166 63.314L362.886 62.6508C361.368 59.0575 362.679 56.2138 366.643 54.5385L383.112 47.5789C387.077 45.9036 390.022 46.9307 391.546 50.5394L391.826 51.2026ZM397.597 64.8662C399.114 68.4595 397.804 71.3032 393.839 72.9785L377.37 79.9381C373.406 81.6134 370.461 80.5863 368.937 76.9776L368.657 76.3145C367.139 72.7212 368.449 69.8775 372.414 68.2022L388.883 61.2426C392.847 59.5673 395.792 60.5944 397.317 64.2031L397.597 64.8662Z" fill="#7E7E7E"/>
<path d="M387.818 48.3942C388.537 50.0985 388.561 51.5562 388.002 52.7651C387.438 53.9836 386.24 55.0427 384.326 55.8513L367.857 62.8108C365.943 63.6197 364.35 63.7441 363.085 63.3008C361.831 62.8611 360.802 61.8289 360.079 60.1163L359.799 59.4532C359.079 57.7488 359.056 56.2912 359.615 55.0823C360.178 53.8638 361.377 52.8046 363.29 51.9961L379.759 45.0365C381.673 44.2276 383.266 44.1032 384.531 44.5466C385.786 44.9863 386.814 46.0185 387.538 47.731L387.818 48.3942ZM393.588 62.0578C394.308 63.7622 394.331 65.2198 393.772 66.4287C393.208 67.6472 392.01 68.7064 390.097 69.5149L373.628 76.4745C371.714 77.2834 370.121 77.4078 368.856 76.9644C367.601 76.5248 366.573 75.4925 365.849 73.78L365.569 73.1168C364.849 71.4125 364.826 69.9549 365.385 68.746C365.949 67.5275 367.147 66.4683 369.061 65.6598L385.529 58.7002C387.444 57.8913 389.037 57.7669 390.302 58.2103C391.556 58.6499 392.585 59.6822 393.308 61.3947L393.588 62.0578Z" stroke="#484848"/>
<path d="M381.976 795.72C383.493 799.313 382.183 802.157 378.219 803.832L361.75 810.792C357.785 812.467 354.84 811.44 353.316 807.831L353.036 807.168C351.518 803.575 352.829 800.731 356.793 799.056L373.262 792.096C377.227 790.421 380.172 791.448 381.696 795.057L381.976 795.72ZM387.746 809.384C389.264 812.977 387.954 815.821 383.989 817.496L367.52 824.455C363.556 826.131 360.611 825.104 359.087 821.495L358.806 820.832C357.289 817.239 358.599 814.395 362.564 812.72L379.033 805.76C382.997 804.085 385.942 805.112 387.466 808.72L387.746 809.384Z" fill="#7E7E7E"/>
<path d="M377.968 792.912C378.687 794.616 378.711 796.074 378.151 797.282C377.588 798.501 376.389 799.56 374.476 800.369L358.007 807.328C356.093 808.137 354.5 808.262 353.235 807.818C351.981 807.379 350.952 806.346 350.229 804.634L349.949 803.971C349.229 802.266 349.206 800.809 349.765 799.6C350.328 798.381 351.527 797.322 353.44 796.513L369.909 789.554C371.823 788.745 373.416 788.621 374.681 789.064C375.936 789.504 376.964 790.536 377.687 792.248L377.968 792.912ZM383.738 806.575C384.458 808.28 384.481 809.737 383.922 810.946C383.358 812.165 382.16 813.224 380.247 814.032L363.778 820.992C361.864 821.801 360.271 821.925 359.006 821.482C357.751 821.042 356.722 820.01 355.999 818.297L355.719 817.634C354.999 815.93 354.976 814.472 355.535 813.263C356.099 812.045 357.297 810.986 359.21 810.177L375.679 803.218C377.594 802.409 379.186 802.284 380.451 802.728C381.706 803.167 382.735 804.2 383.458 805.912L383.738 806.575Z" stroke="#484848"/>
<path d="M385.826 405.203C387.344 408.796 386.033 411.64 382.069 413.315L365.6 420.274C361.635 421.95 358.69 420.923 357.166 417.314L356.886 416.651C355.368 413.058 356.679 410.214 360.643 408.538L377.112 401.579C381.077 399.904 384.022 400.931 385.546 404.539L385.826 405.203ZM391.597 418.866C393.114 422.459 391.804 425.303 387.839 426.979L371.37 433.938C367.406 435.613 364.461 434.586 362.937 430.978L362.657 430.314C361.139 426.721 362.449 423.877 366.414 422.202L382.883 415.243C386.847 413.567 389.792 414.594 391.317 418.203L391.597 418.866Z" fill="#7E7E7E"/>
<path d="M381.818 402.394C382.537 404.099 382.561 405.556 382.002 406.765C381.438 407.984 380.24 409.043 378.326 409.851L361.857 416.811C359.943 417.62 358.35 417.744 357.085 417.301C355.831 416.861 354.802 415.829 354.079 414.116L353.799 413.453C353.079 411.749 353.056 410.291 353.615 409.082C354.178 407.864 355.377 406.805 357.29 405.996L373.759 399.037C375.673 398.228 377.266 398.103 378.531 398.547C379.786 398.986 380.814 400.019 381.538 401.731L381.818 402.394ZM387.588 416.058C388.308 417.762 388.331 419.22 387.772 420.429C387.208 421.647 386.01 422.706 384.097 423.515L367.628 430.474C365.714 431.283 364.121 431.408 362.856 430.964C361.601 430.525 360.573 429.492 359.849 427.78L359.569 427.117C358.849 425.413 358.826 423.955 359.385 422.746C359.949 421.527 361.147 420.468 363.061 419.66L379.529 412.7C381.444 411.891 383.037 411.767 384.302 412.21C385.556 412.65 386.585 413.682 387.308 415.395L387.588 416.058Z" stroke="#484848"/>
<path d="M6.74426 217.503C5.22673 221.096 6.53719 223.94 10.5016 225.615L26.9705 232.575C30.935 234.25 33.8802 233.223 35.4042 229.614L35.6843 228.951C37.2018 225.358 35.8914 222.514 31.9269 220.839L15.458 213.879C11.4936 212.204 8.54838 213.231 7.02434 216.84L6.74426 217.503ZM0.973746 231.166C-0.543785 234.76 0.766673 237.603 4.73112 239.279L21.2 246.238C25.1644 247.914 28.1097 246.886 29.6337 243.278L29.9138 242.615C31.4313 239.021 30.1208 236.178 26.1564 234.502L9.68751 227.543C5.72306 225.867 2.77784 226.895 1.2538 230.503L0.973746 231.166Z" fill="#7E7E7E"/>
<path d="M10.7527 214.694C10.0329 216.399 10.0096 217.856 10.5688 219.065C11.1324 220.284 12.3307 221.343 14.244 222.151L30.7129 229.111C32.6271 229.92 34.2199 230.044 35.485 229.601C36.7396 229.161 37.7683 228.129 38.4915 226.417L38.7716 225.753C39.4914 224.049 39.5146 222.591 38.9555 221.382C38.3918 220.164 37.1935 219.105 35.2803 218.296L18.8114 211.337C16.8972 210.528 15.3043 210.403 14.0393 210.847C12.7846 211.286 11.756 212.319 11.0328 214.031L10.7527 214.694ZM4.98216 228.358C4.26238 230.062 4.23912 231.52 4.79829 232.729C5.36193 233.947 6.56021 235.007 8.47349 235.815L24.9424 242.775C26.8565 243.584 28.4494 243.708 29.7145 243.265C30.9691 242.825 31.9977 241.793 32.721 240.08L33.001 239.417C33.7208 237.713 33.7441 236.255 33.1849 235.046C32.6213 233.828 31.423 232.768 29.5097 231.96L13.0408 225C11.1267 224.191 9.5338 224.067 8.26875 224.51C7.01407 224.95 5.98546 225.982 5.26222 227.695L4.98216 228.358Z" stroke="#484848"/>
<path d="M6.74426 605.984C5.22673 609.577 6.53719 612.421 10.5016 614.096L26.9705 621.056C30.935 622.731 33.8802 621.704 35.4042 618.095L35.6843 617.432C37.2018 613.839 35.8914 610.995 31.9269 609.32L15.458 602.36C11.4936 600.685 8.54838 601.712 7.02434 605.321L6.74426 605.984ZM0.973746 619.647C-0.543785 623.241 0.766673 626.084 4.73112 627.76L21.2 634.719C25.1644 636.395 28.1097 635.368 29.6337 631.759L29.9138 631.096C31.4313 627.502 30.1208 624.659 26.1564 622.983L9.68751 616.024C5.72306 614.349 2.77784 615.376 1.2538 618.984L0.973746 619.647Z" fill="#7E7E7E"/>
<path d="M10.7527 603.175C10.0329 604.88 10.0096 606.337 10.5688 607.546C11.1324 608.765 12.3307 609.824 14.244 610.633L30.7129 617.592C32.6271 618.401 34.2199 618.525 35.485 618.082C36.7396 617.642 37.7683 616.61 38.4915 614.898L38.7716 614.234C39.4914 612.53 39.5146 611.072 38.9555 609.864C38.3918 608.645 37.1935 607.586 35.2803 606.777L18.8114 599.818C16.8972 599.009 15.3043 598.884 14.0393 599.328C12.7846 599.768 11.756 600.8 11.0328 602.512L10.7527 603.175ZM4.98216 616.839C4.26238 618.543 4.23912 620.001 4.79829 621.21C5.36193 622.428 6.56021 623.488 8.47349 624.296L24.9424 631.256C26.8565 632.065 28.4494 632.189 29.7145 631.746C30.9691 631.306 31.9977 630.274 32.721 628.561L33.001 627.898C33.7208 626.194 33.7441 624.736 33.1849 623.527C32.6213 622.309 31.423 621.25 29.5097 620.441L13.0408 613.481C11.1267 612.673 9.5338 612.548 8.26875 612.992C7.01407 613.431 5.98546 614.463 5.26222 616.176L4.98216 616.839Z" stroke="#484848"/>
<path d="M384.342 146.214C385.188 150.181 383.314 152.806 378.998 153.726L378.464 153.84C377.737 153.995 377.358 154.514 377.502 155.191L377.749 156.352C378.595 160.319 376.724 162.96 372.408 163.88L371.147 164.149C366.832 165.069 364.047 163.421 363.201 159.455L362.954 158.294C362.81 157.616 362.252 157.297 361.524 157.452L361.055 157.552C356.74 158.473 353.955 156.824 353.113 152.874L352.958 152.148C352.113 148.182 353.987 145.557 358.303 144.636L358.497 144.595C359.224 144.44 359.6 143.905 359.459 143.243L359.212 142.082C358.366 138.116 360.24 135.491 364.556 134.571L366.011 134.26C370.327 133.34 373.108 134.972 373.954 138.939L374.201 140.1C374.345 140.777 374.904 141.096 375.631 140.941L376.229 140.813C380.545 139.893 383.326 141.525 384.172 145.492L384.326 146.217L384.342 146.214Z" fill="#5DB6E7"/>
<path d="M380.289 142.773L380.394 143.262L380.397 143.261C380.658 144.918 380.379 146.25 379.65 147.273C378.845 148.404 377.43 149.243 375.346 149.688L374.812 149.802C374.357 149.899 373.958 150.122 373.702 150.479C373.442 150.842 373.368 151.289 373.465 151.747L373.713 152.907C374.115 154.794 373.858 156.293 373.059 157.42C372.254 158.555 370.839 159.398 368.756 159.842L367.495 160.111C365.412 160.555 363.777 160.363 362.58 159.655C361.39 158.952 360.545 157.688 360.143 155.801L359.895 154.64C359.798 154.183 359.548 153.805 359.162 153.58C358.782 153.358 358.328 153.317 357.872 153.414L357.403 153.514C355.32 153.958 353.685 153.766 352.488 153.06C351.298 152.359 350.454 151.099 350.054 149.221L349.899 148.495C349.497 146.608 349.755 145.114 350.554 143.991C351.36 142.86 352.775 142.021 354.859 141.576L355.053 141.535C355.514 141.437 355.91 141.207 356.164 140.849C356.421 140.487 356.497 140.042 356.4 139.59L356.153 138.429C355.751 136.542 356.008 135.048 356.808 133.925C357.613 132.794 359.029 131.955 361.113 131.511L362.568 131.2C364.652 130.756 366.286 130.945 367.482 131.649C368.67 132.348 369.515 133.607 369.917 135.494L370.164 136.655C370.262 137.112 370.511 137.49 370.897 137.715C371.277 137.937 371.732 137.978 372.187 137.881L372.785 137.753C374.869 137.309 376.504 137.498 377.7 138.202C378.888 138.901 379.733 140.16 380.135 142.047L380.289 142.773Z" stroke="#055D8D"/>
<path d="M136.146 89.8119C135.95 93.863 133.468 95.9219 129.06 95.7092L128.515 95.6829C127.772 95.647 127.273 96.0521 127.239 96.7437L127.182 97.9294C126.986 101.98 124.503 104.056 120.095 103.843L118.807 103.781C114.4 103.568 112.128 101.263 112.324 97.2122L112.382 96.0265C112.415 95.3349 111.957 94.8837 111.214 94.8478L110.736 94.8247C106.328 94.6119 104.057 92.307 104.252 88.2725L104.288 87.5314C104.484 83.4804 106.966 81.4214 111.374 81.6342L111.572 81.6437C112.315 81.6796 112.815 81.2581 112.848 80.5829L112.905 79.3972C113.101 75.3462 115.584 73.2873 119.991 73.5L121.477 73.5717C125.885 73.7845 128.157 76.0729 127.961 80.124L127.904 81.3096C127.87 82.0013 128.328 82.4525 129.071 82.4884L129.682 82.5179C134.09 82.7306 136.362 85.0191 136.166 89.0701L136.13 89.8111L136.146 89.8119Z" fill="#5DB6E7"/>
<path d="M133.107 85.4493L133.083 85.9487L133.086 85.9489C132.915 87.6173 132.306 88.8339 131.34 89.6373C130.272 90.525 128.689 90.9748 126.561 90.8721L126.016 90.8458C125.551 90.8233 125.109 90.9373 124.77 91.2172C124.425 91.5018 124.239 91.915 124.217 92.3819L124.159 93.5675C124.066 95.4946 123.435 96.878 122.374 97.7636C121.306 98.6552 119.723 99.1086 117.596 99.0059L116.308 98.9438C114.181 98.8411 112.649 98.2373 111.672 97.247C110.701 96.2633 110.207 94.8257 110.3 92.8986L110.358 91.7129C110.38 91.2461 110.235 90.8169 109.92 90.5005C109.609 90.1891 109.18 90.0331 108.715 90.0107L108.236 89.9876C106.109 89.8849 104.577 89.2811 103.6 88.2925C102.629 87.3107 102.135 85.8771 102.228 83.9589L102.264 83.2178C102.357 81.2908 102.988 79.912 104.048 79.0306C105.115 78.1429 106.698 77.6931 108.826 77.7959L109.024 77.8054C109.495 77.8281 109.936 77.7073 110.273 77.4261C110.614 77.1414 110.801 76.7306 110.824 76.2693L110.881 75.0836C110.974 73.1567 111.605 71.7779 112.665 70.8964C113.733 70.0088 115.315 69.559 117.444 69.6617L118.93 69.7334C121.058 69.8362 122.59 70.4363 123.567 71.4226C124.537 72.4021 125.031 73.8352 124.938 75.7621L124.881 76.9478C124.858 77.4147 125.003 77.8438 125.319 78.1603C125.629 78.4716 126.058 78.6276 126.523 78.6501L127.134 78.6796C129.263 78.7823 130.795 79.3824 131.772 80.3688C132.742 81.3482 133.236 82.7813 133.143 84.7083L133.107 85.4493Z" stroke="#055D8D"/>
<path d="M315.011 876.722C315.856 880.689 313.982 883.314 309.667 884.234L309.133 884.348C308.406 884.503 308.026 885.022 308.171 885.7L308.418 886.861C309.263 890.827 307.393 893.468 303.077 894.389L301.816 894.657C297.5 895.578 294.716 893.93 293.87 889.963L293.623 888.802C293.478 888.125 292.92 887.805 292.193 887.961L291.724 888.06C287.408 888.981 284.624 887.333 283.782 883.382L283.627 882.656C282.782 878.69 284.656 876.065 288.971 875.145L289.165 875.103C289.893 874.948 290.269 874.413 290.128 873.752L289.881 872.591C289.035 868.624 290.909 865.999 295.225 865.079L296.68 864.769C300.996 863.848 303.777 865.48 304.622 869.447L304.87 870.608C305.014 871.285 305.572 871.604 306.3 871.449L306.898 871.322C311.214 870.401 313.995 872.033 314.84 876L314.995 876.726L315.011 876.722Z" fill="#5DB6E7"/>
<path d="M310.958 873.281L311.062 873.77L311.066 873.769C311.327 875.426 311.048 876.758 310.319 877.782C309.514 878.913 308.099 879.752 306.014 880.196L305.481 880.31C305.025 880.407 304.627 880.63 304.371 880.988C304.11 881.351 304.036 881.798 304.134 882.255L304.381 883.416C304.783 885.303 304.527 886.801 303.727 887.929C302.923 889.064 301.508 889.906 299.425 890.351L298.164 890.619C296.081 891.064 294.446 890.871 293.248 890.163C292.059 889.46 291.213 888.197 290.811 886.31L290.564 885.149C290.466 884.692 290.217 884.314 289.831 884.088C289.451 883.867 288.997 883.825 288.541 883.923L288.072 884.022C285.989 884.467 284.354 884.274 283.156 883.568C281.967 882.867 281.123 881.607 280.723 879.729L280.568 879.003C280.166 877.116 280.423 875.622 281.223 874.499C282.029 873.368 283.444 872.529 285.528 872.085L285.722 872.043C286.182 871.945 286.578 871.715 286.832 871.358C287.089 870.995 287.165 870.55 287.069 870.098L286.822 868.937C286.42 867.051 286.677 865.556 287.477 864.433C288.282 863.302 289.697 862.463 291.781 862.019L293.236 861.709C295.32 861.264 296.955 861.453 298.151 862.157C299.339 862.856 300.183 864.115 300.586 866.002L300.833 867.163C300.93 867.62 301.18 867.998 301.566 868.224C301.946 868.445 302.4 868.487 302.856 868.389L303.454 868.262C305.538 867.817 307.173 868.006 308.369 868.71C309.557 869.409 310.401 870.669 310.803 872.555L310.958 873.281Z" stroke="#055D8D"/>
<path d="M375.011 542.722C375.856 546.689 373.982 549.314 369.667 550.234L369.133 550.348C368.406 550.503 368.026 551.022 368.171 551.7L368.418 552.861C369.263 556.827 367.393 559.468 363.077 560.389L361.816 560.657C357.5 561.578 354.716 559.93 353.87 555.963L353.623 554.802C353.478 554.125 352.92 553.805 352.193 553.961L351.724 554.061C347.408 554.981 344.624 553.333 343.782 549.382L343.627 548.657C342.782 544.69 344.656 542.065 348.971 541.145L349.165 541.103C349.893 540.948 350.269 540.413 350.128 539.752L349.881 538.591C349.035 534.624 350.909 531.999 355.225 531.079L356.68 530.769C360.996 529.848 363.777 531.48 364.622 535.447L364.87 536.608C365.014 537.285 365.572 537.604 366.3 537.449L366.898 537.322C371.214 536.401 373.995 538.034 374.84 542L374.995 542.726L375.011 542.722Z" fill="#5DB6E7"/>
<path d="M370.958 539.281L371.062 539.77L371.066 539.769C371.327 541.426 371.048 542.758 370.319 543.782C369.514 544.913 368.099 545.752 366.014 546.196L365.481 546.31C365.025 546.407 364.627 546.63 364.371 546.988C364.11 547.351 364.036 547.798 364.134 548.255L364.381 549.416C364.783 551.303 364.527 552.801 363.727 553.929C362.923 555.063 361.508 555.906 359.425 556.35L358.164 556.619C356.081 557.064 354.446 556.871 353.248 556.163C352.059 555.46 351.213 554.197 350.811 552.31L350.564 551.149C350.466 550.691 350.217 550.314 349.831 550.088C349.451 549.867 348.997 549.825 348.541 549.923L348.072 550.022C345.989 550.467 344.354 550.274 343.156 549.568C341.967 548.867 341.123 547.607 340.723 545.729L340.568 545.003C340.166 543.116 340.423 541.622 341.223 540.499C342.029 539.368 343.444 538.529 345.528 538.085L345.722 538.043C346.182 537.945 346.578 537.715 346.832 537.357C347.089 536.995 347.165 536.55 347.069 536.098L346.822 534.937C346.42 533.051 346.677 531.556 347.477 530.433C348.282 529.302 349.697 528.463 351.781 528.019L353.236 527.709C355.32 527.264 356.955 527.453 358.151 528.157C359.339 528.856 360.183 530.115 360.586 532.002L360.833 533.163C360.93 533.62 361.18 533.998 361.566 534.224C361.946 534.445 362.4 534.487 362.856 534.389L363.454 534.262C365.538 533.817 367.173 534.006 368.369 534.71C369.557 535.409 370.401 536.669 370.803 538.555L370.958 539.281Z" stroke="#055D8D"/>
<path d="M-5.65072 341.956C-6.4961 345.923 -4.62206 348.548 -0.306189 349.468L0.227233 349.582C0.954627 349.737 1.33405 350.256 1.18971 350.933L0.942282 352.094C0.0968991 356.061 1.96751 358.702 6.28338 359.622L7.5442 359.891C11.8601 360.812 14.6448 359.163 15.4902 355.197L15.7376 354.036C15.8819 353.359 16.44 353.039 17.1674 353.194L17.6362 353.294C21.9521 354.215 24.7368 352.567 25.5787 348.616L25.7334 347.89C26.5788 343.924 24.7047 341.299 20.3889 340.378L20.1949 340.337C19.4675 340.182 19.0915 339.647 19.2324 338.986L19.4798 337.825C20.3252 333.858 18.4512 331.233 14.1353 330.313L12.6805 330.002C8.36464 329.082 5.58336 330.714 4.73798 334.681L4.49055 335.842C4.34621 336.519 3.7881 336.838 3.06071 336.683L2.46263 336.556C-1.85325 335.635 -4.63453 337.267 -5.47991 341.234L-5.63456 341.96L-5.65072 341.956Z" fill="#5DB6E7"/>
<path d="M-1.5977 338.515L-1.70192 339.004L-1.70522 339.003C-1.96618 340.66 -1.68775 341.992 -0.958818 343.015C-0.153436 344.146 1.26183 344.986 3.34588 345.43L3.87931 345.544C4.33497 345.641 4.73318 345.864 4.98948 346.221C5.25001 346.585 5.32399 347.031 5.22657 347.489L4.97914 348.65C4.57699 350.536 4.83358 352.035 5.63303 353.162C6.43785 354.297 7.85227 355.14 9.93545 355.584L11.1963 355.853C13.2794 356.297 14.9145 356.105 16.112 355.397C17.3016 354.694 18.1469 353.43 18.549 351.543L18.7964 350.382C18.8939 349.925 19.1436 349.547 19.5296 349.322C19.9093 349.1 20.3638 349.059 20.8195 349.156L21.2883 349.256C23.3714 349.7 25.0067 349.508 26.204 348.802C27.3932 348.101 28.2373 346.841 28.6376 344.963L28.7922 344.237C29.1944 342.35 28.9369 340.856 28.1372 339.733C27.3318 338.602 25.9165 337.763 23.8325 337.318L23.6385 337.277C23.1781 337.179 22.782 336.949 22.5281 336.591C22.2711 336.229 22.195 335.784 22.2913 335.332L22.5387 334.171C22.9408 332.284 22.6833 330.79 21.8836 329.667C21.0783 328.536 19.663 327.697 17.5789 327.253L16.1241 326.942C14.0401 326.498 12.4057 326.687 11.2093 327.391C10.0212 328.09 9.17696 329.349 8.77483 331.236L8.5274 332.397C8.42998 332.854 8.18021 333.232 7.79425 333.457C7.41455 333.679 6.96 333.72 6.50434 333.623L5.90626 333.496C3.8222 333.051 2.18784 333.24 0.991376 333.944C-0.196655 334.643 -1.04092 335.902 -1.44306 337.789L-1.5977 338.515Z" stroke="#055D8D"/>
<path d="M-5.65072 730.437C-6.4961 734.404 -4.62206 737.029 -0.306189 737.949L0.227233 738.063C0.954627 738.218 1.33405 738.737 1.18971 739.415L0.942282 740.576C0.0968991 744.542 1.96751 747.183 6.28338 748.104L7.5442 748.372C11.8601 749.293 14.6448 747.645 15.4902 743.678L15.7376 742.517C15.8819 741.84 16.44 741.52 17.1674 741.676L17.6362 741.776C21.9521 742.696 24.7368 741.048 25.5787 737.097L25.7334 736.372C26.5788 732.405 24.7047 729.78 20.3889 728.86L20.1949 728.818C19.4675 728.663 19.0915 728.128 19.2324 727.467L19.4798 726.306C20.3252 722.339 18.4512 719.714 14.1353 718.794L12.6805 718.484C8.36464 717.563 5.58336 719.195 4.73798 723.162L4.49055 724.323C4.34621 725 3.7881 725.319 3.06071 725.164L2.46263 725.037C-1.85325 724.116 -4.63453 725.748 -5.47991 729.715L-5.63456 730.441L-5.65072 730.437Z" fill="#5DB6E7"/>
<path d="M-1.5977 726.996L-1.70192 727.485L-1.70522 727.484C-1.96618 729.141 -1.68775 730.473 -0.958818 731.497C-0.153436 732.628 1.26183 733.467 3.34588 733.911L3.87931 734.025C4.33497 734.122 4.73318 734.345 4.98948 734.703C5.25001 735.066 5.32399 735.513 5.22657 735.97L4.97914 737.131C4.57699 739.018 4.83358 740.516 5.63303 741.644C6.43785 742.778 7.85227 743.621 9.93545 744.065L11.1963 744.334C13.2794 744.779 14.9145 744.586 16.112 743.878C17.3016 743.175 18.1469 741.912 18.549 740.025L18.7964 738.864C18.8939 738.406 19.1436 738.029 19.5296 737.803C19.9093 737.582 20.3638 737.54 20.8195 737.637L21.2883 737.737C23.3714 738.182 25.0067 737.989 26.204 737.283C27.3932 736.582 28.2373 735.322 28.6376 733.444L28.7922 732.718C29.1944 730.831 28.9369 729.337 28.1372 728.214C27.3318 727.083 25.9165 726.244 23.8325 725.8L23.6385 725.758C23.1781 725.66 22.782 725.43 22.5281 725.072C22.2711 724.71 22.195 724.265 22.2913 723.813L22.5387 722.652C22.9408 720.766 22.6833 719.271 21.8836 718.148C21.0783 717.017 19.663 716.178 17.5789 715.734L16.1241 715.424C14.0401 714.979 12.4057 715.168 11.2093 715.872C10.0212 716.571 9.17696 717.83 8.77483 719.717L8.5274 720.878C8.42998 721.335 8.18021 721.713 7.79425 721.939C7.41455 722.16 6.96 722.201 6.50434 722.104L5.90626 721.977C3.8222 721.532 2.18784 721.721 0.991376 722.425C-0.196655 723.124 -1.04092 724.384 -1.44306 726.27L-1.5977 726.996Z" stroke="#055D8D"/>
<path d="M37.4283 73.4468C45.4949 71.2847 52.8763 78.6684 50.7149 86.7375V86.7375C48.5534 94.8066 38.4702 97.5092 32.5651 91.6022V91.6022C26.6599 85.6953 29.3617 75.6089 37.4283 73.4468V73.4468Z" fill="#D95D5D"/>
<path d="M28.8248 90.4296C23.1918 84.7948 25.7691 75.1733 33.4639 73.1108C41.1588 71.0483 48.2001 78.0918 46.1382 85.789C44.0764 93.4863 34.4578 96.0644 28.8248 90.4296Z" stroke="#D34422"/>
<path d="M37.4283 841.946C45.4949 839.784 52.8763 847.168 50.7149 855.237V855.237C48.5534 863.306 38.4702 866.008 32.5651 860.101V860.101C26.6599 854.195 29.3617 844.108 37.4283 841.946V841.946Z" fill="#D95D5D"/>
<path d="M28.8248 858.929C23.1918 853.294 25.7691 843.673 33.4639 841.61C41.1588 839.548 48.2001 846.591 46.1382 854.288C44.0764 861.986 34.4578 864.564 28.8248 858.929Z" stroke="#D34422"/>
<path d="M69.9701 465.031C78.0366 462.868 85.4181 470.252 83.2566 478.321V478.321C81.0952 486.39 71.012 489.093 65.1068 483.186V483.186C59.2017 477.279 61.9035 467.193 69.9701 465.031V465.031Z" fill="#D95D5D"/>
<path d="M61.3666 482.013C55.7336 476.379 58.3108 466.757 66.0057 464.695C73.7005 462.632 80.7418 469.676 78.68 477.373C76.6182 485.07 66.9996 487.648 61.3666 482.013Z" stroke="#D34422"/>
<path d="M355.533 271.1C347.467 268.938 340.085 276.322 342.247 284.391V284.391C344.408 292.46 354.491 295.162 360.397 289.255V289.255C366.302 283.348 363.6 273.262 355.533 271.1V271.1Z" fill="#D95D5D"/>
<path d="M364.137 288.083C369.77 282.448 367.193 272.826 359.498 270.764C351.803 268.701 344.762 275.745 346.823 283.442C348.885 291.139 358.504 293.718 364.137 288.083Z" stroke="#D34422"/>
<path d="M355.533 659.581C347.467 657.419 340.085 664.803 342.247 672.872V672.872C344.408 680.941 354.491 683.643 360.397 677.736V677.736C366.302 671.829 363.6 661.743 355.533 659.581V659.581Z" fill="#D95D5D"/>
<path d="M364.137 676.564C369.77 670.929 367.193 661.307 359.498 659.245C351.803 657.183 344.762 664.226 346.823 671.923C348.885 679.62 358.504 682.199 364.137 676.564Z" stroke="#D34422"/>
<path d="M263.573 82.3242C261.412 74.2551 268.793 66.8714 276.86 69.0335V69.0335C284.926 71.1956 287.628 81.282 281.723 87.189V87.189C275.818 93.0959 265.735 90.3933 263.573 82.3242V82.3242Z" fill="#D95D5D"/>
<path d="M280.002 83.0133C274.369 88.6481 264.75 86.07 262.688 78.3728C260.626 70.6755 267.668 63.6321 275.362 65.6945C283.057 67.757 285.635 77.3786 280.002 83.0133Z" stroke="#D34422"/>
<path d="M347.432 867.522C345.271 859.453 352.652 852.069 360.719 854.231V854.231C368.785 856.393 371.487 866.48 365.582 872.387V872.387C359.677 878.294 349.594 875.591 347.432 867.522V867.522Z" fill="#D95D5D"/>
<path d="M363.591 868.211C357.958 873.846 348.34 871.268 346.278 863.57C344.216 855.873 351.257 848.83 358.952 850.892C366.647 852.955 369.224 862.576 363.591 868.211Z" stroke="#D34422"/>
<path d="M347.432 487.504C345.271 479.435 352.652 472.051 360.719 474.213V474.213C368.785 476.375 371.487 486.461 365.582 492.368V492.368C359.677 498.275 349.594 495.573 347.432 487.504V487.504Z" fill="#D95D5D"/>
<path d="M363.591 488.193C357.958 493.828 348.34 491.249 346.278 483.552C344.216 475.855 351.257 468.812 358.952 470.874C366.647 472.936 369.224 482.558 363.591 488.193Z" stroke="#D34422"/>
<path d="M47.713 292.308C49.8744 284.239 42.493 276.855 34.4264 279.017V279.017C26.3598 281.179 23.6581 291.265 29.5632 297.172V297.172C35.4683 303.079 45.5516 300.377 47.713 292.308V292.308Z" fill="#D95D5D"/>
<path d="M31.5541 292.997C37.1872 298.631 46.8057 296.053 48.8675 288.356C50.9294 280.659 43.8881 273.615 36.1933 275.678C28.4984 277.74 25.9211 287.362 31.5541 292.997Z" stroke="#D34422"/>
<path d="M47.713 680.789C49.8744 672.72 42.493 665.336 34.4264 667.498V667.498C26.3598 669.66 23.6581 679.747 29.5632 685.654V685.654C35.4683 691.561 45.5516 688.858 47.713 680.789V680.789Z" fill="#D95D5D"/>
<path d="M31.5541 681.478C37.1872 687.113 46.8057 684.535 48.8675 676.837C50.9294 669.14 43.8881 662.097 36.1933 664.159C28.4984 666.222 25.9211 675.843 31.5541 681.478Z" stroke="#D34422"/>
<ellipse cx="218.601" cy="9.69756" rx="12.6906" ry="12.6946" fill="#D95D5D"/>
<path d="M228.881 6.69457C228.881 13.4296 223.423 18.8891 216.691 18.8891C209.958 18.8891 204.5 13.4296 204.5 6.69457C204.5 -0.0404515 209.958 -5.5 216.691 -5.5C223.423 -5.5 228.881 -0.0404515 228.881 6.69457Z" stroke="#D34422"/>
<ellipse cx="299.601" cy="751.698" rx="12.6906" ry="12.6946" fill="#D95D5D"/>
<path d="M309.881 748.695C309.881 755.43 304.423 760.889 297.691 760.889C290.958 760.889 285.5 755.43 285.5 748.695C285.5 741.96 290.958 736.5 297.691 736.5C304.423 736.5 309.881 741.96 309.881 748.695Z" stroke="#D34422"/>
<ellipse cx="229.601" cy="411.698" rx="12.6906" ry="12.6946" fill="#D95D5D"/>
<path d="M239.881 408.695C239.881 415.43 234.423 420.889 227.691 420.889C220.958 420.889 215.5 415.43 215.5 408.695C215.5 401.96 220.958 396.5 227.691 396.5C234.423 396.5 239.881 401.96 239.881 408.695Z" stroke="#D34422"/>
<ellipse cx="11.9292" cy="11.9329" rx="11.9292" ry="11.9329" transform="matrix(-1 0 0 1 193.858 192.823)" fill="#D95D5D"/>
<path d="M172.296 201.933C172.296 208.247 177.413 213.366 183.725 213.366C190.037 213.366 195.154 208.247 195.154 201.933C195.154 195.619 190.037 190.5 183.725 190.5C177.413 190.5 172.296 195.619 172.296 201.933Z" stroke="#D34422"/>
<ellipse cx="11.9292" cy="11.9329" rx="11.9292" ry="11.9329" transform="matrix(-1 0 0 1 196.858 630.823)" fill="#D95D5D"/>
<path d="M175.296 639.933C175.296 646.247 180.413 651.366 186.725 651.366C193.037 651.366 198.154 646.247 198.154 639.933C198.154 633.619 193.037 628.5 186.725 628.5C180.413 628.5 175.296 633.619 175.296 639.933Z" stroke="#D34422"/>
<ellipse cx="292.234" cy="146.784" rx="7.77812" ry="7.78054" fill="#7E7E7E"/>
<path d="M297.056 143.781C297.056 147.802 293.798 151.061 289.778 151.061C285.759 151.061 282.5 147.802 282.5 143.781C282.5 139.759 285.759 136.5 289.778 136.5C293.798 136.5 297.056 139.759 297.056 143.781Z" stroke="#484848"/>
<ellipse cx="221.234" cy="880.784" rx="7.77812" ry="7.78054" fill="#7E7E7E"/>
<path d="M226.056 877.781C226.056 881.802 222.798 885.061 218.778 885.061C214.759 885.061 211.5 881.802 211.5 877.781C211.5 873.759 214.759 870.5 218.778 870.5C222.798 870.5 226.056 873.759 226.056 877.781Z" stroke="#484848"/>
<ellipse cx="296.234" cy="517.784" rx="7.77812" ry="7.78054" fill="#7E7E7E"/>
<path d="M301.056 514.781C301.056 518.802 297.798 522.061 293.778 522.061C289.759 522.061 286.5 518.802 286.5 514.781C286.5 510.759 289.759 507.5 293.778 507.5C297.798 507.5 301.056 510.759 301.056 514.781Z" stroke="#484848"/>
<ellipse cx="125.405" cy="239.286" rx="7.77812" ry="7.78054" fill="#7E7E7E"/>
<path d="M130.227 236.283C130.227 240.304 126.968 243.563 122.949 243.563C118.93 243.563 115.671 240.304 115.671 236.283C115.671 232.262 118.93 229.002 122.949 229.002C126.968 229.002 130.227 232.262 130.227 236.283Z" stroke="#484848"/>
<ellipse cx="125.405" cy="627.767" rx="7.77812" ry="7.78054" fill="#7E7E7E"/>
<path d="M130.227 624.764C130.227 628.785 126.968 632.044 122.949 632.044C118.93 632.044 115.671 628.785 115.671 624.764C115.671 620.743 118.93 617.483 122.949 617.483C126.968 617.483 130.227 620.743 130.227 624.764Z" stroke="#484848"/>
<ellipse cx="7.77812" cy="7.78054" rx="7.77812" ry="7.78054" transform="matrix(-1 0 0 1 87.6931 327.602)" fill="#7E7E7E"/>
<path d="M75.0932 332.379C75.0932 336.4 78.3518 339.66 82.3713 339.66C86.3907 339.66 89.6494 336.4 89.6494 332.379C89.6494 328.358 86.3907 325.099 82.3713 325.099C78.3518 325.099 75.0932 328.358 75.0932 332.379Z" stroke="#484848"/>
<ellipse cx="7.77812" cy="7.78054" rx="7.77812" ry="7.78054" transform="matrix(-1 0 0 1 111.556 696.003)" fill="#7E7E7E"/>
<path d="M98.9562 700.781C98.9562 704.802 102.215 708.061 106.234 708.061C110.254 708.061 113.512 704.802 113.512 700.781C113.512 696.759 110.254 693.5 106.234 693.5C102.215 693.5 98.9562 696.759 98.9562 700.781Z" stroke="#484848"/>
<rect width="24.5636" height="24.5691" rx="12.2818" transform="matrix(0.926688 0.375831 -0.37563 0.926769 156.229 32)" fill="#7E7E7E"/>
<rect x="0.275529" y="0.6513" width="23.5636" height="23.5691" rx="11.7818" transform="matrix(0.926688 0.375831 -0.37563 0.926769 154.494 28.9441)" stroke="#484848"/>
<rect width="24.5636" height="24.5691" rx="12.2818" transform="matrix(0.926688 0.375831 -0.37563 0.926769 180.866 787.003)" fill="#7E7E7E"/>
<rect x="0.275529" y="0.6513" width="23.5636" height="23.5691" rx="11.7818" transform="matrix(0.926688 0.375831 -0.37563 0.926769 179.494 783.944)" stroke="#484848"/>
<rect width="24.5636" height="24.5691" rx="12.2818" transform="matrix(0.926688 0.375831 -0.37563 0.926769 144.866 437.003)" fill="#7E7E7E"/>
<rect x="0.275529" y="0.6513" width="23.5636" height="23.5691" rx="11.7818" transform="matrix(0.926688 0.375831 -0.37563 0.926769 143.494 433.944)" stroke="#484848"/>
<rect width="20.1574" height="20.1619" rx="10.0787" transform="matrix(-0.926688 0.375831 0.37563 0.926769 257.482 207.761)" fill="#7E7E7E"/>
<rect x="-0.275529" y="0.6513" width="19.1574" height="19.1619" rx="9.57871" transform="matrix(-0.926688 0.375831 0.37563 0.926769 258.05 205.448)" stroke="#484848"/>
<rect width="20.1574" height="20.1619" rx="10.0787" transform="matrix(-0.926688 0.375831 0.37563 0.926769 257.482 596.243)" fill="#7E7E7E"/>
<rect x="-0.275529" y="0.6513" width="19.1574" height="19.1619" rx="9.57871" transform="matrix(-0.926688 0.375831 0.37563 0.926769 258.05 593.93)" stroke="#484848"/>
<rect width="22.9355" height="22.9382" rx="11.4677" transform="matrix(0.8335 -0.552519 0.55228 0.833659 108.931 155.598)" fill="#D95D5D"/>
<rect x="0.69289" y="0.14057" width="21.9355" height="21.9382" rx="10.9677" transform="matrix(0.8335 -0.552519 0.55228 0.833659 105.656 154.22)" stroke="#D34422"/>
<rect width="22.9355" height="22.9382" rx="11.4677" transform="matrix(0.8335 -0.552519 0.55228 0.833659 108.931 544.079)" fill="#D95D5D"/>
<rect x="0.69289" y="0.14057" width="21.9355" height="21.9382" rx="10.9677" transform="matrix(0.8335 -0.552519 0.55228 0.833659 105.656 542.701)" stroke="#D34422"/>
<rect width="24.5648" height="24.5678" rx="12.2824" transform="matrix(-0.8335 -0.552519 -0.55228 0.833659 278.043 304.484)" fill="#D95D5D"/>
<rect x="-0.69289" y="0.14057" width="23.5648" height="23.5678" rx="11.7824" transform="matrix(-0.8335 -0.552519 -0.55228 0.833659 280.398 302.213)" stroke="#D34422"/>
<rect width="24.5648" height="24.5678" rx="12.2824" transform="matrix(-0.8335 -0.552519 -0.55228 0.833659 241.043 715.483)" fill="#D95D5D"/>
<rect x="-0.69289" y="0.14057" width="23.5648" height="23.5678" rx="11.7824" transform="matrix(-0.8335 -0.552519 -0.55228 0.833659 243.398 713.213)" stroke="#D34422"/>
<path d="M31.2703 137.813C30.0973 139.024 28.8417 140.426 26.1729 141.576L25.7303 141.767C22.037 143.359 20.7884 143.037 19.9785 141.157C18.9482 138.765 19.5978 137.836 23.2031 133.743L24.4208 132.357C24.8065 131.895 24.9193 131.635 24.7911 131.337C24.6066 130.909 24.1582 130.947 23.7661 131.116L18.0998 133.559C14.8998 134.938 12.5389 134.192 11.3805 131.503C10.222 128.814 11.3014 126.585 14.5014 125.206L20.5092 122.616C25.2395 120.577 32.0682 119.51 34.8259 125.911C37.0147 130.991 35.5432 133.389 31.2576 137.818L31.2703 137.813ZM30.1526 151.754C26.9526 153.133 24.5712 152.34 23.3769 149.567C22.1826 146.795 23.2415 144.519 26.4414 143.139L26.8841 142.948C30.084 141.569 32.4449 142.315 33.6597 145.135C34.8746 147.955 33.7952 150.183 30.5952 151.563L30.1526 151.754Z" fill="#5DB6E7"/>
<path d="M27.5942 136.934L27.5972 136.939C27.5334 137.005 27.4695 137.071 27.4052 137.138C26.2941 138.29 25.0926 139.537 22.6709 140.581L22.2282 140.771C20.3805 141.568 19.2599 141.828 18.535 141.732C18.1962 141.687 17.9462 141.563 17.7367 141.367C17.5178 141.163 17.3216 140.859 17.1335 140.422C16.8863 139.849 16.7586 139.404 16.7357 139C16.7133 138.607 16.7888 138.221 17.0017 137.762C17.4483 136.8 18.4513 135.606 20.2741 133.537L20.2744 133.536L21.4921 132.151L21.4922 132.151L21.5006 132.141C21.6982 131.904 21.8702 131.669 21.9622 131.425C22.0674 131.146 22.0625 130.873 21.9461 130.603C21.7794 130.216 21.4633 130.013 21.1139 129.97C20.804 129.931 20.4981 130.019 20.264 130.12L14.5977 132.563C13.0612 133.225 11.7992 133.345 10.8178 133.042C9.85251 132.744 9.07037 132.01 8.53544 130.769C8.00051 129.527 8.00429 128.454 8.4508 127.548C8.90479 126.626 9.85848 125.791 11.395 125.129L17.4028 122.539C19.7303 121.535 22.5284 120.793 25.0506 121.059C27.5343 121.321 29.7629 122.555 31.0626 125.572C32.128 128.045 32.2674 129.778 31.6939 131.406C31.105 133.078 29.7433 134.713 27.5942 136.934ZM26.6505 150.758C25.1171 151.419 23.8528 151.527 22.8632 151.205C21.8866 150.888 21.0867 150.121 20.5319 148.833C19.977 147.545 19.9692 146.437 20.4089 145.509C20.8545 144.568 21.8016 143.723 23.3351 143.062L23.7777 142.871C25.3145 142.209 26.5737 142.09 27.5593 142.406C28.5302 142.718 29.3305 143.482 29.8964 144.796C30.4623 146.11 30.4682 147.217 30.0279 148.137C29.5809 149.07 28.63 149.905 27.0932 150.567L26.6505 150.758Z" stroke="#055D8D"/>
<path d="M151.993 881.422C150.82 882.633 149.565 884.035 146.896 885.186L146.453 885.376C142.76 886.968 141.511 886.646 140.701 884.766C139.671 882.375 140.321 881.446 143.926 877.352L145.144 875.967C145.529 875.504 145.642 875.244 145.514 874.946C145.33 874.518 144.881 874.556 144.489 874.725L138.823 877.168C135.623 878.547 133.262 877.802 132.103 875.113C130.945 872.424 132.024 870.195 135.224 868.815L141.232 866.225C145.962 864.186 152.791 863.119 155.549 869.52C157.738 874.601 156.266 876.999 151.981 881.428L151.993 881.422ZM150.875 895.363C147.676 896.742 145.294 895.949 144.1 893.177C142.905 890.404 143.964 888.128 147.164 886.749L147.607 886.558C150.807 885.178 153.168 885.924 154.383 888.744C155.597 891.564 154.518 893.793 151.318 895.172L150.875 895.363Z" fill="#5DB6E7"/>
<path d="M148.317 880.544L148.32 880.548C148.256 880.614 148.192 880.68 148.128 880.747C147.017 881.9 145.816 883.146 143.394 884.19L142.951 884.381C141.103 885.177 139.983 885.438 139.258 885.341C138.919 885.296 138.669 885.172 138.46 884.977C138.241 884.772 138.044 884.468 137.856 884.032C137.609 883.458 137.481 883.013 137.459 882.61C137.436 882.217 137.512 881.83 137.725 881.372C138.171 880.41 139.174 879.216 140.997 877.146L140.997 877.146L142.215 875.76L142.215 875.76L142.223 875.75C142.421 875.513 142.593 875.278 142.685 875.035C142.79 874.756 142.785 874.482 142.669 874.212C142.502 873.825 142.186 873.622 141.837 873.579C141.527 873.541 141.221 873.629 140.987 873.73L135.321 876.172C133.784 876.835 132.522 876.954 131.541 876.652C130.575 876.354 129.793 875.62 129.258 874.378C128.723 873.136 128.727 872.064 129.174 871.157C129.628 870.236 130.581 869.4 132.118 868.738L138.126 866.148C140.453 865.145 143.251 864.403 145.774 864.668C148.257 864.93 150.486 866.165 151.785 869.182C152.851 871.655 152.99 873.388 152.417 875.016C151.828 876.687 150.466 878.322 148.317 880.544ZM147.373 894.367C145.84 895.028 144.576 895.137 143.586 894.815C142.61 894.497 141.81 893.73 141.255 892.442C140.7 891.154 140.692 890.046 141.132 889.118C141.577 888.177 142.525 887.332 144.058 886.671L144.501 886.481C146.037 885.818 147.297 885.7 148.282 886.016C149.253 886.327 150.053 887.092 150.619 888.405C151.185 889.719 151.191 890.826 150.751 891.746C150.304 892.68 149.353 893.514 147.816 894.176L147.373 894.367Z" stroke="#055D8D"/>
<path d="M31.2703 526.294C30.0973 527.505 28.8417 528.907 26.1729 530.057L25.7303 530.248C22.037 531.84 20.7884 531.518 19.9785 529.638C18.9482 527.246 19.5978 526.317 23.2031 522.224L24.4208 520.838C24.8065 520.376 24.9193 520.116 24.7911 519.818C24.6066 519.39 24.1582 519.428 23.7661 519.597L18.0998 522.04C14.8998 523.419 12.5389 522.673 11.3805 519.984C10.222 517.295 11.3014 515.067 14.5014 513.687L20.5092 511.097C25.2395 509.058 32.0682 507.991 34.8259 514.392C37.0147 519.472 35.5432 521.87 31.2576 526.299L31.2703 526.294ZM30.1526 540.235C26.9526 541.614 24.5712 540.821 23.3769 538.049C22.1826 535.276 23.2415 533 26.4414 531.62L26.8841 531.43C30.084 530.05 32.4449 530.796 33.6597 533.616C34.8746 536.436 33.7952 538.664 30.5952 540.044L30.1526 540.235Z" fill="#5DB6E7"/>
<path d="M27.5942 525.415L27.5972 525.42C27.5334 525.486 27.4695 525.552 27.4052 525.619C26.2941 526.771 25.0926 528.018 22.6709 529.062L22.2282 529.252C20.3805 530.049 19.2599 530.309 18.535 530.213C18.1962 530.168 17.9462 530.044 17.7367 529.848C17.5178 529.644 17.3216 529.34 17.1335 528.904C16.8863 528.33 16.7586 527.885 16.7357 527.481C16.7133 527.088 16.7888 526.702 17.0017 526.243C17.4483 525.282 18.4513 524.088 20.2741 522.018L20.2744 522.018L21.4921 520.632L21.4922 520.632L21.5006 520.622C21.6982 520.385 21.8702 520.15 21.9622 519.906C22.0674 519.628 22.0625 519.354 21.9461 519.084C21.7794 518.697 21.4633 518.494 21.1139 518.451C20.804 518.412 20.4981 518.5 20.264 518.601L14.5977 521.044C13.0612 521.706 11.7992 521.826 10.8178 521.523C9.85251 521.226 9.07037 520.492 8.53544 519.25C8.00051 518.008 8.00429 516.935 8.4508 516.029C8.90479 515.108 9.85848 514.272 11.395 513.61L17.4028 511.02C19.7303 510.017 22.5284 509.275 25.0506 509.54C27.5343 509.802 29.7629 511.037 31.0626 514.053C32.128 516.527 32.2674 518.26 31.6939 519.887C31.105 521.559 29.7433 523.194 27.5942 525.415ZM26.6505 539.239C25.1171 539.9 23.8528 540.009 22.8632 539.687C21.8866 539.369 21.0867 538.602 20.5319 537.314C19.977 536.026 19.9692 534.918 20.4089 533.99C20.8545 533.049 21.8016 532.204 23.3351 531.543L23.7777 531.352C25.3145 530.69 26.5737 530.571 27.5593 530.888C28.5302 531.199 29.3305 531.964 29.8964 533.277C30.4623 534.591 30.4682 535.698 30.0279 536.618C29.5809 537.552 28.63 538.386 27.0932 539.048L26.6505 539.239Z" stroke="#055D8D"/>
<path d="M385.516 339.561C384.343 340.772 383.088 342.174 380.419 343.324L379.976 343.515C376.283 345.107 375.034 344.785 374.224 342.905C373.194 340.514 373.844 339.585 377.449 335.491L378.667 334.105C379.052 333.643 379.165 333.383 379.037 333.085C378.852 332.657 378.404 332.695 378.012 332.864L372.346 335.307C369.146 336.686 366.785 335.94 365.626 333.251C364.468 330.562 365.547 328.334 368.747 326.954L374.755 324.364C379.485 322.325 386.314 321.258 389.072 327.659C391.261 332.74 389.789 335.137 385.503 339.567L385.516 339.561ZM384.398 353.502C381.198 354.881 378.817 354.088 377.623 351.316C376.428 348.543 377.487 346.267 380.687 344.887L381.13 344.697C384.33 343.317 386.691 344.063 387.906 346.883C389.12 349.703 388.041 351.932 384.841 353.311L384.398 353.502Z" fill="#5DB6E7"/>
<path d="M381.84 338.682L381.843 338.687C381.779 338.753 381.715 338.819 381.651 338.886C380.54 340.038 379.338 341.285 376.917 342.329L376.474 342.52C374.626 343.316 373.506 343.577 372.781 343.48C372.442 343.435 372.192 343.311 371.983 343.115C371.764 342.911 371.567 342.607 371.379 342.171C371.132 341.597 371.004 341.152 370.982 340.748C370.959 340.355 371.035 339.969 371.248 339.51C371.694 338.549 372.697 337.355 374.52 335.285L374.52 335.285L375.738 333.899L375.738 333.899L375.746 333.889C375.944 333.652 376.116 333.417 376.208 333.173C376.313 332.895 376.308 332.621 376.192 332.351C376.025 331.964 375.709 331.761 375.36 331.718C375.05 331.679 374.744 331.767 374.51 331.868L368.844 334.311C367.307 334.973 366.045 335.093 365.064 334.79C364.098 334.493 363.316 333.759 362.781 332.517C362.246 331.275 362.25 330.202 362.697 329.296C363.151 328.375 364.104 327.539 365.641 326.877L371.649 324.287C373.976 323.284 376.774 322.542 379.296 322.807C381.78 323.069 384.009 324.304 385.308 327.32C386.374 329.794 386.513 331.527 385.94 333.154C385.351 334.826 383.989 336.461 381.84 338.682ZM380.896 352.506C379.363 353.167 378.099 353.276 377.109 352.954C376.132 352.636 375.333 351.869 374.778 350.581C374.223 349.293 374.215 348.185 374.655 347.257C375.1 346.316 376.047 345.471 377.581 344.81L378.024 344.619C379.56 343.957 380.82 343.838 381.805 344.155C382.776 344.466 383.576 345.231 384.142 346.544C384.708 347.858 384.714 348.965 384.274 349.885C383.827 350.819 382.876 351.653 381.339 352.315L380.896 352.506Z" stroke="#055D8D"/>
<path d="M385.516 728.042C384.343 729.253 383.088 730.655 380.419 731.805L379.976 731.996C376.283 733.588 375.034 733.266 374.224 731.386C373.194 728.995 373.844 728.066 377.449 723.972L378.667 722.587C379.052 722.124 379.165 721.864 379.037 721.566C378.852 721.138 378.404 721.176 378.012 721.345L372.346 723.788C369.146 725.167 366.785 724.421 365.626 721.732C364.468 719.043 365.547 716.815 368.747 715.435L374.755 712.845C379.485 710.806 386.314 709.739 389.072 716.14C391.261 721.221 389.789 723.618 385.503 728.048L385.516 728.042ZM384.398 741.983C381.198 743.362 378.817 742.569 377.623 739.797C376.428 737.024 377.487 734.748 380.687 733.369L381.13 733.178C384.33 731.798 386.691 732.544 387.906 735.364C389.12 738.184 388.041 740.413 384.841 741.792L384.398 741.983Z" fill="#5DB6E7"/>
<path d="M381.84 727.163L381.843 727.168C381.779 727.234 381.715 727.3 381.651 727.367C380.54 728.519 379.338 729.766 376.917 730.81L376.474 731.001C374.626 731.797 373.506 732.058 372.781 731.961C372.442 731.916 372.192 731.792 371.983 731.597C371.764 731.392 371.567 731.088 371.379 730.652C371.132 730.078 371.004 729.633 370.982 729.23C370.959 728.836 371.035 728.45 371.248 727.991C371.694 727.03 372.697 725.836 374.52 723.766L374.52 723.766L375.738 722.38L375.738 722.38L375.746 722.37C375.944 722.133 376.116 721.898 376.208 721.655C376.313 721.376 376.308 721.102 376.192 720.832C376.025 720.445 375.709 720.242 375.36 720.199C375.05 720.161 374.744 720.249 374.51 720.349L368.844 722.792C367.307 723.454 366.045 723.574 365.064 723.271C364.098 722.974 363.316 722.24 362.781 720.998C362.246 719.756 362.25 718.684 362.697 717.777C363.151 716.856 364.104 716.02 365.641 715.358L371.649 712.768C373.976 711.765 376.774 711.023 379.296 711.288C381.78 711.55 384.009 712.785 385.308 715.802C386.374 718.275 386.513 720.008 385.94 721.636C385.351 723.307 383.989 724.942 381.84 727.163ZM380.896 740.987C379.363 741.648 378.099 741.757 377.109 741.435C376.132 741.117 375.333 740.35 374.778 739.062C374.223 737.774 374.215 736.666 374.655 735.738C375.1 734.797 376.047 733.952 377.581 733.291L378.024 733.1C379.56 732.438 380.82 732.319 381.805 732.636C382.776 732.947 383.576 733.712 384.142 735.025C384.708 736.339 384.714 737.446 384.274 738.366C383.827 739.3 382.876 740.134 381.339 740.796L380.896 740.987Z" stroke="#055D8D"/>
<path d="M329.165 12.3676C325.072 10.375 325.442 8.17428 326.815 4.40486L331.486 -8.4065C333.012 -12.654 336.616 -13.3569 340.71 -11.3644L341.276 -11.0887C345.37 -9.09616 347.057 -5.81789 344.641 -2.00352L337.446 9.57922C335.328 12.9864 333.825 14.6358 329.732 12.6432L329.165 12.3676ZM322.798 25.4579C318.704 23.4653 317.47 20.4076 319.215 16.8193C320.961 13.231 324.158 12.2538 328.251 14.2464L328.818 14.5221C332.911 16.5146 334.145 19.5724 332.37 23.2223C330.594 26.8721 327.457 27.7261 323.364 25.7335L322.798 25.4579Z" fill="#5DACD9"/>
<path d="M329.5 -11.7841L329.501 -11.7864C330.221 -13.7925 331.399 -14.8892 332.816 -15.2936C334.258 -15.7051 336.05 -15.4296 338.035 -14.4638L338.601 -14.1881C340.585 -13.2222 341.912 -11.9793 342.48 -10.5892C343.038 -9.22367 342.903 -7.6206 341.762 -5.82018L341.76 -5.81648L334.565 5.76616C334.565 5.7662 334.565 5.76623 334.565 5.76626C333.494 7.48824 332.655 8.62564 331.646 9.14186C330.696 9.62746 329.478 9.61029 327.494 8.64458L326.928 8.36892C324.944 7.40322 324.179 6.45503 323.975 5.40796C323.758 4.29484 324.134 2.93231 324.829 1.02723C324.829 1.02719 324.829 1.02716 324.829 1.02712L329.5 -11.7841ZM320.56 21.4592C318.579 20.4952 317.362 19.3081 316.823 17.9976C316.288 16.6987 316.382 15.1887 317.209 13.4891C318.036 11.7891 319.174 10.7665 320.536 10.3713C321.908 9.97313 323.599 10.1846 325.576 11.147L326.143 11.4227C328.123 12.3867 329.339 13.5734 329.875 14.8902C330.407 16.1958 330.307 17.7218 329.464 19.4544C328.621 21.1867 327.491 22.1901 326.146 22.5629C324.788 22.9394 323.11 22.7005 321.126 21.7349L320.56 21.4592Z" stroke="#055D8D"/>
<path d="M290.165 820.368C286.072 818.375 286.442 816.174 287.815 812.405L292.486 799.593C294.012 795.346 297.616 794.643 301.71 796.636L302.276 796.911C306.37 798.904 308.057 802.182 305.641 805.996L298.446 817.579C296.328 820.986 294.825 822.636 290.732 820.643L290.165 820.368ZM283.798 833.458C279.704 831.465 278.47 828.408 280.215 824.819C281.961 821.231 285.158 820.254 289.251 822.246L289.818 822.522C293.911 824.515 295.145 827.572 293.37 831.222C291.594 834.872 288.457 835.726 284.364 833.733L283.798 833.458Z" fill="#5DACD9"/>
<path d="M290.5 796.216L290.501 796.214C291.221 794.208 292.399 793.111 293.816 792.706C295.258 792.295 297.05 792.57 299.035 793.536L299.601 793.812C301.585 794.778 302.912 796.021 303.48 797.411C304.038 798.776 303.903 800.379 302.762 802.18L302.76 802.184L295.565 813.766C295.565 813.766 295.565 813.766 295.565 813.766C294.494 815.488 293.655 816.626 292.646 817.142C291.696 817.627 290.478 817.61 288.494 816.645L287.928 816.369C285.944 815.403 285.179 814.455 284.975 813.408C284.758 812.295 285.134 810.932 285.829 809.027C285.829 809.027 285.829 809.027 285.829 809.027L290.5 796.216ZM281.56 829.459C279.579 828.495 278.362 827.308 277.823 825.998C277.288 824.699 277.382 823.189 278.209 821.489C279.036 819.789 280.174 818.766 281.536 818.371C282.908 817.973 284.599 818.185 286.576 819.147L287.143 819.423C289.123 820.387 290.339 821.573 290.875 822.89C291.407 824.196 291.307 825.722 290.464 827.454C289.621 829.187 288.491 830.19 287.146 830.563C285.788 830.939 284.11 830.7 282.126 829.735L281.56 829.459Z" stroke="#055D8D"/>
<path d="M299.165 445.367C295.072 443.375 295.442 441.174 296.815 437.405L301.486 424.593C303.012 420.346 306.616 419.643 310.71 421.636L311.276 421.911C315.37 423.904 317.057 427.182 314.641 430.996L307.446 442.579C305.328 445.986 303.825 447.636 299.732 445.643L299.165 445.367ZM292.798 458.458C288.704 456.465 287.47 453.407 289.215 449.819C290.961 446.231 294.158 445.254 298.251 447.246L298.818 447.522C302.911 449.515 304.145 452.572 302.37 456.222C300.594 459.872 297.457 460.726 293.364 458.733L292.798 458.458Z" fill="#5DACD9"/>
<path d="M299.5 421.216L299.501 421.214C300.221 419.208 301.399 418.111 302.816 417.706C304.258 417.295 306.05 417.57 308.035 418.536L308.601 418.812C310.585 419.778 311.912 421.021 312.48 422.411C313.038 423.776 312.903 425.379 311.762 427.18L311.76 427.184L304.565 438.766C304.565 438.766 304.565 438.766 304.565 438.766C303.494 440.488 302.655 441.626 301.646 442.142C300.696 442.627 299.478 442.61 297.494 441.645L296.928 441.369C294.944 440.403 294.179 439.455 293.975 438.408C293.758 437.295 294.134 435.932 294.829 434.027C294.829 434.027 294.829 434.027 294.829 434.027L299.5 421.216ZM290.56 454.459C288.579 453.495 287.362 452.308 286.823 450.998C286.288 449.699 286.382 448.189 287.209 446.489C288.036 444.789 289.174 443.766 290.536 443.371C291.908 442.973 293.599 443.185 295.576 444.147L296.143 444.423C298.123 445.387 299.339 446.573 299.875 447.89C300.407 449.196 300.307 450.722 299.464 452.454C298.621 454.187 297.491 455.19 296.146 455.563C294.788 455.939 293.11 455.7 291.126 454.735L290.56 454.459Z" stroke="#055D8D"/>
<path d="M67.6541 197.461C70.9771 195.844 70.6767 194.057 69.5618 190.997L65.7699 180.598C64.5313 177.15 61.6059 176.579 58.2828 178.197L57.8231 178.42C54.5001 180.038 53.1305 182.699 55.0916 185.795L60.9325 195.198C62.6515 197.964 63.8714 199.302 67.1944 197.685L67.6541 197.461ZM72.8232 208.087C76.1463 206.47 77.1481 203.988 75.7311 201.075C74.3142 198.162 71.7191 197.369 68.396 198.986L67.9363 199.21C64.6133 200.828 63.6115 203.31 65.0528 206.273C66.494 209.235 69.0405 209.929 72.3635 208.311L72.8232 208.087Z" fill="#5DACD9"/>
<path d="M67.2941 177.888L67.2933 177.886C66.7163 176.279 65.7798 175.416 64.6647 175.097C63.5246 174.772 62.0944 174.987 60.4954 175.765L60.0357 175.989C58.4366 176.767 57.3817 177.762 56.9325 178.861C56.4934 179.936 56.5949 181.205 57.5079 182.647L57.5102 182.65L63.351 192.053C63.351 192.053 63.351 192.053 63.351 192.053C64.222 193.454 64.8909 194.354 65.6835 194.759C66.4162 195.134 67.3709 195.133 68.9696 194.354L69.4293 194.131C71.028 193.352 71.618 192.602 71.7753 191.794C71.9456 190.92 71.6509 189.838 71.086 188.288C71.086 188.288 71.086 188.288 71.086 188.288L67.2941 177.888ZM74.5984 204.757C76.1936 203.98 77.16 203.031 77.5863 201.996C78.0078 200.972 77.9379 199.775 77.2754 198.413C76.6128 197.051 75.7069 196.243 74.6329 195.931C73.5488 195.616 72.2006 195.78 70.6087 196.555L70.1489 196.779C68.5537 197.555 67.5883 198.504 67.1649 199.544C66.746 200.573 66.8205 201.784 67.4962 203.173C68.1718 204.562 69.0707 205.353 70.1299 205.647C71.2029 205.944 72.5402 205.759 74.1387 204.981L74.5984 204.757Z" stroke="#055D8D"/>
<path d="M67.6541 585.942C70.9771 584.325 70.6767 582.538 69.5618 579.478L65.7699 569.079C64.5313 565.631 61.6059 565.06 58.2828 566.678L57.8231 566.901C54.5001 568.519 53.1305 571.18 55.0916 574.276L60.9325 583.679C62.6515 586.445 63.8714 587.784 67.1944 586.166L67.6541 585.942ZM72.8232 596.569C76.1463 594.951 77.1481 592.469 75.7311 589.556C74.3142 586.643 71.7191 585.85 68.396 587.467L67.9363 587.691C64.6133 589.309 63.6115 591.791 65.0528 594.754C66.494 597.717 69.0405 598.41 72.3635 596.792L72.8232 596.569Z" fill="#5DACD9"/>
<path d="M67.2941 566.369L67.2933 566.367C66.7163 564.761 65.7798 563.897 64.6647 563.579C63.5246 563.253 62.0944 563.468 60.4954 564.246L60.0357 564.47C58.4366 565.248 57.3817 566.243 56.9325 567.342C56.4934 568.417 56.5949 569.686 57.5079 571.128L57.5102 571.132L63.351 580.534C63.351 580.534 63.351 580.534 63.351 580.534C64.222 581.935 64.8909 582.835 65.6835 583.24C66.4162 583.615 67.3709 583.614 68.9696 582.836L69.4293 582.612C71.028 581.834 71.618 581.083 71.7753 580.275C71.9456 579.401 71.6509 578.319 71.086 576.769C71.086 576.769 71.086 576.769 71.086 576.769L67.2941 566.369ZM74.5984 593.238C76.1936 592.461 77.16 591.512 77.5863 590.477C78.0078 589.453 77.9379 588.256 77.2754 586.894C76.6128 585.532 75.7069 584.724 74.6329 584.412C73.5488 584.098 72.2006 584.261 70.6087 585.036L70.1489 585.26C68.5537 586.036 67.5883 586.985 67.1649 588.026C66.746 589.055 66.8205 590.265 67.4962 591.654C68.1718 593.043 69.0707 593.834 70.1299 594.128C71.2029 594.425 72.5402 594.24 74.1387 593.462L74.5984 593.238Z" stroke="#055D8D"/>
<path d="M221.083 172.574C217.697 170.594 216.951 167.692 218.922 164.32C220.893 160.949 223.759 160.225 227.145 162.205L240.528 170.034C243.913 172.015 244.697 174.853 242.716 178.24C240.736 181.628 237.851 182.384 234.465 180.403L221.083 172.574Z" fill="#5DACD9"/>
<path d="M219.698 168.321C218.08 167.375 217.16 166.249 216.84 165.021C216.52 163.793 216.775 162.362 217.716 160.751C218.658 159.14 219.772 158.23 220.99 157.918C222.209 157.606 223.635 157.867 225.255 158.815L238.638 166.644C240.259 167.593 241.187 168.705 241.514 169.918C241.84 171.13 241.594 172.547 240.647 174.166C239.701 175.785 238.579 176.708 237.354 177.029C236.129 177.35 234.699 177.096 233.08 176.15L219.698 168.321Z" stroke="#055D8D"/>
<path d="M207.843 569.236C204.457 567.256 203.712 564.354 205.683 560.983C207.654 557.611 210.52 556.887 213.906 558.868L227.288 566.696C230.674 568.677 231.457 571.515 229.477 574.903C227.496 578.29 224.612 579.046 221.226 577.065L207.843 569.236Z" fill="#5DACD9"/>
<path d="M206.458 564.983C204.841 564.037 203.92 562.911 203.6 561.683C203.281 560.455 203.535 559.024 204.477 557.413C205.418 555.802 206.532 554.892 207.75 554.581C208.969 554.268 210.395 554.529 212.016 555.477L225.398 563.306C227.02 564.255 227.948 565.367 228.274 566.58C228.601 567.792 228.354 569.209 227.408 570.828C226.461 572.447 225.339 573.37 224.114 573.691C222.889 574.012 221.459 573.759 219.841 572.812L206.458 564.983Z" stroke="#055D8D"/>
<path d="M173.651 363.236C177.036 361.256 177.782 358.354 175.811 354.983C173.84 351.611 170.974 350.887 167.588 352.868L154.206 360.696C150.82 362.677 150.037 365.515 152.017 368.903C153.997 372.29 156.882 373.046 160.268 371.065L173.651 363.236Z" fill="#5DACD9"/>
<path d="M175.036 358.983C176.653 358.037 177.574 356.911 177.893 355.683C178.213 354.455 177.959 353.024 177.017 351.413C176.076 349.802 174.961 348.892 173.744 348.581C172.525 348.268 171.099 348.529 169.478 349.477L156.096 357.306C154.474 358.255 153.546 359.367 153.219 360.58C152.893 361.792 153.14 363.209 154.086 364.828C155.033 366.447 156.155 367.37 157.38 367.691C158.605 368.012 160.035 367.759 161.653 366.812L175.036 358.983Z" stroke="#055D8D"/>
<path d="M148.806 748.608C152.192 746.627 152.938 743.725 150.967 740.354C148.996 736.983 146.13 736.258 142.744 738.239L129.361 746.068C125.976 748.048 125.192 750.887 127.173 754.274C129.153 757.661 132.038 758.417 135.424 756.437L148.806 748.608Z" fill="#5DACD9"/>
<path d="M150.191 744.354C151.809 743.408 152.729 742.282 153.049 741.054C153.369 739.826 153.114 738.395 152.173 736.784C151.231 735.174 150.117 734.263 148.899 733.952C147.68 733.639 146.254 733.9 144.634 734.848L131.251 742.677C129.63 743.626 128.701 744.738 128.375 745.951C128.049 747.163 128.295 748.58 129.242 750.199C130.188 751.818 131.31 752.741 132.535 753.062C133.76 753.383 135.19 753.13 136.809 752.183L150.191 744.354Z" stroke="#055D8D"/>
<path d="M94.602 -3.04129C93.424 -6.16569 94.602 -8.57676 97.8836 -8.93343C101.263 -9.2901 103.409 -8.43409 104.601 -5.30969L113.352 18.0592C114.474 21.1265 113.562 23.5946 110.126 23.9513C106.901 24.308 104.489 23.3949 103.353 20.3276L94.602 -3.04129Z" fill="#5DACD9"/>
<path d="M91.2495 -3.21663L91.2491 -3.21768C90.691 -4.69797 90.724 -5.92078 91.1902 -6.78868C91.6487 -7.64242 92.5903 -8.27027 94.1161 -8.43627C95.7626 -8.60995 97.0319 -8.47829 98.0163 -7.98072C98.9848 -7.49122 99.7483 -6.61103 100.312 -5.13289C100.313 -5.13242 100.313 -5.13194 100.313 -5.13146L109.061 18.2309C109.062 18.2315 109.062 18.2321 109.062 18.2327C109.598 19.6984 109.612 20.9263 109.179 21.8C108.76 22.6474 107.856 23.2876 106.254 23.454L106.251 23.4543C104.691 23.6268 103.388 23.4846 102.357 22.9751C101.34 22.4729 100.532 21.5866 100.001 20.1539L100 20.1522L91.2495 -3.21663Z" stroke="#055D8D"/>
<path d="M90.2666 802.968C89.0886 799.843 90.2666 797.432 93.5481 797.076C96.9279 796.719 99.0735 797.575 100.266 800.699L109.016 824.068C110.138 827.136 109.227 829.604 105.791 829.96C102.565 830.317 100.153 829.404 99.0174 826.337L90.2666 802.968Z" fill="#5DACD9"/>
<path d="M86.914 802.792L86.9136 802.791C86.3555 801.311 86.3886 800.088 86.8547 799.22C87.3132 798.367 88.2549 797.739 89.7806 797.573C91.4271 797.399 92.6965 797.531 93.6809 798.028C94.6494 798.518 95.4128 799.398 95.977 800.876C95.9772 800.877 95.9774 800.877 95.9776 800.878L104.726 824.24C104.726 824.241 104.726 824.241 104.727 824.242C105.262 825.707 105.276 826.935 104.844 827.809C104.425 828.656 103.521 829.297 101.918 829.463L101.915 829.463C100.355 829.636 99.0526 829.494 98.0212 828.984C97.0044 828.482 96.1961 827.596 95.6655 826.163L95.6649 826.161L86.914 802.792Z" stroke="#055D8D"/>
<path d="M94.602 385.44C93.424 382.315 94.602 379.904 97.8836 379.548C101.263 379.191 103.409 380.047 104.601 383.171L113.352 406.54C114.474 409.608 113.562 412.076 110.126 412.432C106.901 412.789 104.489 411.876 103.353 408.809L94.602 385.44Z" fill="#5DACD9"/>
<path d="M91.2495 385.265L91.2491 385.263C90.691 383.783 90.724 382.56 91.1902 381.692C91.6487 380.839 92.5903 380.211 94.1161 380.045C95.7626 379.871 97.0319 380.003 98.0163 380.5C98.9848 380.99 99.7483 381.87 100.312 383.348C100.313 383.349 100.313 383.349 100.313 383.35L109.061 406.712C109.062 406.713 109.062 406.713 109.062 406.714C109.598 408.179 109.612 409.407 109.179 410.281C108.76 411.129 107.856 411.769 106.254 411.935L106.251 411.935C104.691 412.108 103.388 411.966 102.357 411.456C101.34 410.954 100.532 410.068 100.001 408.635L100 408.633L91.2495 385.265Z" stroke="#055D8D"/>
<path d="M321.596 185.603C322.774 182.478 321.596 180.067 318.314 179.711C314.935 179.354 312.789 180.21 311.597 183.334L302.846 206.703C301.724 209.771 302.636 212.239 306.072 212.595C309.297 212.952 311.709 212.039 312.845 208.972L321.596 185.603Z" fill="#5DACD9"/>
<path d="M324.949 185.427L324.949 185.426C325.507 183.946 325.474 182.723 325.008 181.855C324.549 181.002 323.608 180.374 322.082 180.208C320.435 180.034 319.166 180.166 318.182 180.663C317.213 181.153 316.45 182.033 315.886 183.511C315.885 183.512 315.885 183.512 315.885 183.513L307.137 206.875C307.136 206.876 307.136 206.876 307.136 206.877C306.6 208.342 306.586 209.57 307.019 210.444C307.438 211.291 308.342 211.932 309.944 212.098L309.947 212.098C311.507 212.271 312.81 212.129 313.841 211.619C314.858 211.117 315.666 210.231 316.197 208.798L316.198 208.796L324.949 185.427Z" stroke="#055D8D"/>
<path d="M320.204 595.968C321.382 592.843 320.204 590.432 316.923 590.076C313.543 589.719 311.397 590.575 310.205 593.699L301.455 617.068C300.333 620.136 301.244 622.604 304.68 622.96C307.906 623.317 310.318 622.404 311.454 619.337L320.204 595.968Z" fill="#5DACD9"/>
<path d="M323.557 595.792L323.557 595.791C324.115 594.311 324.082 593.088 323.616 592.22C323.158 591.367 322.216 590.739 320.69 590.573C319.044 590.399 317.774 590.531 316.79 591.028C315.822 591.518 315.058 592.398 314.494 593.876C314.494 593.877 314.494 593.877 314.493 593.878L305.745 617.24C305.745 617.241 305.745 617.241 305.744 617.242C305.209 618.707 305.195 619.935 305.627 620.809C306.046 621.656 306.95 622.297 308.552 622.463L308.556 622.463C310.115 622.636 311.418 622.494 312.45 621.984C313.467 621.482 314.275 620.596 314.805 619.163L314.806 619.161L323.557 595.792Z" stroke="#055D8D"/>
<path d="M213.559 109.193C216.075 107.316 216.364 104.809 213.946 102.863C211.45 100.867 209.318 100.457 206.791 102.327L188.02 116.394C185.577 118.254 185.048 120.67 187.588 122.695C189.962 124.613 192.334 125.113 194.788 123.26L213.559 109.193Z" fill="#5DACD9"/>
<path d="M211.621 106.062L211.622 106.062C212.81 105.176 213.397 104.198 213.466 103.286C213.535 102.39 213.114 101.424 211.996 100.523C210.782 99.5525 209.715 99.0171 208.692 98.9128C207.686 98.8103 206.643 99.1166 205.452 99.9978C205.451 99.9981 205.451 99.9984 205.45 99.9987L186.685 114.062C186.685 114.062 186.684 114.063 186.684 114.063C185.52 114.949 184.894 115.908 184.795 116.807C184.699 117.678 185.083 118.634 186.262 119.574L186.265 119.576C187.41 120.501 188.509 121.046 189.576 121.164C190.627 121.281 191.708 120.992 192.849 120.131L192.851 120.13L211.621 106.062Z" stroke="#055D8D"/>
<path d="M238.794 826.642C241.31 824.765 241.599 822.259 239.181 820.313C236.686 818.317 234.553 817.907 232.026 819.776L213.255 833.843C210.813 835.703 210.284 838.12 212.824 840.144C215.197 842.062 217.57 842.562 220.023 840.709L238.794 826.642Z" fill="#5DACD9"/>
<path d="M236.857 823.512L236.858 823.511C238.045 822.625 238.632 821.647 238.702 820.735C238.77 819.839 238.35 818.873 237.231 817.973C236.017 817.002 234.951 816.466 233.927 816.362C232.922 816.26 231.878 816.566 230.687 817.447C230.687 817.448 230.686 817.448 230.686 817.448L211.921 831.511C211.92 831.512 211.92 831.512 211.919 831.512C210.756 832.399 210.13 833.357 210.03 834.257C209.935 835.127 210.319 836.083 211.498 837.023L211.5 837.025C212.645 837.951 213.744 838.495 214.811 838.614C215.862 838.731 216.944 838.442 218.085 837.58L218.086 837.579L236.857 823.512Z" stroke="#055D8D"/>
<path d="M235.559 492.193C238.075 490.316 238.364 487.809 235.946 485.863C233.45 483.867 231.318 483.457 228.791 485.327L210.02 499.394C207.577 501.254 207.048 503.67 209.588 505.695C211.962 507.613 214.334 508.113 216.788 506.26L235.559 492.193Z" fill="#5DACD9"/>
<path d="M233.621 489.062L233.622 489.062C234.81 488.176 235.397 487.198 235.466 486.286C235.535 485.39 235.114 484.424 233.996 483.523C232.782 482.552 231.715 482.017 230.692 481.913C229.686 481.81 228.643 482.117 227.452 482.998C227.451 482.998 227.451 482.998 227.45 482.999L208.685 497.062C208.685 497.062 208.684 497.063 208.684 497.063C207.52 497.949 206.894 498.908 206.795 499.807C206.699 500.678 207.083 501.634 208.262 502.574L208.265 502.576C209.41 503.501 210.509 504.046 211.576 504.164C212.627 504.281 213.708 503.992 214.849 503.131L214.851 503.13L233.621 489.062Z" stroke="#055D8D"/>
<path d="M156.377 276.193C153.861 274.316 153.572 271.809 155.99 269.863C158.485 267.867 160.618 267.457 163.145 269.327L181.916 283.394C184.358 285.254 184.887 287.67 182.347 289.695C179.974 291.613 177.601 292.113 175.148 290.26L156.377 276.193Z" fill="#5DACD9"/>
<path d="M158.314 273.062L158.313 273.062C157.125 272.176 156.539 271.198 156.469 270.286C156.401 269.39 156.821 268.424 157.94 267.523C159.154 266.552 160.22 266.017 161.244 265.913C162.249 265.81 163.293 266.117 164.484 266.998C164.484 266.998 164.485 266.998 164.485 266.999L183.25 281.062C183.251 281.062 183.251 281.063 183.252 281.063C184.415 281.949 185.041 282.908 185.14 283.807C185.236 284.678 184.852 285.634 183.673 286.574L183.671 286.576C182.525 287.501 181.427 288.046 180.36 288.164C179.309 288.281 178.227 287.992 177.086 287.131L177.085 287.13L158.314 273.062Z" stroke="#055D8D"/>
<path d="M280.377 679.193C277.861 677.316 277.572 674.809 279.99 672.863C282.485 670.867 284.618 670.457 287.145 672.327L305.916 686.394C308.358 688.254 308.887 690.67 306.347 692.695C303.974 694.613 301.601 695.113 299.148 693.26L280.377 679.193Z" fill="#5DACD9"/>
<path d="M282.314 676.062L282.313 676.062C281.125 675.176 280.539 674.198 280.469 673.286C280.401 672.39 280.821 671.424 281.94 670.523C283.154 669.552 284.22 669.017 285.244 668.913C286.249 668.81 287.293 669.117 288.484 669.998C288.484 669.998 288.485 669.998 288.485 669.999L307.25 684.062C307.251 684.062 307.251 684.063 307.252 684.063C308.415 684.949 309.041 685.908 309.14 686.807C309.236 687.678 308.852 688.634 307.673 689.574L307.671 689.576C306.525 690.501 305.427 691.046 304.36 691.164C303.309 691.281 302.227 690.992 301.086 690.131L301.085 690.13L282.314 676.062Z" stroke="#055D8D"/>
</g>
<defs>
<clipPath id="clip0_283_27499">
<rect width="393" height="905" fill="white"/>
</clipPath>
</defs>
</svg>
