<svg width="27" height="32" viewBox="0 0 27 32" fill="none" xmlns="http://www.w3.org/2000/svg">
<path d="M24.5912 12.6323C27.4075 11.736 27.5858 9.19269 25.9967 7.74564C25.6031 7.38687 24.619 7.71496 23.4328 8.37514L23.9836 8.9913C24.1831 9.21403 24.257 9.52345 24.1804 9.81286C24.1038 10.1036 23.8858 10.333 23.6045 10.4264C19.9613 11.6173 16.5441 12.0148 13.6036 12.0148C7.87341 12.0148 3.9555 10.5037 3.71245 10.4077C3.44958 10.3037 3.25144 10.0783 3.18275 9.80219C3.11274 9.52612 3.18011 9.2327 3.3624 9.01531L3.79039 8.50317C2.50247 7.75631 1.4193 7.36553 1.00056 7.74697C-0.53173 9.14068 -0.412846 11.5493 2.11808 12.5256C0.852615 14.5768 0.130061 17.0455 0.130061 19.7795C0.130061 27.5043 5.99635 31.0239 13.6829 31.0239C21.3695 31.0239 26.5066 27.503 26.5066 19.7795C26.5066 17.0895 25.8052 14.6595 24.5833 12.6256L24.5912 12.631V12.6323ZM19.2176 14.2874C19.9349 14.2874 20.5161 14.8742 20.5161 15.5984C20.5161 16.3226 19.9349 16.9094 19.2176 16.9094C18.5004 16.9094 17.9192 16.3226 17.9192 15.5984C17.9192 14.8742 18.5004 14.2874 19.2176 14.2874ZM8.14684 14.2874C8.86412 14.2874 9.44533 14.8742 9.44533 15.5984C9.44533 16.3226 8.86412 16.9094 8.14684 16.9094C7.42957 16.9094 6.84836 16.3226 6.84836 15.5984C6.84836 14.8742 7.42957 14.2874 8.14684 14.2874ZM20.5888 20.2623C20.4673 20.4077 19.4356 21.5614 17.5348 21.8148V23.1778C17.5348 23.2138 17.5282 23.2485 17.5242 23.2832C17.5282 23.3178 17.5348 23.3525 17.5348 23.3885C17.5348 23.8766 17.1424 24.2728 16.659 24.2728H10.7068C10.2234 24.2728 9.83104 23.8766 9.83104 23.3885C9.83104 23.3525 9.83765 23.3178 9.84161 23.2832C9.83765 23.2485 9.83104 23.2138 9.83104 23.1778V21.8201C7.88398 21.556 6.82591 20.3224 6.77703 20.2623C6.46529 19.8889 6.51284 19.3314 6.88271 19.0167C7.25125 18.7033 7.80208 18.7486 8.11382 19.1194C8.15741 19.17 8.99225 20.1036 10.5668 20.1036C10.5879 20.1036 10.6091 20.1036 10.6302 20.1036C11.9327 20.0823 12.6922 19.4435 12.926 19.2114C11.8785 18.9326 11.111 18.1018 11.111 17.1122C11.111 15.8945 12.2642 14.9049 13.6816 14.9049C15.099 14.9049 16.2521 15.8945 16.2521 17.1122C16.2521 18.1018 15.486 18.9313 14.4385 19.2101C14.6881 19.4528 15.4807 20.1036 16.8003 20.1036C16.8215 20.1036 16.8426 20.1036 16.8637 20.1036C18.4224 20.0783 19.2137 19.162 19.2467 19.122C19.5598 18.7513 20.1132 18.7033 20.4818 19.0193C20.8503 19.3341 20.8979 19.8889 20.5875 20.2623H20.5888Z" fill="white"/>
<path d="M11.5824 22.4856H12.8069V21.3746C12.4582 21.536 12.0474 21.6707 11.5824 21.7574V22.4856Z" fill="white"/>
<path d="M14.5017 17.0961C14.5017 16.9214 14.1755 16.6573 13.6828 16.6573C13.19 16.6573 12.8638 16.9214 12.8638 17.0961C12.8638 17.2708 13.19 17.5349 13.6828 17.5349C14.1755 17.5349 14.5017 17.2708 14.5017 17.0961Z" fill="white"/>
<path d="M14.5587 22.4855H15.7832V21.756C15.3196 21.6667 14.9088 21.528 14.5587 21.3639V22.4842V22.4855Z" fill="white"/>
<path d="M21.1263 7.78831L20.7485 7.87367C20.7155 7.88034 20.6838 7.88834 20.6494 7.89501C20.1871 7.9897 19.0603 8.21776 18.3431 8.28845C14.0857 8.71123 10.2431 8.71923 6.09002 7.5976L5.11121 9.29272C7.62892 10.0276 14.6603 11.2906 21.9281 9.42875C22.0007 9.41008 22.0747 9.40475 22.15 9.39141L21.1263 7.78965V7.78831Z" fill="white"/>
<path d="M19.0037 2.49882V6.71062C19.7038 6.59059 20.2652 6.44122 20.6231 6.26117C20.6984 6.22383 20.7671 6.18382 20.8239 6.1438C20.7473 4.7461 20.0697 3.47642 19.0037 2.49749V2.49882Z" fill="white"/>
<path d="M10.1136 1.33053V6.92671C12.3091 7.11876 15.0566 7.11876 17.252 6.92671V1.33053C16.2005 0.829066 14.984 0.536987 13.6828 0.536987C12.3817 0.536987 11.1651 0.829066 10.1136 1.33053ZM13.9814 2.45084C14.8571 2.45084 15.4027 2.98165 15.4027 3.83654V4.61275C15.4027 5.46898 14.8585 6.00246 13.9814 6.00246H13.3856C12.5098 6.00246 11.9643 5.47031 11.9643 4.61275V2.55886C11.9643 2.00005 12.3302 1.60928 12.8546 1.60928C13.346 1.60928 13.6987 1.9507 13.7423 2.45217H13.9814V2.45084Z" fill="white"/>
<path d="M6.54309 6.14513C6.59989 6.18648 6.66726 6.22516 6.74387 6.2625C7.10185 6.44255 7.66325 6.59192 8.36335 6.71195V2.50015C7.29867 3.47775 6.62103 4.74742 6.54441 6.14513H6.54309Z" fill="white"/>
<path d="M14.1754 3.62852H13.1913C13.1709 3.62852 13.1543 3.64524 13.1543 3.66587V4.65947C13.1543 4.68009 13.1709 4.69681 13.1913 4.69681H14.1754C14.1958 4.69681 14.2124 4.68009 14.2124 4.65947V3.66587C14.2124 3.64524 14.1958 3.62852 14.1754 3.62852Z" fill="white"/>
</svg>
